LOSTandFOUND_Regular.ufo
<glyph name="asterisk" format="2">
  <advance width="430.5202591774521"/>
  <unicode hex="002A"/>
  <outline>
    <contour>
      <point x="242" y="451" type="line"/>
      <point x="246" y="390" type="line"/>
      <point x="228" y="389" type="line"/>
      <point x="194" y="373" type="line"/>
      <point x="162" y="362" type="line" smooth="yes"/>
      <point x="153" y="359"/>
      <point x="138" y="351"/>
      <point x="130" y="352" type="curve" smooth="yes"/>
      <point x="105" y="355" type="line"/>
      <point x="99" y="361"/>
      <point x="87" y="383"/>
      <point x="87" y="395" type="curve"/>
      <point x="91" y="408"/>
      <point x="103" y="419"/>
      <point x="110" y="430" type="curve" smooth="yes"/>
      <point x="145" y="489" type="line" smooth="yes"/>
      <point x="149" y="494"/>
      <point x="150" y="508"/>
      <point x="147" y="513" type="curve" smooth="yes"/>
      <point x="144" y="518"/>
      <point x="135" y="523"/>
      <point x="127" y="526" type="curve" smooth="yes"/>
      <point x="85" y="544"/>
      <point x="35" y="586"/>
      <point x="20" y="629" type="curve"/>
      <point x="51" y="626" type="line" smooth="yes"/>
      <point x="78" y="623"/>
      <point x="105" y="641"/>
      <point x="126" y="608" type="curve" smooth="yes"/>
      <point x="127" y="606"/>
      <point x="134" y="600"/>
      <point x="135" y="602" type="curve" smooth="yes"/>
      <point x="137" y="604"/>
      <point x="140" y="611"/>
      <point x="140" y="614" type="curve" smooth="yes"/>
      <point x="126" y="757" type="line"/>
      <point x="158" y="749" type="line"/>
      <point x="181" y="746" type="line" smooth="yes"/>
      <point x="188" y="745"/>
      <point x="194" y="730"/>
      <point x="194" y="722" type="curve" smooth="yes"/>
      <point x="208" y="602" type="line"/>
      <point x="208" y="659" type="line"/>
      <point x="219" y="614" type="line"/>
      <point x="267" y="714" type="line"/>
      <point x="280" y="702"/>
      <point x="293" y="697"/>
      <point x="308" y="704" type="curve"/>
      <point x="311" y="699"/>
      <point x="313" y="691"/>
      <point x="317" y="690" type="curve" smooth="yes"/>
      <point x="338" y="687" type="line"/>
      <point x="326" y="639" type="line" smooth="yes"/>
      <point x="318" y="604"/>
      <point x="294" y="575"/>
      <point x="279" y="543" type="curve"/>
      <point x="280" y="535"/>
      <point x="280" y="525"/>
      <point x="274" y="517" type="curve"/>
      <point x="377" y="492" type="line" smooth="yes"/>
      <point x="385" y="489"/>
      <point x="398" y="484"/>
      <point x="402" y="479" type="curve" smooth="yes"/>
      <point x="408" y="473"/>
      <point x="412" y="455"/>
      <point x="410" y="448" type="curve"/>
      <point x="387" y="433"/>
      <point x="364" y="446"/>
      <point x="342" y="452" type="curve" smooth="yes"/>
      <point x="253" y="478" type="line"/>
      <point x="245" y="474"/>
      <point x="242" y="460"/>
      <point x="242" y="451" type="curve"/>
    </contour>
  </outline>
</glyph>
<glyph name="A" format="2">
  <advance width="746"/>
  <unicode hex="0041"/>
  <outline>
    <contour>
      <point x="650" y="-26" type="line"/>
      <point x="616" y="-32" type="line" smooth="yes"/>
      <point x="604" y="-33"/>
      <point x="589" y="-15"/>
      <point x="586" y="-2" type="curve" smooth="yes"/>
      <point x="570" y="50"/>
      <point x="555" y="98"/>
      <point x="535" y="148" type="curve" smooth="yes"/>
      <point x="481" y="283" type="line"/>
      <point x="389" y="270" type="line"/>
      <point x="247" y="251" type="line"/>
      <point x="211" y="179"/>
      <point x="184" y="96"/>
      <point x="171" y="12" type="curve"/>
      <point x="161" y="3"/>
      <point x="141" y="0"/>
      <point x="125" y="-2" type="curve" smooth="yes"/>
      <point x="83" y="-8" type="line"/>
      <point x="30" y="-2" type="line"/>
      <point x="41" y="45" type="line" smooth="yes"/>
      <point x="52" y="99"/>
      <point x="68" y="149"/>
      <point x="89" y="203" type="curve" smooth="yes"/>
      <point x="160" y="386" type="line" smooth="yes"/>
      <point x="179" y="436"/>
      <point x="196" y="487"/>
      <point x="208" y="538" type="curve" smooth="yes"/>
      <point x="259" y="746" type="line"/>
      <point x="273" y="748"/>
      <point x="290" y="753"/>
      <point x="302" y="751" type="curve" smooth="yes"/>
      <point x="356" y="750" type="line"/>
      <point x="364" y="739"/>
      <point x="374" y="735"/>
      <point x="388" y="736" type="curve"/>
      <point x="403" y="721"/>
      <point x="414" y="697"/>
      <point x="424" y="675" type="curve" smooth="yes"/>
      <point x="448" y="624" type="line"/>
      <point x="479" y="556" type="line" smooth="yes"/>
      <point x="498" y="516"/>
      <point x="526" y="480"/>
      <point x="541" y="437" type="curve" smooth="yes"/>
      <point x="551" y="405"/>
      <point x="578" y="358"/>
      <point x="575" y="358" type="curve"/>
      <point x="589" y="354" type="line"/>
      <point x="587" y="352"/>
      <point x="578" y="340"/>
      <point x="581" y="339" type="curve" smooth="yes"/>
      <point x="599" y="328" type="line"/>
      <point x="595" y="307" type="line"/>
      <point x="612" y="302" type="line" smooth="yes"/>
      <point x="616" y="301"/>
      <point x="610" y="289"/>
      <point x="605" y="285" type="curve"/>
      <point x="630" y="223" type="line"/>
      <point x="662" y="151" type="line"/>
      <point x="702" y="62" type="line" smooth="yes"/>
      <point x="708" y="48"/>
      <point x="710" y="24"/>
      <point x="716" y="6" type="curve"/>
      <point x="714" y="-3"/>
      <point x="698" y="-21"/>
      <point x="690" y="-24" type="curve"/>
      <point x="674" y="-22"/>
      <point x="665" y="-24"/>
      <point x="650" y="-26" type="curve"/>
    </contour>
    <contour>
      <point x="459" y="333" type="line"/>
      <point x="410" y="442" type="line"/>
      <point x="347" y="550" type="line"/>
      <point x="269" y="310" type="line"/>
      <point x="333" y="312"/>
      <point x="395" y="332"/>
      <point x="459" y="333" type="curve"/>
    </contour>
  </outline>
</glyph>
<glyph name="B" format="2">
  <advance width="555.2346494292838"/>
  <unicode hex="0042"/>
  <outline>
    <contour>
      <point x="379.0963467666175" y="629" type="line"/>
      <point x="371.0963467666175" y="610" type="line" smooth="yes"/>
      <point x="371.0963467666175" y="609"/>
      <point x="376.0963467666175" y="605"/>
      <point x="377.0963467666175" y="606" type="curve"/>
      <point x="384.0963467666175" y="612" type="line"/>
      <point x="348.0963467666175" y="514" type="line"/>
      <point x="362.0963467666175" y="527" type="line"/>
      <point x="351.0963467666175" y="495" type="line" smooth="yes"/>
      <point x="345.0963467666175" y="480"/>
      <point x="340.0963467666175" y="464"/>
      <point x="331.0963467666175" y="449" type="curve" smooth="yes"/>
      <point x="294.0963467666175" y="387" type="line"/>
      <point x="354.0963467666175" y="385"/>
      <point x="407.0963467666175" y="379"/>
      <point x="461.0963467666175" y="357" type="curve"/>
      <point x="470.0963467666175" y="344"/>
      <point x="483.0963467666175" y="331"/>
      <point x="499.0963467666175" y="324" type="curve" smooth="yes"/>
      <point x="515.0963467666174" y="315"/>
      <point x="521.0963467666174" y="295"/>
      <point x="526.0963467666174" y="278" type="curve" smooth="yes"/>
      <point x="535.0963467666174" y="254" type="line"/>
      <point x="537.0963467666174" y="208"/>
      <point x="517.0963467666174" y="168"/>
      <point x="495.0963467666175" y="130" type="curve" smooth="yes"/>
      <point x="466.0963467666175" y="82" type="line" smooth="yes"/>
      <point x="450.0963467666175" y="56"/>
      <point x="385.0963467666175" y="-9"/>
      <point x="359.0963467666175" y="-20" type="curve" smooth="yes"/>
      <point x="324.0963467666175" y="-36"/>
      <point x="286.0963467666175" y="-46"/>
      <point x="247.0963467666175" y="-55" type="curve"/>
      <point x="209.0963467666175" y="-43" type="line"/>
      <point x="155.0963467666175" y="3" type="line"/>
      <point x="99.09634676661749" y="-14" type="line" smooth="yes"/>
      <point x="83.09634676661749" y="-19"/>
      <point x="72.09634676661749" y="2"/>
      <point x="70.09634676661749" y="17" type="curve" smooth="yes"/>
      <point x="61.096346766617486" y="112" type="line"/>
      <point x="61.096346766617486" y="280" type="line"/>
      <point x="62.096346766617486" y="318" type="line"/>
      <point x="63.096346766617486" y="378" type="line"/>
      <point x="68.09634676661749" y="380"/>
      <point x="72.09634676661749" y="381"/>
      <point x="72.09634676661749" y="384" type="curve" smooth="yes"/>
      <point x="71.09634676661749" y="386"/>
      <point x="66.09634676661749" y="395"/>
      <point x="66.09634676661749" y="398" type="curve" smooth="yes"/>
      <point x="68.09634676661749" y="460" type="line"/>
      <point x="71.09634676661749" y="492" type="line" smooth="yes"/>
      <point x="76.09634676661749" y="527"/>
      <point x="64.09634676661749" y="527"/>
      <point x="72.09634676661749" y="546" type="curve"/>
      <point x="68.09634676661749" y="595" type="line"/>
      <point x="62.096346766617486" y="600"/>
      <point x="50.096346766617486" y="610"/>
      <point x="50.096346766617486" y="617" type="curve" smooth="yes"/>
      <point x="49.096346766617486" y="622"/>
      <point x="56.096346766617486" y="634"/>
      <point x="61.096346766617486" y="639" type="curve" smooth="yes"/>
      <point x="85.09634676661749" y="660"/>
      <point x="67.09634676661749" y="684"/>
      <point x="81.09634676661749" y="691" type="curve"/>
      <point x="95.09634676661749" y="692"/>
      <point x="117.09634676661749" y="697"/>
      <point x="129.0963467666175" y="704" type="curve" smooth="yes"/>
      <point x="170.0963467666175" y="728" type="line" smooth="yes"/>
      <point x="213.0963467666175" y="753"/>
      <point x="258.0963467666175" y="762"/>
      <point x="307.0963467666175" y="760" type="curve" smooth="yes"/>
      <point x="333.0963467666175" y="758"/>
      <point x="354.0963467666175" y="752"/>
      <point x="374.0963467666175" y="733" type="curve" smooth="yes"/>
      <point x="385.0963467666175" y="723"/>
      <point x="395.0963467666175" y="709"/>
      <point x="394.0963467666175" y="694" type="curve"/>
      <point x="388.0963467666175" y="696"/>
      <point x="384.0963467666175" y="697"/>
      <point x="384.0963467666175" y="695" type="curve" smooth="yes"/>
      <point x="384.0963467666175" y="694"/>
      <point x="385.0963467666175" y="688"/>
      <point x="385.0963467666175" y="686" type="curve" smooth="yes"/>
    </contour>
    <contour>
      <point x="203.0963467666175" y="75" type="line"/>
      <point x="210.0963467666175" y="77"/>
      <point x="212.0963467666175" y="78"/>
      <point x="213.0963467666175" y="77" type="curve" smooth="yes"/>
      <point x="214.0963467666175" y="70" type="line" smooth="yes"/>
      <point x="224.0963467666175" y="43"/>
      <point x="239.0963467666175" y="22"/>
      <point x="265.0963467666175" y="9" type="curve" smooth="yes"/>
      <point x="277.0963467666175" y="3"/>
      <point x="291.0963467666175" y="6"/>
      <point x="300.0963467666175" y="16" type="curve" smooth="yes"/>
      <point x="349.0963467666175" y="68" type="line" smooth="yes"/>
      <point x="410.0963467666175" y="132"/>
      <point x="496.0963467666175" y="264"/>
      <point x="414.0963467666175" y="318" type="curve" smooth="yes"/>
      <point x="383.0963467666175" y="338"/>
      <point x="347.0963467666175" y="342"/>
      <point x="312.0963467666175" y="346" type="curve" smooth="yes"/>
      <point x="279.0963467666175" y="349"/>
      <point x="250.0963467666175" y="345"/>
      <point x="220.0963467666175" y="327" type="curve" smooth="yes"/>
      <point x="207.0963467666175" y="320"/>
      <point x="175.0963467666175" y="322"/>
      <point x="171.0963467666175" y="339" type="curve" smooth="yes"/>
      <point x="168.0963467666175" y="350"/>
      <point x="174.0963467666175" y="357"/>
      <point x="180.0963467666175" y="364" type="curve" smooth="yes"/>
      <point x="210.0963467666175" y="394"/>
      <point x="234.0963467666175" y="426"/>
      <point x="253.0963467666175" y="463" type="curve" smooth="yes"/>
      <point x="289.0963467666175" y="533" type="line"/>
      <point x="317.0963467666175" y="593"/>
      <point x="366.0963467666175" y="725"/>
      <point x="302.0963467666175" y="726" type="curve" smooth="yes"/>
      <point x="261.0963467666175" y="726"/>
      <point x="224.0963467666175" y="710"/>
      <point x="190.0963467666175" y="689" type="curve" smooth="yes"/>
      <point x="149.0963467666175" y="662"/>
      <point x="132.0963467666175" y="657"/>
      <point x="141.0963467666175" y="602" type="curve"/>
      <point x="146.0963467666175" y="627" type="line"/>
      <point x="156.0963467666175" y="602"/>
      <point x="150.0963467666175" y="581"/>
      <point x="150.0963467666175" y="556" type="curve" smooth="yes"/>
      <point x="149.0963467666175" y="390" type="line"/>
      <point x="147.0963467666175" y="367" type="line"/>
      <point x="152.0963467666175" y="368"/>
      <point x="158.0963467666175" y="370"/>
      <point x="159.0963467666175" y="368" type="curve" smooth="yes"/>
      <point x="164.0963467666175" y="356" type="line"/>
      <point x="164.0963467666175" y="165" type="line"/>
      <point x="168.0963467666175" y="123" type="line" smooth="yes"/>
      <point x="171.0963467666175" y="93"/>
      <point x="178.0963467666175" y="66"/>
      <point x="191.0963467666175" y="39" type="curve"/>
      <point x="197.0963467666175" y="52" type="line"/>
      <point x="216.0963467666175" y="29" type="line"/>
      <point x="203.0963467666175" y="75" type="line"/>
    </contour>
    <contour>
      <point x="114.09634676661749" y="560" type="line"/>
      <point x="115.09634676661749" y="549" type="line" smooth="yes"/>
      <point x="115.09634676661749" y="547"/>
      <point x="121.09634676661749" y="549"/>
      <point x="121.09634676661749" y="551" type="curve" smooth="yes"/>
      <point x="121.09634676661749" y="558" type="line" smooth="yes"/>
      <point x="121.09634676661749" y="560"/>
      <point x="114.09634676661749" y="561"/>
      <point x="114.09634676661749" y="560" type="curve"/>
    </contour>
  </outline>
</glyph>
<glyph name="C" format="2">
  <advance width="581.962475584514"/>
  <unicode hex="0043"/>
  <outline>
    <contour>
      <point x="363.962475584514" y="54" type="line"/>
      <point x="393.962475584514" y="54"/>
      <point x="433.962475584514" y="74"/>
      <point x="446.962475584514" y="97" type="curve" smooth="yes"/>
      <point x="455.962475584514" y="110"/>
      <point x="455.962475584514" y="124"/>
      <point x="468.962475584514" y="131" type="curve" smooth="yes"/>
      <point x="470.962475584514" y="132"/>
      <point x="475.962475584514" y="138"/>
      <point x="476.962475584514" y="137" type="curve" smooth="yes"/>
      <point x="487.962475584514" y="132" type="line"/>
      <point x="511.962475584514" y="142" type="line"/>
      <point x="521.962475584514" y="121" type="line"/>
      <point x="536.962475584514" y="135" type="line"/>
      <point x="561.962475584514" y="92" type="line"/>
      <point x="538.962475584514" y="62" type="line"/>
      <point x="509.962475584514" y="39"/>
      <point x="476.962475584514" y="19"/>
      <point x="442.962475584514" y="7" type="curve" smooth="yes"/>
      <point x="365.962475584514" y="-18"/>
      <point x="260.962475584514" y="-24"/>
      <point x="198.962475584514" y="25" type="curve" smooth="yes"/>
      <point x="143.962475584514" y="68"/>
      <point x="101.96247558451401" y="127"/>
      <point x="73.96247558451401" y="193" type="curve" smooth="yes"/>
      <point x="30.962475584514003" y="292"/>
      <point x="19.962475584514003" y="397"/>
      <point x="38.962475584514" y="502" type="curve" smooth="yes"/>
      <point x="46.962475584514" y="550" type="line" smooth="yes"/>
      <point x="53.962475584514" y="584"/>
      <point x="69.96247558451401" y="627"/>
      <point x="90.96247558451401" y="652" type="curve" smooth="yes"/>
      <point x="121.96247558451401" y="686"/>
      <point x="151.962475584514" y="716"/>
      <point x="193.962475584514" y="733" type="curve" smooth="yes"/>
      <point x="219.962475584514" y="744" type="line" smooth="yes"/>
      <point x="239.962475584514" y="752"/>
      <point x="268.962475584514" y="759"/>
      <point x="293.962475584514" y="757" type="curve" smooth="yes"/>
      <point x="347.962475584514" y="752" type="line"/>
      <point x="403.962475584514" y="717"/>
      <point x="437.962475584514" y="697"/>
      <point x="440.962475584514" y="626" type="curve"/>
      <point x="437.962475584514" y="623"/>
      <point x="420.962475584514" y="623"/>
      <point x="418.962475584514" y="627" type="curve" smooth="yes"/>
      <point x="404.962475584514" y="651" type="line"/>
      <point x="405.962475584514" y="613" type="line" smooth="yes"/>
      <point x="405.962475584514" y="601"/>
      <point x="380.962475584514" y="596"/>
      <point x="370.962475584514" y="598" type="curve" smooth="yes"/>
      <point x="357.962475584514" y="601"/>
      <point x="346.962475584514" y="618"/>
      <point x="345.962475584514" y="632" type="curve" smooth="yes"/>
      <point x="343.962475584514" y="654"/>
      <point x="332.962475584514" y="669"/>
      <point x="318.962475584514" y="686" type="curve" smooth="yes"/>
      <point x="292.962475584514" y="715"/>
      <point x="255.962475584514" y="719"/>
      <point x="221.962475584514" y="698" type="curve" smooth="yes"/>
      <point x="168.962475584514" y="667"/>
      <point x="128.962475584514" y="593"/>
      <point x="132.962475584514" y="532" type="curve" smooth="yes"/>
      <point x="132.962475584514" y="530"/>
      <point x="128.962475584514" y="523"/>
      <point x="127.96247558451401" y="522" type="curve" smooth="yes"/>
      <point x="126.96247558451401" y="518"/>
      <point x="130.962475584514" y="516"/>
      <point x="134.962475584514" y="512" type="curve"/>
      <point x="130.962475584514" y="451" type="line"/>
      <point x="144.962475584514" y="347" type="line"/>
      <point x="152.962475584514" y="316" type="line" smooth="yes"/>
      <point x="165.962475584514" y="258"/>
      <point x="190.962475584514" y="200"/>
      <point x="227.962475584514" y="153" type="curve" smooth="yes"/>
      <point x="263.962475584514" y="108" type="line" smooth="yes"/>
      <point x="286.962475584514" y="80"/>
      <point x="320.962475584514" y="54"/>
      <point x="363.962475584514" y="54" type="curve"/>
    </contour>
  </outline>
</glyph>
<glyph name="D" format="2">
  <advance width="610.5"/>
  <unicode hex="0044"/>
  <outline>
    <contour>
      <point x="536.5" y="163" type="line"/>
      <point x="502.5" y="85" type="line"/>
      <point x="521.5" y="95" type="line"/>
      <point x="512.5" y="77"/>
      <point x="504.5" y="67"/>
      <point x="493.5" y="53" type="curve" smooth="yes"/>
      <point x="487.5" y="45"/>
      <point x="480.5" y="32"/>
      <point x="472.5" y="29" type="curve" smooth="yes"/>
      <point x="460.5" y="25"/>
      <point x="460.5" y="23"/>
      <point x="453.5" y="15" type="curve" smooth="yes"/>
      <point x="444.5" y="0"/>
      <point x="420.5" y="-4"/>
      <point x="404.5" y="-7" type="curve" smooth="yes"/>
      <point x="352.5" y="-17" type="line"/>
      <point x="303.5" y="-23"/>
      <point x="256.5" y="-15"/>
      <point x="208.5" y="1" type="curve" smooth="yes"/>
      <point x="198.5" y="5"/>
      <point x="192.5" y="9"/>
      <point x="187.5" y="21" type="curve"/>
      <point x="181.5" y="7"/>
      <point x="174.5" y="1"/>
      <point x="160.5" y="0" type="curve" smooth="yes"/>
      <point x="136.5" y="-4" type="line" smooth="yes"/>
      <point x="122.5" y="-6"/>
      <point x="111.5" y="-9"/>
      <point x="96.5" y="-7" type="curve"/>
      <point x="73.5" y="-11" type="line"/>
      <point x="64.5" y="0"/>
      <point x="56.5" y="19"/>
      <point x="56.5" y="34" type="curve" smooth="yes"/>
      <point x="54.5" y="155" type="line"/>
      <point x="54.5" y="205" type="line"/>
      <point x="52.5" y="251" type="line"/>
      <point x="52.5" y="301" type="line"/>
      <point x="52.5" y="393" type="line"/>
      <point x="56.5" y="523" type="line"/>
      <point x="62.5" y="639" type="line"/>
      <point x="46.5" y="653"/>
      <point x="44.5" y="677"/>
      <point x="64.5" y="691" type="curve"/>
      <point x="68.5" y="739" type="line"/>
      <point x="96.5" y="741" type="line"/>
      <point x="160.5" y="752" type="line" smooth="yes"/>
      <point x="187.5" y="757"/>
      <point x="212.5" y="765"/>
      <point x="238.5" y="765" type="curve" smooth="yes"/>
      <point x="292.5" y="765"/>
      <point x="344.5" y="755"/>
      <point x="392.5" y="737" type="curve" smooth="yes"/>
      <point x="402.5" y="735"/>
      <point x="406.5" y="731"/>
      <point x="415.5" y="731" type="curve" smooth="yes"/>
      <point x="438.5" y="727"/>
      <point x="457.5" y="714"/>
      <point x="474.5" y="701" type="curve"/>
      <point x="458.5" y="701" type="line"/>
      <point x="480.5" y="679"/>
      <point x="500.5" y="665"/>
      <point x="514.5" y="643" type="curve" smooth="yes"/>
      <point x="534.5" y="609"/>
      <point x="554.5" y="573"/>
      <point x="563.5" y="535" type="curve" smooth="yes"/>
      <point x="574.5" y="489"/>
      <point x="584.5" y="447"/>
      <point x="582.5" y="399" type="curve"/>
      <point x="576.5" y="435" type="line"/>
      <point x="574.5" y="431" type="line"/>
      <point x="572.5" y="338" type="line"/>
      <point x="567.5" y="271" type="line"/>
      <point x="576.5" y="289" type="line"/>
      <point x="584.5" y="321" type="line"/>
      <point x="580.5" y="323" type="line"/>
      <point x="580.5" y="355" type="line"/>
      <point x="584.5" y="327" type="line"/>
      <point x="588.5" y="323" type="line"/>
      <point x="584.5" y="279"/>
      <point x="576.5" y="233"/>
      <point x="557.5" y="191" type="curve"/>
      <point x="554.5" y="211" type="line"/>
      <point x="538.5" y="167" type="line"/>
      <point x="544.5" y="163" type="line"/>
      <point x="544.5" y="163"/>
      <point x="550.5" y="163"/>
      <point x="548.5" y="161" type="curve" smooth="yes"/>
      <point x="544.5" y="150" type="line"/>
      <point x="544.5" y="150"/>
      <point x="540.5" y="148"/>
      <point x="540.5" y="150" type="curve" smooth="yes"/>
      <point x="542.5" y="161" type="line"/>
      <point x="536.5" y="163" type="line"/>
    </contour>
    <contour>
      <point x="230.5" y="79" type="line"/>
      <point x="252.5" y="57" type="line"/>
      <point x="278.5" y="45"/>
      <point x="312.5" y="36"/>
      <point x="343.5" y="39" type="curve" smooth="yes"/>
      <point x="444.5" y="51"/>
      <point x="504.5" y="279"/>
      <point x="508.5" y="383" type="curve" smooth="yes"/>
      <point x="514.5" y="483"/>
      <point x="491.5" y="611"/>
      <point x="415.5" y="673" type="curve" smooth="yes"/>
      <point x="379.5" y="703"/>
      <point x="339.5" y="714"/>
      <point x="294.5" y="723" type="curve" smooth="yes"/>
      <point x="252.5" y="731"/>
      <point x="204.5" y="735"/>
      <point x="168.5" y="709" type="curve"/>
      <point x="162.5" y="583" type="line" smooth="yes"/>
      <point x="162.5" y="565"/>
      <point x="164.5" y="553"/>
      <point x="166.5" y="535" type="curve" smooth="yes"/>
      <point x="166.5" y="497" type="line"/>
      <point x="166.5" y="260" type="line"/>
      <point x="172.5" y="65" type="line" smooth="yes"/>
      <point x="172.5" y="55"/>
      <point x="181.5" y="47"/>
      <point x="187.5" y="51" type="curve"/>
      <point x="180.5" y="67" type="line"/>
      <point x="192.5" y="72"/>
      <point x="200.5" y="74"/>
      <point x="206.5" y="81" type="curve"/>
      <point x="208.5" y="77"/>
      <point x="218.5" y="67"/>
      <point x="219.5" y="69" type="curve" smooth="yes"/>
      <point x="230.5" y="79" type="line"/>
    </contour>
    <contour>
      <point x="565.5" y="262" type="line"/>
      <point x="565.5" y="251" type="line" smooth="yes"/>
      <point x="565.5" y="249"/>
      <point x="571.5" y="251"/>
      <point x="571.5" y="253" type="curve" smooth="yes"/>
      <point x="571.5" y="260" type="line" smooth="yes"/>
      <point x="571.5" y="262"/>
      <point x="565.5" y="263"/>
      <point x="565.5" y="262" type="curve"/>
    </contour>
    <contour>
      <point x="586.5" y="383" type="line"/>
      <point x="590.5" y="383" type="line"/>
      <point x="590.5" y="333" type="line"/>
      <point x="586.5" y="333" type="line"/>
    </contour>
    <contour>
      <point x="584.5" y="459" type="line"/>
      <point x="590.5" y="459" type="line"/>
      <point x="590.5" y="423" type="line"/>
      <point x="584.5" y="423" type="line"/>
    </contour>
    <contour>
      <point x="565.5" y="262" type="line"/>
      <point x="565.5" y="263"/>
      <point x="571.5" y="262"/>
      <point x="571.5" y="260" type="curve" smooth="yes"/>
      <point x="571.5" y="253" type="line" smooth="yes"/>
      <point x="571.5" y="251"/>
      <point x="565.5" y="249"/>
      <point x="565.5" y="251" type="curve" smooth="yes"/>
      <point x="565.5" y="262" type="line"/>
    </contour>
  </outline>
</glyph>
<glyph name="E" format="2">
  <advance width="518"/>
  <unicode hex="0045"/>
  <outline>
    <contour>
      <point x="165" y="53" type="line"/>
      <point x="265" y="47" type="line" smooth="yes"/>
      <point x="289" y="47"/>
      <point x="310" y="58"/>
      <point x="334" y="65" type="curve"/>
      <point x="363" y="69" type="line"/>
      <point x="370" y="65"/>
      <point x="380" y="61"/>
      <point x="390" y="58" type="curve" smooth="yes"/>
      <point x="396" y="58"/>
      <point x="399" y="45"/>
      <point x="397" y="40" type="curve" smooth="yes"/>
      <point x="394" y="32"/>
      <point x="388" y="25"/>
      <point x="378" y="21" type="curve" smooth="yes"/>
      <point x="343" y="4" type="line"/>
      <point x="291" y="-12"/>
      <point x="239" y="-12"/>
      <point x="186" y="-12" type="curve" smooth="yes"/>
      <point x="93" y="-11" type="line" smooth="yes"/>
      <point x="80" y="-11"/>
      <point x="55" y="-12"/>
      <point x="55" y="11" type="curve" smooth="yes"/>
      <point x="55" y="136" type="line"/>
      <point x="63" y="317" type="line"/>
      <point x="63" y="473" type="line"/>
      <point x="60" y="632" type="line"/>
      <point x="56" y="681" type="line"/>
      <point x="50" y="728" type="line"/>
      <point x="111" y="741" type="line"/>
      <point x="253" y="769" type="line" smooth="yes"/>
      <point x="324" y="784"/>
      <point x="395" y="783"/>
      <point x="465" y="771" type="curve" smooth="yes"/>
      <point x="481" y="769"/>
      <point x="488" y="760"/>
      <point x="488" y="745" type="curve"/>
      <point x="459" y="741" type="line" smooth="yes"/>
      <point x="442" y="739"/>
      <point x="422" y="734"/>
      <point x="403" y="738" type="curve" smooth="yes"/>
      <point x="367" y="747"/>
      <point x="330" y="750"/>
      <point x="293" y="744" type="curve" smooth="yes"/>
      <point x="152" y="717" type="line"/>
      <point x="155" y="621" type="line"/>
      <point x="160" y="553" type="line"/>
      <point x="165" y="442" type="line"/>
      <point x="166" y="335" type="line"/>
      <point x="227" y="327"/>
      <point x="291" y="347"/>
      <point x="345" y="341" type="curve" smooth="yes"/>
      <point x="411" y="336" type="line"/>
      <point x="401" y="323"/>
      <point x="388" y="313"/>
      <point x="372" y="309" type="curve" smooth="yes"/>
      <point x="304" y="293"/>
      <point x="235" y="285"/>
      <point x="165" y="284" type="curve"/>
      <point x="163" y="200" type="line"/>
      <point x="163" y="118" type="line"/>
      <point x="165" y="53" type="line"/>
    </contour>
  </outline>
</glyph>
<glyph name="F" format="2">
  <advance width="623"/>
  <unicode hex="0046"/>
  <outline>
    <contour>
      <point x="281" y="-3" type="line"/>
      <point x="238" y="-14"/>
      <point x="177" y="-17"/>
      <point x="137" y="-3" type="curve"/>
      <point x="118" y="147" type="line"/>
      <point x="114" y="194" type="line"/>
      <point x="109" y="256" type="line"/>
      <point x="107" y="308" type="line"/>
      <point x="104" y="344" type="line"/>
      <point x="101" y="389" type="line"/>
      <point x="97" y="505" type="line"/>
      <point x="92" y="541" type="line"/>
      <point x="92" y="671" type="line"/>
      <point x="50" y="686" type="line"/>
      <point x="56" y="713"/>
      <point x="86" y="692"/>
      <point x="92" y="723" type="curve" smooth="yes"/>
      <point x="94" y="728"/>
      <point x="94" y="741"/>
      <point x="98" y="743" type="curve" smooth="yes"/>
      <point x="120" y="751" type="line"/>
      <point x="138" y="759" type="line" smooth="yes"/>
      <point x="142" y="762"/>
      <point x="151" y="753"/>
      <point x="153" y="752" type="curve"/>
      <point x="164" y="758"/>
      <point x="171" y="761"/>
      <point x="184" y="759" type="curve" smooth="yes"/>
      <point x="193" y="759"/>
      <point x="199" y="750"/>
      <point x="203" y="735" type="curve"/>
      <point x="343" y="773" type="line" smooth="yes"/>
      <point x="398" y="789"/>
      <point x="453" y="798"/>
      <point x="509" y="798" type="curve"/>
      <point x="545" y="796" type="line" smooth="yes"/>
      <point x="561" y="793"/>
      <point x="567" y="791"/>
      <point x="573" y="775" type="curve"/>
      <point x="603" y="772" type="line"/>
      <point x="596" y="762"/>
      <point x="588" y="757"/>
      <point x="574" y="756" type="curve" smooth="yes"/>
      <point x="487" y="744" type="line"/>
      <point x="314" y="705" type="line"/>
      <point x="211" y="687" type="line"/>
      <point x="217" y="618" type="line"/>
      <point x="223" y="538" type="line"/>
      <point x="227" y="422" type="line"/>
      <point x="290" y="435" type="line"/>
      <point x="468" y="469" type="line" smooth="yes"/>
      <point x="492" y="474"/>
      <point x="555" y="456"/>
      <point x="591" y="446" type="curve"/>
      <point x="588" y="420" type="line"/>
      <point x="234" y="370" type="line"/>
      <point x="246" y="242" type="line"/>
      <point x="281" y="-3" type="line"/>
    </contour>
  </outline>
</glyph>
<glyph name="G" format="2">
  <advance width="561.7106324616938"/>
  <unicode hex="0047"/>
  <outline>
    <contour>
      <point x="527.7106324616938" y="-8" type="line"/>
      <point x="528.7106324616938" y="-26"/>
      <point x="524.7106324616938" y="-45"/>
      <point x="510.71063246169376" y="-51" type="curve"/>
      <point x="497.71063246169376" y="-51"/>
      <point x="484.71063246169376" y="-53"/>
      <point x="473.71063246169376" y="-57" type="curve"/>
      <point x="442.71063246169376" y="-57" type="line"/>
      <point x="432.71063246169376" y="-53"/>
      <point x="428.71063246169376" y="-28"/>
      <point x="428.71063246169376" y="-15" type="curve" smooth="yes"/>
      <point x="433.71063246169376" y="70" type="line"/>
      <point x="366.71063246169376" y="30" type="line"/>
      <point x="338.71063246169376" y="7"/>
      <point x="307.71063246169376" y="-1"/>
      <point x="269.71063246169376" y="-3" type="curve" smooth="yes"/>
      <point x="208.7106324616938" y="-7"/>
      <point x="181.7106324616938" y="-18"/>
      <point x="134.7106324616938" y="40" type="curve" smooth="yes"/>
      <point x="97.71063246169379" y="85"/>
      <point x="68.71063246169379" y="130"/>
      <point x="45.71063246169379" y="183" type="curve" smooth="yes"/>
      <point x="36.71063246169379" y="201"/>
      <point x="27.710632461693788" y="223"/>
      <point x="28.710632461693788" y="242" type="curve" smooth="yes"/>
      <point x="29.710632461693788" y="279" type="line"/>
      <point x="22.710632461693788" y="280"/>
      <point x="20.710632461693788" y="281"/>
      <point x="21.710632461693788" y="283" type="curve" smooth="yes"/>
      <point x="30.710632461693788" y="294" type="line"/>
      <point x="6.710632461693788" y="321"/>
      <point x="31.710632461693788" y="335"/>
      <point x="23.710632461693788" y="360" type="curve"/>
      <point x="31.710632461693788" y="362" type="line" smooth="yes"/>
      <point x="33.71063246169379" y="362"/>
      <point x="34.71063246169379" y="371"/>
      <point x="34.71063246169379" y="374" type="curve" smooth="yes"/>
      <point x="34.71063246169379" y="385" type="line" smooth="yes"/>
      <point x="34.71063246169379" y="388"/>
      <point x="29.710632461693788" y="387"/>
      <point x="27.710632461693788" y="387" type="curve"/>
      <point x="66.71063246169379" y="502" type="line"/>
      <point x="88.71063246169379" y="557" type="line"/>
      <point x="108.71063246169379" y="594" type="line"/>
      <point x="144.7106324616938" y="649" type="line"/>
      <point x="164.7106324616938" y="673" type="line"/>
      <point x="208.7106324616938" y="721" type="line" smooth="yes"/>
      <point x="227.7106324616938" y="741"/>
      <point x="264.71063246169376" y="757"/>
      <point x="302.71063246169376" y="756" type="curve" smooth="yes"/>
      <point x="353.71063246169376" y="756"/>
      <point x="407.71063246169376" y="741"/>
      <point x="378.71063246169376" y="727" type="curve"/>
      <point x="338.71063246169376" y="730"/>
      <point x="307.71063246169376" y="714"/>
      <point x="276.71063246169376" y="689" type="curve"/>
      <point x="198.7106324616938" y="608"/>
      <point x="145.7106324616938" y="504"/>
      <point x="133.7106324616938" y="392" type="curve" smooth="yes"/>
      <point x="130.7106324616938" y="362" type="line" smooth="yes"/>
      <point x="119.71063246169379" y="267"/>
      <point x="149.7106324616938" y="190"/>
      <point x="205.7106324616938" y="111" type="curve" smooth="yes"/>
      <point x="219.7106324616938" y="90"/>
      <point x="232.7106324616938" y="69"/>
      <point x="253.7106324616938" y="53" type="curve"/>
      <point x="266.71063246169376" y="55"/>
      <point x="281.71063246169376" y="61"/>
      <point x="293.71063246169376" y="67" type="curve" smooth="yes"/>
      <point x="381.71063246169376" y="116" type="line" smooth="yes"/>
      <point x="404.71063246169376" y="128"/>
      <point x="407.71063246169376" y="164"/>
      <point x="437.71063246169376" y="149" type="curve"/>
      <point x="440.71063246169376" y="222"/>
      <point x="442.71063246169376" y="294"/>
      <point x="434.71063246169376" y="367" type="curve"/>
      <point x="377.71063246169376" y="352"/>
      <point x="322.71063246169376" y="341"/>
      <point x="265.71063246169376" y="336" type="curve" smooth="yes"/>
      <point x="250.7106324616938" y="335"/>
      <point x="241.7106324616938" y="343"/>
      <point x="236.7106324616938" y="357" type="curve"/>
      <point x="269.71063246169376" y="370" type="line"/>
      <point x="318.71063246169376" y="385" type="line" smooth="yes"/>
      <point x="355.71063246169376" y="397"/>
      <point x="393.71063246169376" y="408"/>
      <point x="433.71063246169376" y="413" type="curve" smooth="yes"/>
      <point x="453.71063246169376" y="416"/>
      <point x="508.71063246169376" y="408"/>
      <point x="511.71063246169376" y="402" type="curve" smooth="yes"/>
      <point x="525.7106324616938" y="380"/>
      <point x="528.7106324616938" y="355"/>
      <point x="528.7106324616938" y="330" type="curve" smooth="yes"/>
      <point x="531.7106324616938" y="215" type="line"/>
      <point x="530.7106324616938" y="141" type="line" smooth="yes"/>
      <point x="530.7106324616938" y="91"/>
      <point x="523.7106324616938" y="44"/>
      <point x="527.7106324616938" y="-8" type="curve"/>
    </contour>
    <contour>
      <point x="47.71063246169379" y="369" type="line"/>
      <point x="54.71063246169379" y="376"/>
      <point x="53.71063246169379" y="384"/>
      <point x="50.71063246169379" y="389" type="curve"/>
      <point x="47.71063246169379" y="369" type="line"/>
    </contour>
  </outline>
</glyph>
<glyph name="H" format="2">
  <advance width="565.129378751302"/>
  <unicode hex="0048"/>
  <outline>
    <contour>
      <point x="488.12937875130206" y="294" type="line"/>
      <point x="503.12937875130206" y="213" type="line"/>
      <point x="525.129378751302" y="38" type="line" smooth="yes"/>
      <point x="525.129378751302" y="29"/>
      <point x="523.129378751302" y="14"/>
      <point x="518.129378751302" y="9" type="curve" smooth="yes"/>
      <point x="513.129378751302" y="3"/>
      <point x="501.12937875130206" y="2"/>
      <point x="491.12937875130206" y="0" type="curve" smooth="yes"/>
      <point x="476.12937875130206" y="-4" type="line" smooth="yes"/>
      <point x="473.12937875130206" y="-4"/>
      <point x="470.12937875130206" y="3"/>
      <point x="468.12937875130206" y="8" type="curve"/>
      <point x="461.12937875130206" y="-4"/>
      <point x="440.12937875130206" y="-10"/>
      <point x="431.12937875130206" y="3" type="curve" smooth="yes"/>
      <point x="425.12937875130206" y="15"/>
      <point x="425.12937875130206" y="33"/>
      <point x="424.12937875130206" y="47" type="curve" smooth="yes"/>
      <point x="389.12937875130206" y="290" type="line"/>
      <point x="352.12937875130206" y="282"/>
      <point x="316.12937875130206" y="280"/>
      <point x="277.12937875130206" y="282" type="curve" smooth="yes"/>
      <point x="193.12937875130206" y="289" type="line"/>
      <point x="199.12937875130206" y="201" type="line" smooth="yes"/>
      <point x="204.12937875130206" y="114"/>
      <point x="221.12937875130206" y="31"/>
      <point x="241.12937875130206" y="-55" type="curve"/>
      <point x="224.12937875130206" y="-69"/>
      <point x="204.12937875130206" y="-73"/>
      <point x="183.12937875130206" y="-70" type="curve" smooth="yes"/>
      <point x="159.12937875130206" y="-66" type="line"/>
      <point x="125.12937875130206" y="-67" type="line"/>
      <point x="112.12937875130206" y="-37"/>
      <point x="108.12937875130206" y="-4"/>
      <point x="104.12937875130206" y="29" type="curve" smooth="yes"/>
      <point x="95.12937875130206" y="83" type="line"/>
      <point x="87.12937875130206" y="162" type="line"/>
      <point x="77.12937875130206" y="283" type="line"/>
      <point x="69.12937875130206" y="405" type="line"/>
      <point x="60.129378751302056" y="524" type="line"/>
      <point x="54.129378751302056" y="634" type="line"/>
      <point x="50.129378751302056" y="733" type="line" smooth="yes"/>
      <point x="49.129378751302056" y="737"/>
      <point x="54.129378751302056" y="749"/>
      <point x="58.129378751302056" y="748" type="curve" smooth="yes"/>
      <point x="69.12937875130206" y="741" type="line"/>
      <point x="88.12937875130206" y="760" type="line"/>
      <point x="96.12937875130206" y="755"/>
      <point x="100.12937875130206" y="752"/>
      <point x="103.12937875130206" y="754" type="curve" smooth="yes"/>
      <point x="120.12937875130206" y="760" type="line" smooth="yes"/>
      <point x="124.12937875130206" y="761"/>
      <point x="132.12937875130206" y="754"/>
      <point x="136.12937875130206" y="751" type="curve"/>
      <point x="160.12937875130206" y="746" type="line"/>
      <point x="162.12937875130206" y="701" type="line"/>
      <point x="167.12937875130206" y="601" type="line"/>
      <point x="185.12937875130206" y="391" type="line" smooth="yes"/>
      <point x="187.12937875130206" y="369"/>
      <point x="188.12937875130206" y="348"/>
      <point x="194.12937875130206" y="331" type="curve"/>
      <point x="213.12937875130206" y="334"/>
      <point x="221.12937875130206" y="336"/>
      <point x="235.12937875130206" y="336" type="curve" smooth="yes"/>
      <point x="306.12937875130206" y="337" type="line"/>
      <point x="380.12937875130206" y="341" type="line"/>
      <point x="341.12937875130206" y="596" type="line"/>
      <point x="331.12937875130206" y="730" type="line"/>
      <point x="355.12937875130206" y="736" type="line"/>
      <point x="357.12937875130206" y="734"/>
      <point x="361.12937875130206" y="728"/>
      <point x="363.12937875130206" y="729" type="curve" smooth="yes"/>
      <point x="374.12937875130206" y="740" type="line"/>
      <point x="389.12937875130206" y="722" type="line"/>
      <point x="405.12937875130206" y="731" type="line" smooth="yes"/>
      <point x="410.12937875130206" y="733"/>
      <point x="418.12937875130206" y="721"/>
      <point x="419.12937875130206" y="717" type="curve" smooth="yes"/>
      <point x="432.12937875130206" y="632" type="line"/>
      <point x="440.12937875130206" y="657" type="line"/>
      <point x="447.12937875130206" y="621" type="line" smooth="yes"/>
      <point x="453.12937875130206" y="591"/>
      <point x="454.12937875130206" y="564"/>
      <point x="458.12937875130206" y="533" type="curve" smooth="yes"/>
      <point x="467.12937875130206" y="472" type="line"/>
      <point x="482.12937875130206" y="361" type="line"/>
      <point x="488.12937875130206" y="294" type="line"/>
    </contour>
    <contour>
      <point x="68.12937875130206" y="600" type="line"/>
      <point x="72.12937875130206" y="607" type="line"/>
      <point x="70.12937875130206" y="634" type="line"/>
      <point x="67.12937875130206" y="632" type="line"/>
    </contour>
  </outline>
</glyph>
<glyph name="I" format="2">
  <advance width="652.2691734772699"/>
  <unicode hex="0049"/>
  <outline>
    <contour>
      <point x="357" y="1" type="line"/>
      <point x="358" y="-28" type="line"/>
      <point x="340" y="-27"/>
      <point x="317" y="-24"/>
      <point x="298" y="-25" type="curve" smooth="yes"/>
      <point x="282" y="-26"/>
      <point x="263" y="-37"/>
      <point x="249" y="-27" type="curve"/>
      <point x="238" y="-15" type="line"/>
      <point x="175" y="-21" type="line" smooth="yes"/>
      <point x="139" y="-25"/>
      <point x="106" y="-21"/>
      <point x="73" y="-10" type="curve"/>
      <point x="64" y="10" type="line"/>
      <point x="77" y="7"/>
      <point x="90" y="12"/>
      <point x="98" y="25" type="curve"/>
      <point x="114" y="24" type="line"/>
      <point x="139" y="37" type="line"/>
      <point x="169" y="27"/>
      <point x="199" y="22"/>
      <point x="231" y="30" type="curve"/>
      <point x="217" y="115"/>
      <point x="211" y="195"/>
      <point x="216" y="278" type="curve" smooth="yes"/>
      <point x="236" y="600" type="line" smooth="yes"/>
      <point x="238" y="634"/>
      <point x="237" y="665"/>
      <point x="237" y="699" type="curve"/>
      <point x="167" y="696"/>
      <point x="83" y="686"/>
      <point x="20" y="708" type="curve"/>
      <point x="42" y="728" type="line"/>
      <point x="58" y="728" type="line"/>
      <point x="72" y="738"/>
      <point x="84" y="736"/>
      <point x="102" y="732" type="curve" smooth="yes"/>
      <point x="133" y="725"/>
      <point x="169" y="736"/>
      <point x="201" y="742" type="curve" smooth="yes"/>
      <point x="250" y="752"/>
      <point x="297" y="759"/>
      <point x="345" y="761" type="curve" smooth="yes"/>
      <point x="489" y="766" type="line" smooth="yes"/>
      <point x="529" y="768"/>
      <point x="587" y="754"/>
      <point x="586" y="728" type="curve" smooth="yes"/>
      <point x="586" y="723"/>
      <point x="578" y="712"/>
      <point x="572" y="711" type="curve" smooth="yes"/>
      <point x="558" y="710"/>
      <point x="540" y="716"/>
      <point x="524" y="717" type="curve" smooth="yes"/>
      <point x="459" y="720"/>
      <point x="395" y="717"/>
      <point x="328" y="711" type="curve"/>
      <point x="333" y="656"/>
      <point x="330" y="606"/>
      <point x="328" y="554" type="curve" smooth="yes"/>
      <point x="323" y="413" type="line"/>
      <point x="317" y="339" type="line"/>
      <point x="330" y="330" type="line" smooth="yes"/>
      <point x="333" y="329"/>
      <point x="331" y="318"/>
      <point x="330" y="313" type="curve" smooth="yes"/>
      <point x="327" y="234" type="line" smooth="yes"/>
      <point x="326" y="202"/>
      <point x="326" y="172"/>
      <point x="331" y="142" type="curve"/>
      <point x="331" y="111" type="line"/>
      <point x="343" y="52" type="line"/>
      <point x="396" y="61" type="line"/>
      <point x="565" y="87" type="line" smooth="yes"/>
      <point x="575" y="88"/>
      <point x="597" y="81"/>
      <point x="603" y="73" type="curve" smooth="yes"/>
      <point x="611" y="64"/>
      <point x="617" y="59"/>
      <point x="629" y="61" type="curve"/>
      <point x="631" y="61"/>
      <point x="634" y="53"/>
      <point x="631" y="52" type="curve" smooth="yes"/>
      <point x="618" y="44" type="line" smooth="yes"/>
      <point x="590" y="25"/>
      <point x="561" y="24"/>
      <point x="528" y="21" type="curve" smooth="yes"/>
      <point x="357" y="1" type="line"/>
    </contour>
  </outline>
</glyph>
<glyph name="J" format="2">
  <advance width="607"/>
  <unicode hex="004A"/>
  <outline>
    <contour>
      <point x="85" y="-2" type="line"/>
      <point x="62" y="6"/>
      <point x="41" y="13"/>
      <point x="20" y="24" type="curve"/>
      <point x="22" y="30"/>
      <point x="28" y="36"/>
      <point x="33" y="39" type="curve"/>
      <point x="33" y="54" type="line" smooth="yes"/>
      <point x="33" y="56"/>
      <point x="48" y="72"/>
      <point x="46" y="73" type="curve"/>
      <point x="54" y="64" type="line"/>
      <point x="62" y="83" type="line"/>
      <point x="93" y="73" type="line"/>
      <point x="111" y="57" type="line"/>
      <point x="132" y="49"/>
      <point x="153" y="42"/>
      <point x="175" y="42" type="curve" smooth="yes"/>
      <point x="190" y="42"/>
      <point x="201" y="58"/>
      <point x="211" y="67" type="curve" smooth="yes"/>
      <point x="227" y="78"/>
      <point x="239" y="91"/>
      <point x="245" y="110" type="curve" smooth="yes"/>
      <point x="264" y="201"/>
      <point x="268" y="294"/>
      <point x="253" y="387" type="curve" smooth="yes"/>
      <point x="225" y="567" type="line"/>
      <point x="211" y="724" type="line"/>
      <point x="138" y="727" type="line"/>
      <point x="58" y="730" type="line" smooth="yes"/>
      <point x="47" y="731"/>
      <point x="29" y="734"/>
      <point x="35" y="745" type="curve"/>
      <point x="54" y="749"/>
      <point x="76" y="765"/>
      <point x="96" y="763" type="curve" smooth="yes"/>
      <point x="185" y="756" type="line"/>
      <point x="328" y="756" type="line"/>
      <point x="452" y="763" type="line"/>
      <point x="491" y="765" type="line"/>
      <point x="537" y="762" type="line" smooth="yes"/>
      <point x="556" y="760"/>
      <point x="574" y="754"/>
      <point x="587" y="735" type="curve"/>
      <point x="573" y="730"/>
      <point x="555" y="726"/>
      <point x="537" y="726" type="curve" smooth="yes"/>
      <point x="377" y="725" type="line"/>
      <point x="302" y="721" type="line"/>
      <point x="308" y="710"/>
      <point x="310" y="703"/>
      <point x="311" y="692" type="curve" smooth="yes"/>
      <point x="322" y="577" type="line"/>
      <point x="326" y="547" type="line"/>
      <point x="342" y="447" type="line"/>
      <point x="355" y="377" type="line" smooth="yes"/>
      <point x="358" y="363"/>
      <point x="361" y="351"/>
      <point x="359" y="339" type="curve"/>
      <point x="353" y="360" type="line"/>
      <point x="357" y="259" type="line"/>
      <point x="357" y="224" type="line" smooth="yes"/>
      <point x="357" y="210"/>
      <point x="355" y="195"/>
      <point x="352" y="180" type="curve" smooth="yes"/>
      <point x="343" y="144"/>
      <point x="342" y="103"/>
      <point x="325" y="70" type="curve" smooth="yes"/>
      <point x="311" y="43"/>
      <point x="280" y="28"/>
      <point x="258" y="11" type="curve" smooth="yes"/>
      <point x="250" y="6"/>
      <point x="238" y="-3"/>
      <point x="229" y="-6" type="curve" smooth="yes"/>
      <point x="194" y="-16"/>
      <point x="161" y="-20"/>
      <point x="124" y="-15" type="curve"/>
      <point x="85" y="-2" type="line"/>
    </contour>
  </outline>
</glyph>
<glyph name="K" format="2">
  <advance width="672"/>
  <unicode hex="004B"/>
  <outline>
    <contour>
      <point x="595" y="60" type="line"/>
      <point x="607" y="43"/>
      <point x="633" y="-29"/>
      <point x="640" y="-62" type="curve" smooth="yes"/>
      <point x="652" y="-110" type="line"/>
      <point x="646" y="-140" type="line"/>
      <point x="644" y="-139"/>
      <point x="635" y="-137"/>
      <point x="635" y="-140" type="curve" smooth="yes"/>
      <point x="631" y="-154" type="line"/>
      <point x="622" y="-146" type="line" smooth="yes"/>
      <point x="618" y="-143"/>
      <point x="608" y="-158"/>
      <point x="596" y="-157" type="curve" smooth="yes"/>
      <point x="592" y="-157"/>
      <point x="586" y="-149"/>
      <point x="585" y="-145" type="curve" smooth="yes"/>
      <point x="568" y="-73" type="line"/>
      <point x="523" y="43" type="line"/>
      <point x="471" y="167" type="line" smooth="yes"/>
      <point x="449" y="220"/>
      <point x="418" y="267"/>
      <point x="387" y="316" type="curve" smooth="yes"/>
      <point x="371" y="339"/>
      <point x="352" y="365"/>
      <point x="326" y="377" type="curve"/>
      <point x="295" y="366"/>
      <point x="272" y="341"/>
      <point x="252" y="318" type="curve"/>
      <point x="241" y="311" type="line" smooth="yes"/>
      <point x="238" y="310"/>
      <point x="241" y="301"/>
      <point x="240" y="298" type="curve"/>
      <point x="226" y="271" type="line" smooth="yes"/>
      <point x="205" y="231"/>
      <point x="175" y="245"/>
      <point x="155" y="240" type="curve" smooth="yes"/>
      <point x="152" y="239"/>
      <point x="153" y="230"/>
      <point x="154" y="226" type="curve" smooth="yes"/>
      <point x="158" y="134" type="line"/>
      <point x="162" y="98" type="line"/>
      <point x="176" y="24" type="line" smooth="yes"/>
      <point x="178" y="12"/>
      <point x="180" y="1"/>
      <point x="176" y="-13" type="curve"/>
      <point x="124" y="-15" type="line"/>
      <point x="102" y="-18" type="line" smooth="yes"/>
      <point x="94" y="-19"/>
      <point x="84" y="-19"/>
      <point x="79" y="-16" type="curve" smooth="yes"/>
      <point x="74" y="-13"/>
      <point x="66" y="-3"/>
      <point x="65" y="3" type="curve" smooth="yes"/>
      <point x="52" y="115" type="line"/>
      <point x="50" y="200" type="line"/>
      <point x="50" y="244" type="line"/>
      <point x="50" y="274" type="line"/>
      <point x="50" y="515" type="line"/>
      <point x="53" y="592" type="line"/>
      <point x="56" y="712" type="line"/>
      <point x="58" y="737" type="line" smooth="yes"/>
      <point x="59" y="741"/>
      <point x="62" y="751"/>
      <point x="65" y="751" type="curve" smooth="yes"/>
      <point x="83" y="752" type="line"/>
      <point x="88" y="753"/>
      <point x="102" y="763"/>
      <point x="104" y="758" type="curve" smooth="yes"/>
      <point x="112" y="749" type="line" smooth="yes"/>
      <point x="113" y="748"/>
      <point x="116" y="755"/>
      <point x="118" y="759" type="curve"/>
      <point x="122" y="758"/>
      <point x="134" y="755"/>
      <point x="138" y="752" type="curve" smooth="yes"/>
      <point x="143" y="749"/>
      <point x="143" y="735"/>
      <point x="144" y="726" type="curve"/>
      <point x="154" y="754" type="line"/>
      <point x="153" y="527" type="line" smooth="yes"/>
      <point x="153" y="492"/>
      <point x="153" y="460"/>
      <point x="158" y="422" type="curve"/>
      <point x="171" y="443" type="line"/>
      <point x="207" y="502" type="line"/>
      <point x="260" y="588" type="line" smooth="yes"/>
      <point x="289" y="637"/>
      <point x="317" y="687"/>
      <point x="355" y="730" type="curve"/>
      <point x="364" y="723"/>
      <point x="378" y="721"/>
      <point x="388" y="721" type="curve"/>
      <point x="393" y="721"/>
      <point x="398" y="712"/>
      <point x="401" y="705" type="curve"/>
      <point x="409" y="711"/>
      <point x="422" y="717"/>
      <point x="433" y="708" type="curve"/>
      <point x="411" y="677" type="line"/>
      <point x="385" y="631" type="line" smooth="yes"/>
      <point x="385" y="630"/>
      <point x="383" y="624"/>
      <point x="384" y="624" type="curve" smooth="yes"/>
      <point x="394" y="622" type="line"/>
      <point x="354" y="556" type="line" smooth="yes"/>
      <point x="351" y="551"/>
      <point x="352" y="540"/>
      <point x="346" y="536" type="curve" smooth="yes"/>
      <point x="337" y="530"/>
      <point x="336" y="524"/>
      <point x="333" y="516" type="curve" smooth="yes"/>
      <point x="331" y="507"/>
      <point x="316" y="494"/>
      <point x="312" y="486" type="curve" smooth="yes"/>
      <point x="280" y="430" type="line"/>
      <point x="311" y="431"/>
      <point x="340" y="429"/>
      <point x="365" y="416" type="curve" smooth="yes"/>
      <point x="385" y="405"/>
      <point x="409" y="400"/>
      <point x="423" y="382" type="curve" smooth="yes"/>
      <point x="447" y="348" type="line"/>
      <point x="473" y="311" type="line"/>
      <point x="492" y="284" type="line"/>
      <point x="525" y="227" type="line"/>
      <point x="549" y="177" type="line" smooth="yes"/>
      <point x="553" y="169"/>
      <point x="555" y="158"/>
      <point x="555" y="150" type="curve"/>
      <point x="562" y="142" type="line" smooth="yes"/>
      <point x="563" y="141"/>
      <point x="562" y="134"/>
      <point x="562" y="131" type="curve"/>
      <point x="571" y="124"/>
      <point x="577" y="111"/>
      <point x="577" y="99" type="curve" smooth="yes"/>
      <point x="577" y="81"/>
      <point x="586" y="72"/>
      <point x="595" y="60" type="curve"/>
    </contour>
  </outline>
</glyph>
<glyph name="L" format="2">
  <advance width="507.1312546373629"/>
  <unicode hex="004C"/>
  <outline>
    <contour>
      <point x="148.13125463736287" y="-14" type="line"/>
      <point x="150.13125463736287" y="-22"/>
      <point x="150.13125463736287" y="-30"/>
      <point x="147.13125463736287" y="-39" type="curve"/>
      <point x="102.13125463736287" y="-39" type="line"/>
      <point x="80.13125463736287" y="-39" type="line" smooth="yes"/>
      <point x="74.13125463736287" y="-39"/>
      <point x="65.13125463736287" y="-39"/>
      <point x="60.13125463736287" y="-35" type="curve" smooth="yes"/>
      <point x="54.13125463736287" y="-33"/>
      <point x="51.13125463736287" y="-24"/>
      <point x="51.13125463736287" y="-17" type="curve" smooth="yes"/>
      <point x="43.13125463736287" y="61"/>
      <point x="43.13125463736287" y="136"/>
      <point x="50.13125463736287" y="214" type="curve" smooth="yes"/>
      <point x="54.13125463736287" y="292" type="line" smooth="yes"/>
      <point x="56.13125463736287" y="300"/>
      <point x="58.13125463736287" y="307"/>
      <point x="62.13125463736287" y="311" type="curve"/>
      <point x="60.13125463736287" y="316" type="line" smooth="yes"/>
      <point x="58.13125463736287" y="319"/>
      <point x="63.13125463736287" y="325"/>
      <point x="63.13125463736287" y="326" type="curve"/>
      <point x="62.13125463736287" y="332"/>
      <point x="58.13125463736287" y="338"/>
      <point x="60.13125463736287" y="346" type="curve" smooth="yes"/>
      <point x="68.13125463736287" y="381" type="line"/>
      <point x="66.13125463736287" y="395"/>
      <point x="68.13125463736287" y="408"/>
      <point x="70.13125463736287" y="422" type="curve" smooth="yes"/>
      <point x="105.13125463736287" y="512" type="line"/>
      <point x="75.13125463736287" y="550" type="line"/>
      <point x="77.13125463736287" y="724" type="line"/>
      <point x="75.13125463736287" y="746" type="line"/>
      <point x="95.13125463736287" y="744"/>
      <point x="102.13125463736287" y="756"/>
      <point x="106.13125463736287" y="751" type="curve" smooth="yes"/>
      <point x="113.13125463736287" y="746" type="line"/>
      <point x="114.13125463736287" y="750"/>
      <point x="123.13125463736287" y="754"/>
      <point x="126.13125463736287" y="754" type="curve" smooth="yes"/>
      <point x="156.13125463736287" y="746" type="line"/>
      <point x="161.13125463736287" y="700" type="line"/>
      <point x="161.13125463736287" y="680" type="line"/>
      <point x="159.13125463736287" y="542" type="line"/>
      <point x="158.13125463736287" y="492" type="line"/>
      <point x="158.13125463736287" y="446" type="line"/>
      <point x="150.13125463736287" y="307" type="line"/>
      <point x="138.13125463736287" y="157" type="line"/>
      <point x="141.13125463736287" y="36" type="line"/>
      <point x="168.13125463736287" y="34"/>
      <point x="191.13125463736287" y="41"/>
      <point x="219.13125463736287" y="44" type="curve" smooth="yes"/>
      <point x="297.1312546373629" y="63"/>
      <point x="379.1312546373629" y="58"/>
      <point x="457.1312546373629" y="43" type="curve"/>
      <point x="466.1312546373629" y="28"/>
      <point x="487.1312546373629" y="33"/>
      <point x="487.1312546373629" y="13" type="curve" smooth="yes"/>
      <point x="487.1312546373629" y="6"/>
      <point x="480.1312546373629" y="3"/>
      <point x="471.1312546373629" y="2" type="curve" smooth="yes"/>
      <point x="449.1312546373629" y="-2" type="line"/>
      <point x="421.1312546373629" y="-6" type="line"/>
      <point x="357.1312546373629" y="8"/>
      <point x="296.1312546373629" y="5"/>
      <point x="231.13125463736287" y="-3" type="curve" smooth="yes"/>
      <point x="148.13125463736287" y="-15" type="line"/>
    </contour>
    <contour>
      <point x="83.13125463736287" y="714" type="line"/>
      <point x="90.13125463736287" y="717"/>
      <point x="92.13125463736287" y="723"/>
      <point x="89.13125463736287" y="729" type="curve"/>
    </contour>
    <contour>
      <point x="108.13125463736287" y="716" type="line"/>
      <point x="118.13125463736287" y="721"/>
      <point x="113.13125463736287" y="727"/>
      <point x="106.13125463736287" y="729" type="curve"/>
      <point x="108.13125463736287" y="716" type="line"/>
    </contour>
    <contour>
      <point x="89.13125463736287" y="691" type="line"/>
      <point x="90.13125463736287" y="693" type="line"/>
      <point x="90.13125463736287" y="710" type="line"/>
      <point x="87.13125463736287" y="708" type="line"/>
    </contour>
    <contour>
      <point x="114.13125463736287" y="663" type="line"/>
      <point x="118.13125463736287" y="673"/>
      <point x="120.13125463736287" y="686"/>
      <point x="111.13125463736287" y="699" type="curve"/>
      <point x="109.13125463736287" y="662" type="line"/>
    </contour>
    <contour>
      <point x="89.13125463736287" y="665" type="line"/>
      <point x="90.13125463736287" y="666" type="line"/>
      <point x="90.13125463736287" y="686" type="line"/>
      <point x="87.13125463736287" y="683" type="line"/>
    </contour>
    <contour>
      <point x="93.13125463736287" y="631" type="line"/>
      <point x="93.13125463736287" y="662" type="line"/>
      <point x="87.13125463736287" y="662" type="line"/>
      <point x="89.13125463736287" y="608" type="line"/>
      <point x="92.13125463736287" y="614"/>
      <point x="93.13125463736287" y="621"/>
      <point x="93.13125463736287" y="631" type="curve"/>
    </contour>
    <contour>
      <point x="117.13125463736287" y="662" type="line"/>
      <point x="113.13125463736287" y="660" type="line"/>
      <point x="111.13125463736287" y="641" type="line"/>
      <point x="118.13125463736287" y="646"/>
      <point x="118.13125463736287" y="654"/>
      <point x="117.13125463736287" y="662" type="curve"/>
    </contour>
    <contour>
      <point x="114.13125463736287" y="577" type="curve"/>
      <point x="120.13125463736287" y="596"/>
      <point x="118.13125463736287" y="615"/>
      <point x="114.13125463736287" y="636" type="curve"/>
      <point x="111.13125463736287" y="615"/>
      <point x="108.13125463736287" y="597"/>
    </contour>
    <contour>
      <point x="95.13125463736287" y="560" type="line"/>
      <point x="89.13125463736287" y="592" type="line"/>
      <point x="85.13125463736287" y="512" type="line"/>
      <point x="85.13125463736287" y="488" type="line"/>
      <point x="97.13125463736287" y="515"/>
      <point x="85.13125463736287" y="538"/>
      <point x="95.13125463736287" y="560" type="curve"/>
    </contour>
    <contour>
      <point x="111.13125463736287" y="550" type="line"/>
      <point x="117.13125463736287" y="551" type="line"/>
      <point x="117.13125463736287" y="576" type="line"/>
      <point x="111.13125463736287" y="576" type="line"/>
      <point x="111.13125463736287" y="550" type="line"/>
    </contour>
    <contour>
      <point x="111.13125463736287" y="498" type="curve"/>
      <point x="114.13125463736287" y="512"/>
      <point x="117.13125463736287" y="521"/>
      <point x="114.13125463736287" y="530" type="curve"/>
      <point x="108.13125463736287" y="519"/>
      <point x="109.13125463736287" y="507"/>
    </contour>
    <contour>
      <point x="85.13125463736287" y="449" type="line"/>
      <point x="87.13125463736287" y="451" type="line"/>
      <point x="87.13125463736287" y="469" type="line"/>
      <point x="83.13125463736287" y="468" type="line"/>
    </contour>
    <contour>
      <point x="81.13125463736287" y="422" type="line"/>
      <point x="90.13125463736287" y="428"/>
      <point x="89.13125463736287" y="437"/>
      <point x="85.13125463736287" y="443" type="curve"/>
    </contour>
    <contour>
      <point x="60.13125463736287" y="187" type="line"/>
      <point x="58.13125463736287" y="195"/>
      <point x="56.13125463736287" y="199"/>
      <point x="54.13125463736287" y="199" type="curve" smooth="yes"/>
      <point x="53.13125463736287" y="199"/>
      <point x="50.13125463736287" y="190"/>
      <point x="53.13125463736287" y="190" type="curve" smooth="yes"/>
      <point x="60.13125463736287" y="187" type="line"/>
    </contour>
    <contour>
      <point x="66.13125463736287" y="151" type="line"/>
      <point x="71.13125463736287" y="171" type="line"/>
      <point x="65.13125463736287" y="168"/>
      <point x="63.13125463736287" y="160"/>
      <point x="66.13125463736287" y="151" type="curve"/>
    </contour>
    <contour>
      <point x="54.13125463736287" y="136" type="curve"/>
      <point x="56.13125463736287" y="166" type="line"/>
      <point x="48.13125463736287" y="156"/>
      <point x="51.13125463736287" y="143"/>
    </contour>
  </outline>
</glyph>
<glyph name="M" format="2">
  <advance width="735.439679941969"/>
  <unicode hex="004D"/>
  <outline>
    <contour>
      <point x="479.3923048454133" y="496" type="line"/>
      <point x="443.3923048454133" y="396" type="line"/>
      <point x="418.3923048454133" y="322" type="line"/>
      <point x="431.3923048454133" y="298" type="line"/>
      <point x="351.3923048454133" y="290" type="line" smooth="yes"/>
      <point x="339.3923048454133" y="289"/>
      <point x="321.3923048454133" y="299"/>
      <point x="314.3923048454133" y="309" type="curve" smooth="yes"/>
      <point x="247.39230484541332" y="393" type="line"/>
      <point x="197.39230484541332" y="465" type="line"/>
      <point x="121.39230484541332" y="591" type="line"/>
      <point x="129.39230484541332" y="541" type="line" smooth="yes"/>
      <point x="130.39230484541332" y="538"/>
      <point x="121.39230484541332" y="531"/>
      <point x="122.39230484541332" y="529" type="curve" smooth="yes"/>
      <point x="128.39230484541332" y="520" type="line"/>
      <point x="121.39230484541332" y="513" type="line" smooth="yes"/>
      <point x="121.39230484541332" y="512"/>
      <point x="127.39230484541332" y="509"/>
      <point x="131.39230484541332" y="507" type="curve"/>
      <point x="133.39230484541332" y="408" type="line"/>
      <point x="136.39230484541332" y="335" type="line"/>
      <point x="149.39230484541332" y="329" type="line"/>
      <point x="151.39230484541332" y="263" type="line"/>
      <point x="155.39230484541332" y="213" type="line"/>
      <point x="161.39230484541332" y="167" type="line"/>
      <point x="171.39230484541332" y="90" type="line" smooth="yes"/>
      <point x="176.39230484541332" y="46"/>
      <point x="206.39230484541332" y="1"/>
      <point x="192.39230484541332" y="-2" type="curve" smooth="yes"/>
      <point x="110.39230484541332" y="-18" type="line" smooth="yes"/>
      <point x="97.39230484541332" y="-20"/>
      <point x="84.39230484541332" y="-12"/>
      <point x="80.39230484541332" y="0" type="curve" smooth="yes"/>
      <point x="69.39230484541332" y="32"/>
      <point x="64.39230484541332" y="64"/>
      <point x="60.39230484541332" y="98" type="curve" smooth="yes"/>
      <point x="52.39230484541332" y="167" type="line"/>
      <point x="47.39230484541332" y="273" type="line"/>
      <point x="45.39230484541332" y="363" type="line"/>
      <point x="43.39230484541332" y="460" type="line" smooth="yes"/>
      <point x="43.39230484541332" y="469"/>
      <point x="43.39230484541332" y="479"/>
      <point x="45.39230484541332" y="486" type="curve"/>
      <point x="41.39230484541332" y="529" type="line" smooth="yes"/>
      <point x="38.39230484541332" y="576"/>
      <point x="52.39230484541332" y="598"/>
      <point x="42.39230484541332" y="615" type="curve"/>
      <point x="43.39230484541332" y="680" type="line"/>
      <point x="40.39230484541332" y="737" type="line" smooth="yes"/>
      <point x="39.39230484541332" y="747"/>
      <point x="40.39230484541332" y="762"/>
      <point x="42.39230484541332" y="769" type="curve"/>
      <point x="81.39230484541332" y="770" type="line"/>
      <point x="87.39230484541332" y="760" type="line" smooth="yes"/>
      <point x="88.39230484541332" y="757"/>
      <point x="95.39230484541332" y="759"/>
      <point x="98.39230484541332" y="759" type="curve"/>
      <point x="114.39230484541332" y="750"/>
      <point x="122.39230484541332" y="733"/>
      <point x="133.39230484541332" y="718" type="curve" smooth="yes"/>
      <point x="150.39230484541332" y="694" type="line"/>
      <point x="221.39230484541332" y="576" type="line" smooth="yes"/>
      <point x="247.39230484541332" y="532"/>
      <point x="269.3923048454133" y="485"/>
      <point x="304.3923048454133" y="446" type="curve" smooth="yes"/>
      <point x="321.3923048454133" y="429" type="line"/>
      <point x="342.3923048454133" y="398" type="line"/>
      <point x="397.3923048454133" y="514" type="line"/>
      <point x="455.3923048454133" y="633" type="line"/>
      <point x="501.3923048454133" y="707" type="line"/>
      <point x="520.3923048454133" y="745" type="line" smooth="yes"/>
      <point x="534.3923048454133" y="771"/>
      <point x="543.3923048454133" y="736"/>
      <point x="562.3923048454133" y="752" type="curve"/>
      <point x="579.3923048454133" y="740" type="line"/>
      <point x="589.3923048454133" y="741"/>
      <point x="600.3923048454133" y="740"/>
      <point x="609.3923048454133" y="734" type="curve"/>
      <point x="624.3923048454133" y="485" type="line" smooth="yes"/>
      <point x="625.3923048454133" y="473"/>
      <point x="629.3923048454133" y="459"/>
      <point x="633.3923048454133" y="449" type="curve"/>
      <point x="642.3923048454133" y="271" type="line"/>
      <point x="647.3923048454133" y="233" type="line"/>
      <point x="657.3923048454133" y="167" type="line"/>
      <point x="674.3923048454133" y="104" type="line"/>
      <point x="693.3923048454133" y="34" type="line" smooth="yes"/>
      <point x="696.3923048454133" y="22"/>
      <point x="696.3923048454133" y="3"/>
      <point x="691.3923048454133" y="-5" type="curve"/>
      <point x="678.3923048454133" y="-7"/>
      <point x="669.3923048454133" y="-10"/>
      <point x="659.3923048454133" y="-15" type="curve"/>
      <point x="650.3923048454133" y="-10"/>
      <point x="640.3923048454133" y="-9"/>
      <point x="630.3923048454133" y="-18" type="curve"/>
      <point x="620.3923048454133" y="-21"/>
      <point x="611.3923048454133" y="-12"/>
      <point x="608.3923048454133" y="-1" type="curve" smooth="yes"/>
      <point x="580.3923048454133" y="102" type="line" smooth="yes"/>
      <point x="556.3923048454133" y="193"/>
      <point x="540.3923048454133" y="281"/>
      <point x="537.3923048454133" y="376" type="curve" smooth="yes"/>
      <point x="529.3923048454133" y="605" type="line"/>
      <point x="503.3923048454133" y="570"/>
      <point x="494.3923048454133" y="533"/>
      <point x="479.3923048454133" y="496" type="curve"/>
    </contour>
    <contour>
      <point x="90.39230484541332" y="607" type="line"/>
      <point x="91.39230484541332" y="592" type="line" smooth="yes"/>
      <point x="91.39230484541332" y="590"/>
      <point x="98.39230484541332" y="596"/>
      <point x="98.39230484541332" y="598" type="curve" smooth="yes"/>
      <point x="101.39230484541332" y="604" type="line" smooth="yes"/>
      <point x="102.39230484541332" y="606"/>
      <point x="90.39230484541332" y="609"/>
      <point x="90.39230484541332" y="607" type="curve"/>
    </contour>
    <contour>
      <point x="490.3923048454133" y="580" type="curve"/>
      <point x="497.3923048454133" y="586"/>
      <point x="501.3923048454133" y="594"/>
      <point x="500.3923048454133" y="604" type="curve"/>
      <point x="493.3923048454133" y="598"/>
      <point x="489.3923048454133" y="591"/>
    </contour>
    <contour>
      <point x="111.39230484541332" y="565" type="line"/>
      <point x="115.39230484541332" y="577"/>
      <point x="116.39230484541332" y="591"/>
      <point x="109.39230484541332" y="602" type="curve"/>
    </contour>
    <contour>
      <point x="496.3923048454133" y="553" type="line"/>
      <point x="482.3923048454133" y="576" type="line"/>
      <point x="469.3923048454133" y="546" type="line"/>
    </contour>
    <contour>
      <point x="98.39230484541332" y="535" type="curve"/>
      <point x="97.39230484541332" y="559" type="line"/>
      <point x="86.39230484541332" y="553"/>
      <point x="87.39230484541332" y="541"/>
    </contour>
    <contour>
      <point x="114.39230484541332" y="557" type="line"/>
      <point x="110.39230484541332" y="557" type="line"/>
      <point x="110.39230484541332" y="507" type="line"/>
      <point x="114.39230484541332" y="507" type="line"/>
    </contour>
    <contour>
      <point x="141.39230484541332" y="270" type="line"/>
      <point x="142.39230484541332" y="272"/>
      <point x="144.39230484541332" y="275"/>
      <point x="144.39230484541332" y="277" type="curve" smooth="yes"/>
      <point x="143.39230484541332" y="312" type="line"/>
      <point x="138.39230484541332" y="310" type="line"/>
    </contour>
    <contour>
      <point x="496.3923048454133" y="553" type="line"/>
      <point x="469.3923048454133" y="546" type="line"/>
      <point x="482.3923048454133" y="576" type="line"/>
    </contour>
    <contour>
      <point x="110.39230484541332" y="557" type="line"/>
      <point x="114.39230484541332" y="557" type="line"/>
      <point x="114.39230484541332" y="507" type="line"/>
      <point x="110.39230484541332" y="507" type="line"/>
    </contour>
    <contour>
      <point x="141.39230484541332" y="270" type="curve"/>
      <point x="138.39230484541332" y="310" type="line"/>
      <point x="143.39230484541332" y="312" type="line"/>
      <point x="144.39230484541332" y="277" type="line" smooth="yes"/>
      <point x="144.39230484541332" y="275"/>
      <point x="142.39230484541332" y="272"/>
    </contour>
    <contour>
      <point x="98.39230484541332" y="535" type="line"/>
      <point x="87.39230484541332" y="541"/>
      <point x="86.39230484541332" y="553"/>
      <point x="97.39230484541332" y="559" type="curve"/>
    </contour>
    <contour>
      <point x="490.3923048454133" y="580" type="curve"/>
      <point x="489.3923048454133" y="591"/>
      <point x="493.3923048454133" y="598"/>
      <point x="500.3923048454133" y="604" type="curve"/>
      <point x="501.3923048454133" y="594"/>
      <point x="497.3923048454133" y="586"/>
    </contour>
    <contour>
      <point x="111.39230484541332" y="565" type="curve"/>
      <point x="109.39230484541332" y="602" type="line"/>
      <point x="116.39230484541332" y="591"/>
      <point x="115.39230484541332" y="577"/>
    </contour>
    <contour>
      <point x="90.39230484541332" y="607" type="line"/>
      <point x="90.39230484541332" y="609"/>
      <point x="102.39230484541332" y="606"/>
      <point x="101.39230484541332" y="604" type="curve" smooth="yes"/>
      <point x="98.39230484541332" y="598" type="line" smooth="yes"/>
      <point x="98.39230484541332" y="596"/>
      <point x="91.39230484541332" y="590"/>
      <point x="91.39230484541332" y="592" type="curve" smooth="yes"/>
      <point x="90.39230484541332" y="607" type="line"/>
    </contour>
  </outline>
</glyph>
<glyph name="N" format="2">
  <advance width="763.6987030038962"/>
  <unicode hex="004E"/>
  <outline>
    <contour>
      <point x="723" y="46" type="line"/>
      <point x="727" y="30"/>
      <point x="713" y="21"/>
      <point x="702" y="16" type="curve" smooth="yes"/>
      <point x="673" y="2" type="line"/>
      <point x="652" y="-9" type="line" smooth="yes"/>
      <point x="648" y="-12"/>
      <point x="635" y="-5"/>
      <point x="631" y="-1" type="curve" smooth="yes"/>
      <point x="555" y="69" type="line"/>
      <point x="499" y="123" type="line"/>
      <point x="425" y="203" type="line"/>
      <point x="383" y="255" type="line"/>
      <point x="214" y="496" type="line"/>
      <point x="212" y="453"/>
      <point x="217" y="416"/>
      <point x="224" y="376" type="curve" smooth="yes"/>
      <point x="233" y="324" type="line" smooth="yes"/>
      <point x="234" y="319"/>
      <point x="245" y="307"/>
      <point x="242" y="298" type="curve" smooth="yes"/>
      <point x="239" y="294"/>
      <point x="244" y="285"/>
      <point x="245" y="280" type="curve" smooth="yes"/>
      <point x="268" y="125" type="line"/>
      <point x="301" y="-31" type="line"/>
      <point x="274" y="-50"/>
      <point x="249" y="-40"/>
      <point x="223" y="-55" type="curve"/>
      <point x="199" y="-62" type="line" smooth="yes"/>
      <point x="188" y="-65"/>
      <point x="167" y="-55"/>
      <point x="165" y="-39" type="curve" smooth="yes"/>
      <point x="132" y="164" type="line"/>
      <point x="124" y="217" type="line"/>
      <point x="105" y="381" type="line"/>
      <point x="69" y="628" type="line"/>
      <point x="50" y="731" type="line"/>
      <point x="40" y="775" type="line"/>
      <point x="69" y="779" type="line"/>
      <point x="72" y="780"/>
      <point x="81" y="789"/>
      <point x="85" y="787" type="curve" smooth="yes"/>
      <point x="104" y="779" type="line"/>
      <point x="109" y="790" type="line" smooth="yes"/>
      <point x="111" y="796"/>
      <point x="134" y="789"/>
      <point x="141" y="755" type="curve"/>
      <point x="197" y="743" type="line"/>
      <point x="259" y="654" type="line"/>
      <point x="340" y="522" type="line"/>
      <point x="360" y="487" type="line"/>
      <point x="384" y="452" type="line"/>
      <point x="467" y="333" type="line" smooth="yes"/>
      <point x="484" y="308"/>
      <point x="498" y="284"/>
      <point x="519" y="263" type="curve" smooth="yes"/>
      <point x="547" y="236"/>
      <point x="555" y="199"/>
      <point x="592" y="174" type="curve"/>
      <point x="573" y="293" type="line" smooth="yes"/>
      <point x="559" y="375"/>
      <point x="548" y="453"/>
      <point x="544" y="536" type="curve" smooth="yes"/>
      <point x="544" y="690" type="line"/>
      <point x="542" y="751" type="line"/>
      <point x="581" y="751" type="line"/>
      <point x="642" y="750" type="line"/>
      <point x="636" y="695"/>
      <point x="633" y="647"/>
      <point x="636" y="591" type="curve" smooth="yes"/>
      <point x="645" y="474" type="line"/>
      <point x="661" y="326" type="line"/>
      <point x="652" y="321" type="line" smooth="yes"/>
      <point x="650" y="320"/>
      <point x="651" y="310"/>
      <point x="653" y="311" type="curve" smooth="yes"/>
      <point x="655" y="312"/>
      <point x="664" y="316"/>
      <point x="665" y="314" type="curve" smooth="yes"/>
      <point x="672" y="297"/>
      <point x="649" y="288"/>
      <point x="661" y="251" type="curve"/>
      <point x="671" y="250" type="line" smooth="yes"/>
      <point x="673" y="250"/>
      <point x="676" y="241"/>
      <point x="677" y="239" type="curve" smooth="yes"/>
      <point x="689" y="172"/>
      <point x="701" y="111"/>
      <point x="723" y="46" type="curve"/>
    </contour>
    <contour>
      <point x="617" y="566" type="line"/>
      <point x="620" y="568" type="line"/>
      <point x="619" y="597" type="line"/>
      <point x="616" y="595" type="line"/>
    </contour>
    <contour>
      <point x="635" y="466" type="line"/>
      <point x="621" y="544" type="line"/>
      <point x="619" y="510"/>
      <point x="620" y="479"/>
      <point x="629" y="445" type="curve"/>
      <point x="633" y="449"/>
      <point x="636" y="461"/>
      <point x="635" y="466" type="curve"/>
    </contour>
    <contour>
      <point x="631" y="438" type="line"/>
      <point x="631" y="425" type="line" smooth="yes"/>
      <point x="631" y="423"/>
      <point x="638" y="425"/>
      <point x="638" y="428" type="curve" smooth="yes"/>
      <point x="638" y="436" type="line" smooth="yes"/>
      <point x="638" y="438"/>
      <point x="630" y="439"/>
      <point x="631" y="438" type="curve"/>
    </contour>
    <contour>
      <point x="689" y="158" type="line"/>
      <point x="688" y="159"/>
      <point x="676" y="158"/>
      <point x="677" y="155" type="curve" smooth="yes"/>
      <point x="683" y="144" type="line" smooth="yes"/>
      <point x="684" y="142"/>
      <point x="684" y="144"/>
      <point x="689" y="158" type="curve"/>
    </contour>
  </outline>
</glyph>
<glyph name="O" format="2">
  <advance width="543.7222624619669"/>
  <unicode hex="004F"/>
  <outline>
    <contour>
      <point x="61" y="521" type="line"/>
      <point x="86" y="582" type="line"/>
      <point x="104" y="617" type="line" smooth="yes"/>
      <point x="121" y="649"/>
      <point x="166" y="699"/>
      <point x="193" y="708" type="curve" smooth="yes"/>
      <point x="229" y="721"/>
      <point x="264" y="724"/>
      <point x="302" y="722" type="curve"/>
      <point x="308" y="700" type="line"/>
      <point x="290" y="691" type="line"/>
      <point x="262" y="705"/>
      <point x="232" y="701"/>
      <point x="208" y="677" type="curve" smooth="yes"/>
      <point x="187" y="655" type="line"/>
      <point x="165" y="589" type="line"/>
      <point x="143" y="587" type="line"/>
      <point x="157" y="572" type="line"/>
      <point x="143" y="543" type="line"/>
      <point x="138" y="549" type="line" smooth="yes"/>
      <point x="136" y="551"/>
      <point x="132" y="545"/>
      <point x="132" y="543" type="curve" smooth="yes"/>
      <point x="132" y="540"/>
      <point x="136" y="537"/>
      <point x="139" y="533" type="curve"/>
      <point x="122" y="476"/>
      <point x="107" y="419"/>
      <point x="109" y="357" type="curve"/>
      <point x="122" y="428" type="line"/>
      <point x="118" y="372" type="line"/>
      <point x="121" y="369" type="line"/>
      <point x="125" y="394" type="line"/>
      <point x="130" y="377"/>
      <point x="129" y="356"/>
      <point x="116" y="342" type="curve"/>
      <point x="115" y="277" type="line"/>
      <point x="122" y="304" type="line"/>
      <point x="124" y="248"/>
      <point x="131" y="195"/>
      <point x="148" y="139" type="curve" smooth="yes"/>
      <point x="158" y="109"/>
      <point x="180" y="82"/>
      <point x="205" y="62" type="curve" smooth="yes"/>
      <point x="253" y="26"/>
      <point x="327" y="45"/>
      <point x="367" y="91" type="curve" smooth="yes"/>
      <point x="386" y="112"/>
      <point x="398" y="135"/>
      <point x="409" y="160" type="curve" smooth="yes"/>
      <point x="426" y="202"/>
      <point x="440" y="241"/>
      <point x="445" y="285" type="curve" smooth="yes"/>
      <point x="457" y="367" type="line"/>
      <point x="459" y="492" type="line" smooth="yes"/>
      <point x="461" y="534"/>
      <point x="456" y="577"/>
      <point x="445" y="616" type="curve" smooth="yes"/>
      <point x="426" y="694"/>
      <point x="331" y="737"/>
      <point x="258" y="766" type="curve"/>
      <point x="261" y="794"/>
      <point x="284" y="762"/>
      <point x="300" y="780" type="curve"/>
      <point x="331" y="768" type="line"/>
      <point x="372" y="750" type="line" smooth="yes"/>
      <point x="410" y="734"/>
      <point x="447" y="704"/>
      <point x="475" y="672" type="curve" smooth="yes"/>
      <point x="484" y="661"/>
      <point x="503" y="648"/>
      <point x="501" y="633" type="curve" smooth="yes"/>
      <point x="499" y="622"/>
      <point x="499" y="614"/>
      <point x="500" y="603" type="curve" smooth="yes"/>
      <point x="501" y="595" type="line" smooth="yes"/>
      <point x="501" y="593"/>
      <point x="505" y="592"/>
      <point x="505" y="598" type="curve" smooth="yes"/>
      <point x="498" y="588" type="line"/>
      <point x="527" y="518"/>
      <point x="526" y="434"/>
      <point x="521" y="348" type="curve" smooth="yes"/>
      <point x="514" y="291" type="line"/>
      <point x="498" y="212" type="line"/>
      <point x="493" y="167" type="line"/>
      <point x="492" y="169" type="line" smooth="yes"/>
      <point x="492" y="164"/>
      <point x="495" y="165"/>
      <point x="498" y="168" type="curve" smooth="yes"/>
      <point x="503" y="170" type="line"/>
      <point x="496" y="125"/>
      <point x="462" y="58"/>
      <point x="420" y="30" type="curve" smooth="yes"/>
      <point x="357" y="-10"/>
      <point x="278" y="-23"/>
      <point x="204" y="-5" type="curve" smooth="yes"/>
      <point x="160" y="6" type="line" smooth="yes"/>
      <point x="141" y="11"/>
      <point x="117" y="25"/>
      <point x="102" y="39" type="curve" smooth="yes"/>
      <point x="70" y="68"/>
      <point x="53" y="104"/>
      <point x="40" y="144" type="curve" smooth="yes"/>
      <point x="33" y="162"/>
      <point x="26" y="181"/>
      <point x="28" y="196" type="curve"/>
      <point x="31" y="192" type="line" smooth="yes"/>
      <point x="37" y="192"/>
      <point x="40" y="192"/>
      <point x="40" y="185" type="curve" smooth="yes"/>
      <point x="32" y="205" type="line"/>
      <point x="32" y="220" type="line"/>
      <point x="35" y="276" type="line"/>
      <point x="25" y="291" type="line" smooth="yes"/>
      <point x="25" y="291"/>
      <point x="31" y="298"/>
      <point x="33" y="302" type="curve"/>
      <point x="20" y="336" type="line"/>
      <point x="27" y="350"/>
      <point x="28" y="361"/>
      <point x="31" y="378" type="curve" smooth="yes"/>
      <point x="38" y="419" type="line" smooth="yes"/>
      <point x="38" y="421"/>
      <point x="45" y="420"/>
      <point x="45" y="422" type="curve" smooth="yes"/>
      <point x="44" y="431" type="line" smooth="yes"/>
      <point x="44" y="433"/>
      <point x="37" y="439"/>
      <point x="37" y="439" type="curve" smooth="yes"/>
      <point x="47" y="455" type="line"/>
      <point x="42" y="473" type="line" smooth="yes"/>
      <point x="45" y="467"/>
      <point x="51" y="470"/>
      <point x="55" y="472" type="curve"/>
      <point x="50" y="489"/>
      <point x="53" y="504"/>
      <point x="61" y="521" type="curve"/>
    </contour>
    <contour>
      <point x="493" y="529" type="line"/>
      <point x="493" y="555"/>
      <point x="491" y="582"/>
      <point x="483" y="608" type="curve"/>
      <point x="490" y="527" type="line"/>
      <point x="493" y="529" type="line"/>
    </contour>
    <contour>
      <point x="515" y="496" type="line"/>
      <point x="518" y="525"/>
      <point x="515" y="552"/>
      <point x="507" y="578" type="curve"/>
      <point x="509" y="515" type="line"/>
    </contour>
    <contour>
      <point x="119" y="530" type="line"/>
      <point x="127" y="552" type="line" smooth="yes"/>
      <point x="127" y="546"/>
      <point x="124" y="551"/>
      <point x="119" y="540" type="curve"/>
      <point x="118" y="544" type="line" smooth="yes"/>
      <point x="118" y="536"/>
      <point x="121" y="530"/>
      <point x="121" y="532" type="curve"/>
    </contour>
    <contour>
      <point x="496" y="527" type="line"/>
      <point x="492" y="525" type="line"/>
      <point x="495" y="496" type="line"/>
    </contour>
    <contour>
      <point x="52" y="422" type="curve"/>
      <point x="58" y="435"/>
      <point x="59" y="446"/>
      <point x="60" y="458" type="curve"/>
      <point x="54" y="448"/>
      <point x="50" y="436"/>
    </contour>
    <contour>
      <point x="79" y="416" type="line"/>
      <point x="85" y="448" type="line"/>
      <point x="73" y="440"/>
      <point x="75" y="427"/>
      <point x="79" y="416" type="curve"/>
    </contour>
    <contour>
      <point x="79" y="388" type="line"/>
      <point x="68" y="388" type="line"/>
      <point x="70" y="357" type="line"/>
      <point x="79" y="388" type="line"/>
    </contour>
    <contour>
      <point x="45" y="328" type="line"/>
      <point x="45" y="345" type="line"/>
      <point x="38" y="337" type="line" smooth="yes"/>
      <point x="37" y="336"/>
      <point x="42" y="332"/>
      <point x="45" y="328" type="curve"/>
    </contour>
    <contour>
      <point x="66" y="278" type="line"/>
      <point x="69" y="280" type="line"/>
      <point x="68" y="302" type="line"/>
      <point x="65" y="300" type="line"/>
      <point x="66" y="278" type="line"/>
    </contour>
    <contour>
      <point x="46" y="267" type="line"/>
      <point x="45" y="269"/>
      <point x="41" y="273"/>
      <point x="41" y="274" type="curve" smooth="yes"/>
      <point x="41" y="261" type="line"/>
      <point x="45" y="258" type="line" smooth="yes"/>
      <point x="45" y="258"/>
      <point x="46" y="265"/>
      <point x="46" y="267" type="curve"/>
    </contour>
    <contour>
      <point x="54" y="216" type="line"/>
      <point x="54" y="229" type="line" smooth="yes"/>
      <point x="54" y="230"/>
      <point x="51" y="232"/>
      <point x="45" y="233" type="curve"/>
      <point x="51" y="216" type="line"/>
    </contour>
    <contour>
      <point x="76" y="126" type="curve"/>
      <point x="74" y="140"/>
      <point x="71" y="148"/>
      <point x="67" y="157" type="curve"/>
      <point x="64" y="144"/>
      <point x="67" y="133"/>
    </contour>
  </outline>
</glyph>
<glyph name="P" format="2">
  <advance width="520.1938147957849"/>
  <unicode hex="0050"/>
  <outline>
    <contour>
      <point x="142.19381479578487" y="-16" type="line"/>
      <point x="120.19381479578486" y="-14" type="line" smooth="yes"/>
      <point x="111.19381479578486" y="-14"/>
      <point x="97.19381479578486" y="-14"/>
      <point x="89.19381479578486" y="-10" type="curve" smooth="yes"/>
      <point x="83.19381479578486" y="-6"/>
      <point x="76.19381479578486" y="8"/>
      <point x="76.19381479578486" y="17" type="curve" smooth="yes"/>
      <point x="72.19381479578486" y="277" type="line"/>
      <point x="72.19381479578486" y="375" type="line"/>
      <point x="74.19381479578486" y="446" type="line"/>
      <point x="72.19381479578486" y="592" type="line" smooth="yes"/>
      <point x="72.19381479578486" y="603"/>
      <point x="69.19381479578486" y="613"/>
      <point x="66.19381479578486" y="623" type="curve"/>
      <point x="70.19381479578486" y="654" type="line"/>
      <point x="50.19381479578486" y="630" type="line"/>
      <point x="49.19381479578486" y="637"/>
      <point x="52.19381479578486" y="646"/>
      <point x="56.19381479578486" y="654" type="curve" smooth="yes"/>
      <point x="66.19381479578486" y="677" type="line"/>
      <point x="65.19381479578486" y="730" type="line"/>
      <point x="82.19381479578486" y="727"/>
      <point x="92.19381479578486" y="732"/>
      <point x="103.19381479578486" y="743" type="curve"/>
      <point x="111.19381479578486" y="731" type="line" smooth="yes"/>
      <point x="113.19381479578486" y="728"/>
      <point x="119.19381479578486" y="739"/>
      <point x="122.19381479578486" y="742" type="curve"/>
      <point x="125.19381479578486" y="729" type="line"/>
      <point x="132.19381479578487" y="740" type="line" smooth="yes"/>
      <point x="133.19381479578487" y="742"/>
      <point x="137.19381479578487" y="738"/>
      <point x="140.19381479578487" y="734" type="curve"/>
      <point x="260.1938147957849" y="802"/>
      <point x="498.1938147957849" y="727"/>
      <point x="499.1938147957849" y="593" type="curve" smooth="yes"/>
      <point x="500.1938147957849" y="525" type="line" smooth="yes"/>
      <point x="500.1938147957849" y="492"/>
      <point x="492.1938147957849" y="461"/>
      <point x="478.1938147957849" y="432" type="curve" smooth="yes"/>
      <point x="456.1938147957849" y="380" type="line"/>
      <point x="460.1938147957849" y="367" type="line" smooth="yes"/>
      <point x="460.1938147957849" y="364"/>
      <point x="451.1938147957849" y="365"/>
      <point x="449.1938147957849" y="365" type="curve"/>
      <point x="449.1938147957849" y="365"/>
      <point x="446.1938147957849" y="359"/>
      <point x="446.1938147957849" y="359" type="curve"/>
      <point x="446.1938147957849" y="359"/>
      <point x="450.1938147957849" y="358"/>
      <point x="454.1938147957849" y="358" type="curve"/>
      <point x="448.1938147957849" y="347"/>
      <point x="438.1938147957849" y="329"/>
      <point x="426.1938147957849" y="325" type="curve" smooth="yes"/>
      <point x="409.1938147957849" y="319" type="line" smooth="yes"/>
      <point x="404.1938147957849" y="318"/>
      <point x="404.1938147957849" y="306"/>
      <point x="404.1938147957849" y="299" type="curve"/>
      <point x="351.1938147957849" y="246"/>
      <point x="317.1938147957849" y="261"/>
      <point x="258.1938147957849" y="262" type="curve" smooth="yes"/>
      <point x="242.19381479578487" y="263"/>
      <point x="227.19381479578487" y="264"/>
      <point x="212.19381479578487" y="271" type="curve" smooth="yes"/>
      <point x="176.19381479578487" y="289" type="line"/>
      <point x="183.19381479578487" y="109" type="line"/>
      <point x="194.19381479578487" y="-6" type="line"/>
      <point x="180.19381479578487" y="-17"/>
      <point x="160.19381479578487" y="-17"/>
      <point x="142.19381479578487" y="-16" type="curve"/>
    </contour>
    <contour>
      <point x="192.19381479578487" y="332" type="line"/>
      <point x="201.19381479578487" y="358" type="line"/>
      <point x="241.19381479578487" y="323" type="line" smooth="yes"/>
      <point x="253.19381479578487" y="312"/>
      <point x="269.1938147957849" y="310"/>
      <point x="285.1938147957849" y="323" type="curve" smooth="yes"/>
      <point x="358.1938147957849" y="383"/>
      <point x="409.1938147957849" y="470"/>
      <point x="419.1938147957849" y="565" type="curve" smooth="yes"/>
      <point x="426.1938147957849" y="625"/>
      <point x="400.1938147957849" y="677"/>
      <point x="347.1938147957849" y="703" type="curve" smooth="yes"/>
      <point x="276.1938147957849" y="738"/>
      <point x="180.19381479578487" y="716"/>
      <point x="164.19381479578487" y="668" type="curve" smooth="yes"/>
      <point x="159.19381479578487" y="648"/>
      <point x="166.19381479578487" y="621"/>
      <point x="167.19381479578487" y="601" type="curve" smooth="yes"/>
      <point x="170.19381479578487" y="568" type="line"/>
      <point x="175.19381479578487" y="405" type="line"/>
      <point x="177.19381479578487" y="332" type="line" smooth="yes"/>
      <point x="177.19381479578487" y="329"/>
      <point x="184.19381479578487" y="320"/>
      <point x="184.19381479578487" y="322" type="curve" smooth="yes"/>
      <point x="186.19381479578487" y="323"/>
      <point x="191.19381479578487" y="330"/>
      <point x="192.19381479578487" y="332" type="curve"/>
    </contour>
  </outline>
</glyph>
<glyph name="Q" format="2">
  <advance width="800.985850522914"/>
  <unicode hex="0051"/>
  <outline>
    <contour>
      <point x="104.9316236197689" y="581" type="line"/>
      <point x="148.9316236197689" y="640" type="line"/>
      <point x="150.9316236197689" y="648"/>
      <point x="154.9316236197689" y="656"/>
      <point x="162.9316236197689" y="663" type="curve" smooth="yes"/>
      <point x="227.9316236197689" y="718"/>
      <point x="305.9316236197689" y="703"/>
      <point x="304.9316236197689" y="688" type="curve" smooth="yes"/>
      <point x="301.9316236197689" y="668"/>
      <point x="237.9316236197689" y="669"/>
      <point x="217.9316236197689" y="636" type="curve" smooth="yes"/>
      <point x="207.9316236197689" y="620"/>
      <point x="200.9316236197689" y="595"/>
      <point x="177.9316236197689" y="598" type="curve"/>
      <point x="181.9316236197689" y="583"/>
      <point x="177.9316236197689" y="570"/>
      <point x="171.9316236197689" y="559" type="curve" smooth="yes"/>
      <point x="141.9316236197689" y="504"/>
      <point x="129.9316236197689" y="446"/>
      <point x="125.9316236197689" y="385" type="curve" smooth="yes"/>
      <point x="119.9316236197689" y="320"/>
      <point x="109.9316236197689" y="258"/>
      <point x="127.9316236197689" y="192" type="curve"/>
      <point x="133.9316236197689" y="222" type="line"/>
      <point x="139.9316236197689" y="192"/>
      <point x="145.9316236197689" y="165"/>
      <point x="158.9316236197689" y="136" type="curve" smooth="yes"/>
      <point x="185.9316236197689" y="77"/>
      <point x="250.9316236197689" y="37"/>
      <point x="315.9316236197689" y="53" type="curve" smooth="yes"/>
      <point x="377.9316236197689" y="68"/>
      <point x="427.9316236197689" y="115"/>
      <point x="469.9316236197689" y="161" type="curve"/>
      <point x="429.9316236197689" y="216"/>
      <point x="399.9316236197689" y="267"/>
      <point x="369.9316236197689" y="323" type="curve"/>
      <point x="369.9316236197689" y="326"/>
      <point x="366.9316236197689" y="335"/>
      <point x="368.9316236197689" y="336" type="curve" smooth="yes"/>
      <point x="383.9316236197689" y="340" type="line" smooth="yes"/>
      <point x="389.9316236197689" y="342"/>
      <point x="401.9316236197689" y="351"/>
      <point x="406.9316236197689" y="357" type="curve"/>
      <point x="435.9316236197689" y="342"/>
      <point x="440.9316236197689" y="378"/>
      <point x="465.9316236197689" y="355" type="curve"/>
      <point x="486.9316236197689" y="348" type="line"/>
      <point x="501.9316236197689" y="320"/>
      <point x="513.9316236197689" y="294"/>
      <point x="536.9316236197689" y="268" type="curve"/>
      <point x="593.9316236197689" y="387"/>
      <point x="565.9316236197689" y="507"/>
      <point x="507.9316236197689" y="619" type="curve" smooth="yes"/>
      <point x="487.9316236197689" y="656"/>
      <point x="461.9316236197689" y="687"/>
      <point x="427.9316236197689" y="712" type="curve" smooth="yes"/>
      <point x="402.9316236197689" y="731"/>
      <point x="367.9316236197689" y="731"/>
      <point x="336.9316236197689" y="726" type="curve"/>
      <point x="321.9316236197689" y="733"/>
      <point x="311.9316236197689" y="730"/>
      <point x="290.9316236197689" y="729" type="curve"/>
      <point x="309.9316236197689" y="740"/>
      <point x="330.9316236197689" y="750"/>
      <point x="351.9316236197689" y="759" type="curve"/>
      <point x="395.9316236197689" y="765"/>
      <point x="467.9316236197689" y="754"/>
      <point x="496.9316236197689" y="735" type="curve" smooth="yes"/>
      <point x="558.9316236197689" y="692" type="line"/>
      <point x="609.9316236197689" y="633"/>
      <point x="635.9316236197689" y="559"/>
      <point x="655.9316236197689" y="486" type="curve" smooth="yes"/>
      <point x="685.9316236197689" y="371"/>
      <point x="666.9316236197689" y="267"/>
      <point x="599.9316236197689" y="167" type="curve"/>
      <point x="610.9316236197689" y="147"/>
      <point x="625.9316236197689" y="130"/>
      <point x="639.9316236197689" y="113" type="curve" smooth="yes"/>
      <point x="707.9316236197689" y="37" type="line"/>
      <point x="755.9316236197689" y="-13" type="line" smooth="yes"/>
      <point x="768.9316236197689" y="-30"/>
      <point x="781.9316236197689" y="-40"/>
      <point x="780.9316236197689" y="-65" type="curve"/>
      <point x="726.9316236197689" y="-72" type="line"/>
      <point x="697.9316236197689" y="-76" type="line" smooth="yes"/>
      <point x="670.9316236197689" y="-80"/>
      <point x="661.9316236197689" y="-71"/>
      <point x="645.9316236197689" y="-54" type="curve" smooth="yes"/>
      <point x="605.9316236197689" y="-10"/>
      <point x="566.9316236197689" y="32"/>
      <point x="526.9316236197689" y="79" type="curve"/>
      <point x="479.9316236197689" y="44" type="line" smooth="yes"/>
      <point x="451.9316236197689" y="24"/>
      <point x="420.9316236197689" y="11"/>
      <point x="387.9316236197689" y="6" type="curve" smooth="yes"/>
      <point x="316.9316236197689" y="-5" type="line"/>
      <point x="213.9316236197689" y="-14"/>
      <point x="113.9316236197689" y="22"/>
      <point x="51.9316236197689" y="106" type="curve"/>
      <point x="37.9316236197689" y="144" type="line" smooth="yes"/>
      <point x="15.9316236197689" y="194"/>
      <point x="19.9316236197689" y="247"/>
      <point x="20.9316236197689" y="302" type="curve" smooth="yes"/>
      <point x="23.9316236197689" y="363"/>
      <point x="37.9316236197689" y="420"/>
      <point x="50.9316236197689" y="481" type="curve" smooth="yes"/>
      <point x="54.9316236197689" y="500"/>
      <point x="60.9316236197689" y="516"/>
      <point x="74.9316236197689" y="523" type="curve"/>
      <point x="82.9316236197689" y="542" type="line" smooth="yes"/>
      <point x="85.9316236197689" y="554"/>
      <point x="94.9316236197689" y="566"/>
      <point x="103.9316236197689" y="575" type="curve"/>
      <point x="97.9316236197689" y="580" type="line" smooth="yes"/>
      <point x="97.9316236197689" y="580"/>
      <point x="95.9316236197689" y="580"/>
      <point x="104.9316236197689" y="581" type="curve"/>
    </contour>
  </outline>
</glyph>
<glyph name="R" format="2">
  <advance width="781.2992867986411"/>
  <unicode hex="0052"/>
  <outline>
    <contour>
      <point x="694.7844496316301" y="-55" type="line"/>
      <point x="669.7844496316301" y="-11"/>
      <point x="684.7844496316301" y="39"/>
      <point x="653.7844496316301" y="108" type="curve" smooth="yes"/>
      <point x="635.7844496316301" y="148"/>
      <point x="615.7844496316301" y="187"/>
      <point x="586.7844496316301" y="220" type="curve" smooth="yes"/>
      <point x="524.7844496316301" y="291"/>
      <point x="427.7844496316301" y="327"/>
      <point x="333.7844496316301" y="336" type="curve"/>
      <point x="315.7844496316301" y="327"/>
      <point x="299.7844496316301" y="315"/>
      <point x="283.7844496316301" y="302" type="curve" smooth="yes"/>
      <point x="271.7844496316301" y="293"/>
      <point x="252.78444963163008" y="293"/>
      <point x="237.78444963163008" y="291" type="curve" smooth="yes"/>
      <point x="212.78444963163008" y="288" type="line" smooth="yes"/>
      <point x="210.78444963163008" y="288"/>
      <point x="205.78444963163008" y="282"/>
      <point x="205.78444963163008" y="284" type="curve" smooth="yes"/>
      <point x="201.78444963163008" y="293" type="line"/>
      <point x="185.78444963163008" y="287" type="line"/>
      <point x="202.78444963163008" y="12" type="line"/>
      <point x="200.78444963163008" y="-8" type="line"/>
      <point x="192.78444963163008" y="-10"/>
      <point x="179.78444963163008" y="-15"/>
      <point x="172.78444963163008" y="-15" type="curve" smooth="yes"/>
      <point x="147.78444963163008" y="-15" type="line" smooth="yes"/>
      <point x="145.78444963163008" y="-15"/>
      <point x="141.78444963163008" y="-21"/>
      <point x="139.78444963163008" y="-20" type="curve" smooth="yes"/>
      <point x="130.78444963163008" y="-16" type="line"/>
      <point x="123.78444963163008" y="-20"/>
      <point x="102.78444963163008" y="-18"/>
      <point x="99.78444963163008" y="-10" type="curve"/>
      <point x="95.78444963163008" y="112" type="line"/>
      <point x="92.78444963163008" y="267" type="line"/>
      <point x="93.78444963163008" y="299" type="line"/>
      <point x="90.78444963163008" y="336" type="line"/>
      <point x="88.78444963163008" y="383" type="line"/>
      <point x="89.78444963163008" y="480" type="line"/>
      <point x="87.78444963163008" y="563" type="line" smooth="yes"/>
      <point x="86.78444963163008" y="574"/>
      <point x="84.78444963163008" y="582"/>
      <point x="78.78444963163008" y="594" type="curve"/>
      <point x="67.78444963163008" y="576" type="line"/>
      <point x="68.78444963163008" y="601" type="line"/>
      <point x="65.78444963163008" y="602" type="line"/>
      <point x="62.784449631630075" y="583" type="line"/>
      <point x="31.784449631630075" y="593"/>
      <point x="63.784449631630075" y="641"/>
      <point x="88.78444963163008" y="675" type="curve"/>
      <point x="102.78444963163008" y="733" type="line"/>
      <point x="119.78444963163008" y="725" type="line" smooth="yes"/>
      <point x="122.78444963163008" y="723"/>
      <point x="129.78444963163008" y="730"/>
      <point x="132.78444963163008" y="733" type="curve"/>
      <point x="143.78444963163008" y="720" type="line"/>
      <point x="185.78444963163008" y="745"/>
      <point x="232.78444963163008" y="759"/>
      <point x="282.7844496316301" y="756" type="curve"/>
      <point x="303.7844496316301" y="752" type="line"/>
      <point x="331.7844496316301" y="748" type="line" smooth="yes"/>
      <point x="346.7844496316301" y="746"/>
      <point x="353.7844496316301" y="740"/>
      <point x="364.7844496316301" y="731" type="curve" smooth="yes"/>
      <point x="374.7844496316301" y="722"/>
      <point x="381.7844496316301" y="713"/>
      <point x="386.7844496316301" y="700" type="curve"/>
      <point x="395.7844496316301" y="701" type="line" smooth="yes"/>
      <point x="399.7844496316301" y="702"/>
      <point x="391.7844496316301" y="681"/>
      <point x="394.7844496316301" y="681" type="curve" smooth="yes"/>
      <point x="404.7844496316301" y="682" type="line"/>
      <point x="397.7844496316301" y="604" type="line"/>
      <point x="403.7844496316301" y="623"/>
      <point x="409.7844496316301" y="645"/>
      <point x="408.7844496316301" y="666" type="curve" smooth="yes"/>
      <point x="404.7844496316301" y="700" type="line"/>
      <point x="412.7844496316301" y="692"/>
      <point x="413.7844496316301" y="685"/>
      <point x="416.7844496316301" y="675" type="curve" smooth="yes"/>
      <point x="421.7844496316301" y="653"/>
      <point x="425.7844496316301" y="628"/>
      <point x="409.7844496316301" y="609" type="curve"/>
      <point x="409.7844496316301" y="601"/>
      <point x="408.7844496316301" y="590"/>
      <point x="406.7844496316301" y="581" type="curve" smooth="yes"/>
      <point x="386.7844496316301" y="530" type="line"/>
      <point x="400.7844496316301" y="547" type="line"/>
      <point x="400.7844496316301" y="553"/>
      <point x="403.7844496316301" y="552"/>
      <point x="405.7844496316301" y="545" type="curve"/>
      <point x="381.7844496316301" y="491" type="line" smooth="yes"/>
      <point x="361.7844496316301" y="448"/>
      <point x="335.7844496316301" y="411"/>
      <point x="308.7844496316301" y="369" type="curve"/>
      <point x="392.7844496316301" y="366" type="line"/>
      <point x="442.7844496316301" y="358"/>
      <point x="487.7844496316301" y="341"/>
      <point x="534.7844496316301" y="322" type="curve"/>
      <point x="562.7844496316301" y="297" type="line"/>
      <point x="585.7844496316301" y="283" type="line" smooth="yes"/>
      <point x="633.7844496316301" y="257"/>
      <point x="664.7844496316301" y="204"/>
      <point x="692.7844496316301" y="157" type="curve" smooth="yes"/>
      <point x="711.7844496316301" y="124" type="line"/>
      <point x="724.7844496316301" y="94" type="line"/>
      <point x="734.7844496316301" y="87"/>
      <point x="739.7844496316301" y="79"/>
      <point x="741.7844496316301" y="67" type="curve" smooth="yes"/>
      <point x="751.7844496316301" y="30" type="line" smooth="yes"/>
      <point x="758.7844496316301" y="8"/>
      <point x="762.7844496316301" y="-18"/>
      <point x="760.7844496316301" y="-39" type="curve"/>
      <point x="729.7844496316301" y="-51" type="line"/>
      <point x="716.7844496316301" y="-51" type="line"/>
      <point x="712.7844496316301" y="-54"/>
      <point x="697.7844496316301" y="-59"/>
      <point x="694.7844496316301" y="-55" type="curve"/>
    </contour>
    <contour>
      <point x="185.78444963163008" y="325" type="line"/>
      <point x="208.78444963163008" y="364" type="line"/>
      <point x="254.78444963163008" y="439" type="line" smooth="yes"/>
      <point x="259.7844496316301" y="447"/>
      <point x="263.7844496316301" y="454"/>
      <point x="267.7844496316301" y="462" type="curve" smooth="yes"/>
      <point x="289.7844496316301" y="505"/>
      <point x="316.7844496316301" y="545"/>
      <point x="331.7844496316301" y="590" type="curve" smooth="yes"/>
      <point x="347.7844496316301" y="640"/>
      <point x="356.7844496316301" y="705"/>
      <point x="313.7844496316301" y="723" type="curve" smooth="yes"/>
      <point x="262.7844496316301" y="744"/>
      <point x="204.78444963163008" y="722"/>
      <point x="159.78444963163008" y="688" type="curve"/>
      <point x="159.78444963163008" y="598" type="line"/>
      <point x="165.78444963163008" y="600" type="line"/>
      <point x="167.78444963163008" y="646" type="line"/>
      <point x="171.78444963163008" y="643" type="line"/>
      <point x="172.78444963163008" y="600" type="line"/>
      <point x="174.78444963163008" y="573" type="line"/>
      <point x="177.78444963163008" y="525" type="line"/>
      <point x="185.78444963163008" y="325" type="line"/>
    </contour>
    <contour>
      <point x="140.78444963163008" y="631" type="curve"/>
      <point x="144.78444963163008" y="642"/>
      <point x="147.78444963163008" y="655"/>
      <point x="143.78444963163008" y="667" type="curve"/>
      <point x="136.78444963163008" y="656"/>
      <point x="137.78444963163008" y="644"/>
    </contour>
    <contour>
      <point x="105.78444963163008" y="483" type="line"/>
      <point x="105.78444963163008" y="520" type="line"/>
      <point x="107.78444963163008" y="574" type="line" smooth="yes"/>
      <point x="107.78444963163008" y="580"/>
      <point x="105.78444963163008" y="587"/>
      <point x="99.78444963163008" y="592" type="curve"/>
      <point x="99.78444963163008" y="520" type="line"/>
      <point x="99.78444963163008" y="497" type="line" smooth="yes"/>
      <point x="100.78444963163008" y="491"/>
      <point x="101.78444963163008" y="488"/>
      <point x="105.78444963163008" y="483" type="curve"/>
    </contour>
    <contour>
      <point x="130.78444963163008" y="503" type="line"/>
      <point x="131.78444963163008" y="519"/>
      <point x="130.78444963163008" y="529"/>
      <point x="125.78444963163008" y="542" type="curve"/>
      <point x="124.78444963163008" y="498" type="line"/>
      <point x="132.78444963163008" y="492"/>
      <point x="132.78444963163008" y="499"/>
      <point x="130.78444963163008" y="503" type="curve"/>
    </contour>
    <contour>
      <point x="105.78444963163008" y="483" type="line"/>
      <point x="101.78444963163008" y="488"/>
      <point x="100.78444963163008" y="491"/>
      <point x="100.78444963163008" y="497" type="curve" smooth="yes"/>
      <point x="99.78444963163008" y="520" type="line"/>
      <point x="99.78444963163008" y="592" type="line"/>
      <point x="105.78444963163008" y="587"/>
      <point x="107.78444963163008" y="580"/>
      <point x="107.78444963163008" y="574" type="curve" smooth="yes"/>
      <point x="105.78444963163008" y="520" type="line"/>
      <point x="105.78444963163008" y="483" type="line"/>
    </contour>
    <contour>
      <point x="130.78444963163008" y="503" type="line"/>
      <point x="132.78444963163008" y="499"/>
      <point x="132.78444963163008" y="492"/>
      <point x="124.78444963163008" y="498" type="curve"/>
      <point x="125.78444963163008" y="542" type="line"/>
      <point x="130.78444963163008" y="529"/>
      <point x="131.78444963163008" y="519"/>
      <point x="130.78444963163008" y="503" type="curve"/>
    </contour>
    <contour>
      <point x="140.78444963163008" y="631" type="curve"/>
      <point x="137.78444963163008" y="644"/>
      <point x="136.78444963163008" y="656"/>
      <point x="143.78444963163008" y="667" type="curve"/>
      <point x="147.78444963163008" y="655"/>
      <point x="144.78444963163008" y="642"/>
    </contour>
  </outline>
</glyph>
<glyph name="S" format="2">
  <advance width="487.76471173581774"/>
  <unicode hex="0053"/>
  <outline>
    <contour>
      <point x="364.21938775510205" y="-7" type="line"/>
      <point x="305.21938775510205" y="-31"/>
      <point x="213.21938775510205" y="-18"/>
      <point x="182.21938775510205" y="33" type="curve" smooth="yes"/>
      <point x="173.21938775510205" y="47"/>
      <point x="158.21938775510205" y="57"/>
      <point x="154.21938775510205" y="75" type="curve"/>
      <point x="183.21938775510205" y="46" type="line"/>
      <point x="169.21938775510205" y="76" type="line"/>
      <point x="180.21938775510205" y="80"/>
      <point x="180.21938775510205" y="87"/>
      <point x="179.21938775510205" y="102" type="curve"/>
      <point x="213.21938775510205" y="87"/>
      <point x="240.21938775510205" y="33"/>
      <point x="288.21938775510205" y="35" type="curve" smooth="yes"/>
      <point x="325.21938775510205" y="36"/>
      <point x="375.21938775510205" y="116"/>
      <point x="380.21938775510205" y="167" type="curve" smooth="yes"/>
      <point x="385.21938775510205" y="201"/>
      <point x="364.21938775510205" y="229"/>
      <point x="337.21938775510205" y="247" type="curve" smooth="yes"/>
      <point x="255.21938775510205" y="304"/>
      <point x="154.21938775510205" y="336"/>
      <point x="81.21938775510205" y="392" type="curve" smooth="yes"/>
      <point x="29.21938775510204" y="430"/>
      <point x="18.21938775510204" y="476"/>
      <point x="20.21938775510204" y="537" type="curve" smooth="yes"/>
      <point x="22.21938775510204" y="593"/>
      <point x="44.21938775510204" y="643"/>
      <point x="86.21938775510205" y="679" type="curve" smooth="yes"/>
      <point x="165.21938775510205" y="747"/>
      <point x="271.21938775510205" y="787"/>
      <point x="369.21938775510205" y="741" type="curve"/>
      <point x="403.21938775510205" y="715" type="line" smooth="yes"/>
      <point x="405.21938775510205" y="714"/>
      <point x="408.21938775510205" y="704"/>
      <point x="405.21938775510205" y="704" type="curve" smooth="yes"/>
      <point x="402.21938775510205" y="703"/>
      <point x="397.21938775510205" y="703"/>
      <point x="394.21938775510205" y="704" type="curve" smooth="yes"/>
      <point x="359.21938775510205" y="710" type="line" smooth="yes"/>
      <point x="344.21938775510205" y="712"/>
      <point x="330.21938775510205" y="712"/>
      <point x="317.21938775510205" y="720" type="curve" smooth="yes"/>
      <point x="281.21938775510205" y="743"/>
      <point x="191.21938775510205" y="696"/>
      <point x="153.21938775510205" y="653" type="curve" smooth="yes"/>
      <point x="116.21938775510205" y="610"/>
      <point x="105.21938775510205" y="554"/>
      <point x="112.21938775510205" y="499" type="curve" smooth="yes"/>
      <point x="121.21938775510205" y="428"/>
      <point x="192.21938775510205" y="391"/>
      <point x="253.21938775510205" y="358" type="curve" smooth="yes"/>
      <point x="351.21938775510205" y="306" type="line" smooth="yes"/>
      <point x="419.21938775510205" y="270"/>
      <point x="481.21938775510205" y="221"/>
      <point x="465.21938775510205" y="142" type="curve" smooth="yes"/>
      <point x="460.21938775510205" y="115"/>
      <point x="452.21938775510205" y="89"/>
      <point x="438.21938775510205" y="65" type="curve"/>
      <point x="418.21938775510205" y="44" type="line" smooth="yes"/>
      <point x="401.21938775510205" y="27"/>
      <point x="387.21938775510205" y="3"/>
      <point x="364.21938775510205" y="-7" type="curve"/>
    </contour>
  </outline>
</glyph>
<glyph name="T" format="2">
  <advance width="644.0640278099094"/>
  <unicode hex="0054"/>
  <outline>
    <contour>
      <point x="399.06402780990925" y="402" type="line"/>
      <point x="395.06402780990925" y="330" type="line"/>
      <point x="392.06402780990925" y="268" type="line"/>
      <point x="394.06402780990925" y="183" type="line"/>
      <point x="394.06402780990925" y="141" type="line"/>
      <point x="419.06402780990925" y="-4" type="line"/>
      <point x="407.06402780990925" y="-12"/>
      <point x="394.06402780990925" y="-13"/>
      <point x="380.06402780990925" y="-9" type="curve"/>
      <point x="341.06402780990925" y="-17" type="line" smooth="yes"/>
      <point x="330.06402780990925" y="-19"/>
      <point x="314.06402780990925" y="-15"/>
      <point x="311.06402780990925" y="-3" type="curve" smooth="yes"/>
      <point x="294.06402780990925" y="55"/>
      <point x="284.06402780990925" y="112"/>
      <point x="285.06402780990925" y="172" type="curve" smooth="yes"/>
      <point x="285.06402780990925" y="233" type="line"/>
      <point x="287.06402780990925" y="275" type="line"/>
      <point x="291.06402780990925" y="374" type="line"/>
      <point x="305.06402780990925" y="589" type="line" smooth="yes"/>
      <point x="305.06402780990925" y="591"/>
      <point x="306.06402780990925" y="596"/>
      <point x="307.06402780990925" y="597" type="curve" smooth="yes"/>
      <point x="314.06402780990925" y="599" type="line"/>
      <point x="306.06402780990925" y="619"/>
      <point x="311.06402780990925" y="638"/>
      <point x="311.06402780990925" y="660" type="curve" smooth="yes"/>
      <point x="311.06402780990925" y="724" type="line"/>
      <point x="311.06402780990925" y="724"/>
      <point x="126.06402780990922" y="722"/>
      <point x="126.06402780990922" y="722" type="curve"/>
      <point x="67.06402780990922" y="728" type="line" smooth="yes"/>
      <point x="56.06402780990922" y="729"/>
      <point x="39.06402780990922" y="736"/>
      <point x="27.06402780990922" y="741" type="curve"/>
      <point x="20.06402780990922" y="755" type="line" smooth="yes"/>
      <point x="19.06402780990922" y="757"/>
      <point x="30.06402780990922" y="758"/>
      <point x="33.06402780990922" y="758" type="curve" smooth="yes"/>
      <point x="54.06402780990922" y="760" type="line"/>
      <point x="92.06402780990922" y="756" type="line"/>
      <point x="153.06402780990922" y="747" type="line"/>
      <point x="302.06402780990925" y="757" type="line"/>
      <point x="517.0640278099092" y="756" type="line" smooth="yes"/>
      <point x="546.0640278099092" y="756"/>
      <point x="571.0640278099092" y="748"/>
      <point x="599.0640278099092" y="737" type="curve" smooth="yes"/>
      <point x="620.0640278099092" y="729" type="line" smooth="yes"/>
      <point x="624.0640278099092" y="727"/>
      <point x="625.0640278099092" y="713"/>
      <point x="623.0640278099092" y="708" type="curve"/>
      <point x="608.0640278099092" y="695"/>
      <point x="582.0640278099092" y="691"/>
      <point x="565.0640278099092" y="704" type="curve"/>
      <point x="558.0640278099092" y="717" type="line"/>
      <point x="377.06402780990925" y="725" type="line"/>
      <point x="373.06402780990925" y="581" type="line"/>
      <point x="369.06402780990925" y="534" type="line"/>
      <point x="366.06402780990925" y="487" type="line"/>
      <point x="366.06402780990925" y="428" type="line"/>
      <point x="371.06402780990925" y="487" type="line"/>
      <point x="375.06402780990925" y="546" type="line"/>
      <point x="379.06402780990925" y="581" type="line"/>
      <point x="388.06402780990925" y="678" type="line"/>
      <point x="395.06402780990925" y="622" type="line" smooth="yes"/>
      <point x="403.06402780990925" y="563"/>
      <point x="389.06402780990925" y="505"/>
      <point x="387.06402780990925" y="444" type="curve" smooth="yes"/>
      <point x="379.06402780990925" y="251" type="line"/>
      <point x="384.06402780990925" y="248" type="line"/>
      <point x="393.06402780990925" y="400" type="line"/>
      <point x="399.06402780990925" y="402" type="line"/>
    </contour>
    <contour>
      <point x="367.06402780990925" y="623" type="curve"/>
      <point x="363.06402780990925" y="655" type="line"/>
      <point x="357.06402780990925" y="644"/>
      <point x="354.06402780990925" y="628"/>
    </contour>
  </outline>
</glyph>
<glyph name="U" format="2">
  <advance width="530"/>
  <unicode hex="0055"/>
  <outline>
    <contour>
      <point x="30" y="397" type="line"/>
      <point x="35" y="374" type="line"/>
      <point x="46" y="383" type="line"/>
      <point x="73" y="176" type="line"/>
      <point x="65" y="194"/>
      <point x="59" y="214"/>
      <point x="55" y="233" type="curve" smooth="yes"/>
      <point x="42" y="305" type="line"/>
      <point x="40" y="290"/>
      <point x="38" y="269"/>
      <point x="42" y="254" type="curve" smooth="yes"/>
      <point x="71" y="130" type="line"/>
      <point x="70" y="127" type="line"/>
      <point x="67" y="134"/>
      <point x="63" y="142"/>
      <point x="58" y="149" type="curve"/>
      <point x="69" y="92"/>
      <point x="99" y="32"/>
      <point x="143" y="2" type="curve" smooth="yes"/>
      <point x="171" y="-17"/>
      <point x="201" y="-13"/>
      <point x="232" y="-10" type="curve" smooth="yes"/>
      <point x="257" y="-7"/>
      <point x="278" y="-2"/>
      <point x="299" y="13" type="curve" smooth="yes"/>
      <point x="345" y="46"/>
      <point x="384" y="88"/>
      <point x="407" y="139" type="curve" smooth="yes"/>
      <point x="452" y="236" type="line"/>
      <point x="480" y="307" type="line" smooth="yes"/>
      <point x="484" y="318"/>
      <point x="485" y="324"/>
      <point x="490" y="334" type="curve" smooth="yes"/>
      <point x="503" y="363"/>
      <point x="515" y="420"/>
      <point x="506" y="449" type="curve"/>
      <point x="495" y="466" type="line"/>
      <point x="510" y="460" type="line"/>
      <point x="509" y="485"/>
      <point x="506" y="510"/>
      <point x="490" y="524" type="curve" smooth="yes"/>
      <point x="489" y="525"/>
      <point x="495" y="531"/>
      <point x="495" y="533" type="curve" smooth="yes"/>
      <point x="490" y="581" type="line"/>
      <point x="474" y="644" type="line"/>
      <point x="450" y="725" type="line"/>
      <point x="445" y="722"/>
      <point x="440" y="721"/>
      <point x="440" y="723" type="curve" smooth="yes"/>
      <point x="441" y="724"/>
      <point x="438" y="715"/>
      <point x="437" y="712" type="curve"/>
      <point x="420" y="741" type="line"/>
      <point x="399" y="739" type="line"/>
      <point x="403" y="713" type="line"/>
      <point x="394" y="727"/>
      <point x="388" y="737"/>
      <point x="377" y="750" type="curve"/>
      <point x="373" y="732"/>
      <point x="378" y="724"/>
      <point x="384" y="710" type="curve"/>
      <point x="363" y="728" type="line" smooth="yes"/>
      <point x="361" y="730"/>
      <point x="353" y="732"/>
      <point x="354" y="730" type="curve" smooth="yes"/>
      <point x="354" y="728"/>
      <point x="355" y="722"/>
      <point x="356" y="720" type="curve" smooth="yes"/>
      <point x="373" y="659" type="line"/>
      <point x="403" y="517" type="line" smooth="yes"/>
      <point x="414" y="464"/>
      <point x="416" y="412"/>
      <point x="395" y="362" type="curve" smooth="yes"/>
      <point x="352" y="254" type="line" smooth="yes"/>
      <point x="328" y="195"/>
      <point x="269" y="87"/>
      <point x="217" y="56" type="curve"/>
      <point x="159" y="127"/>
      <point x="138" y="246"/>
      <point x="132" y="337" type="curve" smooth="yes"/>
      <point x="122" y="480"/>
      <point x="136" y="621"/>
      <point x="155" y="763" type="curve"/>
      <point x="142" y="764"/>
      <point x="130" y="767"/>
      <point x="121" y="770" type="curve"/>
      <point x="99" y="767" type="line"/>
      <point x="89" y="766"/>
      <point x="77" y="764"/>
      <point x="68" y="762" type="curve"/>
      <point x="55" y="761" type="line" smooth="yes"/>
      <point x="53" y="761"/>
      <point x="50" y="753"/>
      <point x="50" y="751" type="curve" smooth="yes"/>
      <point x="36" y="631" type="line" smooth="yes"/>
      <point x="34" y="610"/>
      <point x="35" y="589"/>
      <point x="37" y="569" type="curve"/>
      <point x="31" y="556"/>
      <point x="27" y="539"/>
      <point x="35" y="524" type="curve"/>
      <point x="32" y="485" type="line"/>
      <point x="31" y="409" type="line"/>
      <point x="46" y="402" type="line"/>
      <point x="30" y="397" type="line"/>
    </contour>
    <contour>
      <point x="49" y="603" type="curve"/>
      <point x="48" y="621"/>
      <point x="51" y="637"/>
      <point x="54" y="655" type="curve"/>
      <point x="58" y="638"/>
      <point x="56" y="620"/>
    </contour>
    <contour>
      <point x="42" y="305" type="line"/>
      <point x="33" y="320"/>
      <point x="35" y="335"/>
      <point x="39" y="350" type="curve"/>
    </contour>
  </outline>
</glyph>
<glyph name="V" format="2">
  <advance width="553"/>
  <unicode hex="0056"/>
  <outline>
    <contour>
      <point x="509" y="704" type="line"/>
      <point x="495" y="670"/>
      <point x="497" y="636"/>
      <point x="492" y="598" type="curve"/>
      <point x="485" y="618" type="line"/>
      <point x="463" y="504" type="line"/>
      <point x="450" y="464" type="line"/>
      <point x="435" y="417" type="line"/>
      <point x="420" y="381" type="line"/>
      <point x="422" y="365"/>
      <point x="418" y="354"/>
      <point x="416" y="339" type="curve" smooth="yes"/>
      <point x="401" y="271" type="line"/>
      <point x="395" y="237" type="line"/>
      <point x="376" y="142" type="line"/>
      <point x="356" y="20" type="line"/>
      <point x="334" y="11" type="line"/>
      <point x="296" y="-2" type="line"/>
      <point x="284" y="0" type="line" smooth="yes"/>
      <point x="282" y="0"/>
      <point x="276" y="-10"/>
      <point x="272" y="-10" type="curve" smooth="yes"/>
      <point x="260" y="-14"/>
      <point x="244" y="2"/>
      <point x="240" y="15" type="curve" smooth="yes"/>
      <point x="224" y="66"/>
      <point x="204" y="113"/>
      <point x="178" y="163" type="curve" smooth="yes"/>
      <point x="147" y="217"/>
      <point x="130" y="273"/>
      <point x="115" y="333" type="curve" smooth="yes"/>
      <point x="71" y="530" type="line"/>
      <point x="31" y="737" type="line"/>
      <point x="30" y="750" type="line" smooth="yes"/>
      <point x="30" y="752"/>
      <point x="41" y="750"/>
      <point x="43" y="752" type="curve" smooth="yes"/>
      <point x="71" y="760" type="line"/>
      <point x="98" y="746" type="line"/>
      <point x="102" y="718" type="line"/>
      <point x="109" y="739" type="line"/>
      <point x="126" y="672" type="line"/>
      <point x="186" y="426" type="line"/>
      <point x="202" y="415" type="line"/>
      <point x="226" y="320" type="line"/>
      <point x="230" y="320"/>
      <point x="236" y="320"/>
      <point x="236" y="320" type="curve" smooth="yes"/>
      <point x="236" y="313" type="line" smooth="yes"/>
      <point x="236" y="311"/>
      <point x="232" y="311"/>
      <point x="228" y="311" type="curve"/>
      <point x="234" y="293" type="line"/>
      <point x="236" y="305" type="line" smooth="yes"/>
      <point x="236" y="307"/>
      <point x="240" y="305"/>
      <point x="242" y="305" type="curve" smooth="yes"/>
      <point x="244" y="297" type="line" smooth="yes"/>
      <point x="255" y="265"/>
      <point x="260" y="237"/>
      <point x="284" y="207" type="curve"/>
      <point x="304" y="303" type="line"/>
      <point x="327" y="369" type="line"/>
      <point x="356" y="458" type="line"/>
      <point x="363" y="496" type="line"/>
      <point x="378" y="546" type="line"/>
      <point x="393" y="650" type="line"/>
      <point x="410" y="746" type="line"/>
      <point x="473" y="746" type="line" smooth="yes"/>
      <point x="479" y="748"/>
      <point x="488" y="756"/>
      <point x="492" y="752" type="curve" smooth="yes"/>
      <point x="495" y="748"/>
      <point x="497" y="742"/>
      <point x="501" y="733" type="curve"/>
      <point x="523" y="737" type="line"/>
      <point x="509" y="704" type="line"/>
    </contour>
    <contour>
      <point x="483" y="625" type="line"/>
      <point x="490" y="625" type="line"/>
      <point x="499" y="697" type="line"/>
      <point x="495" y="702" type="line"/>
      <point x="483" y="625" type="line"/>
    </contour>
  </outline>
</glyph>
<glyph name="W" format="2">
  <advance width="753"/>
  <unicode hex="0057"/>
  <outline>
    <contour>
      <point x="282" y="309" type="line"/>
      <point x="296" y="320" type="line"/>
      <point x="257" y="226" type="line"/>
      <point x="231" y="155" type="line" smooth="yes"/>
      <point x="215" y="113"/>
      <point x="202" y="70"/>
      <point x="201" y="23" type="curve"/>
      <point x="178" y="6" type="line"/>
      <point x="140" y="-1" type="line"/>
      <point x="108" y="-9" type="line"/>
      <point x="67" y="54"/>
      <point x="52" y="163"/>
      <point x="51" y="241" type="curve" smooth="yes"/>
      <point x="47" y="648" type="line"/>
      <point x="40" y="758" type="line"/>
      <point x="86" y="756" type="line"/>
      <point x="90" y="751" type="line" smooth="yes"/>
      <point x="91" y="749"/>
      <point x="95" y="747"/>
      <point x="96" y="748" type="curve" smooth="yes"/>
      <point x="101" y="757" type="line"/>
      <point x="127" y="743" type="line"/>
      <point x="141" y="375" type="line"/>
      <point x="143" y="534" type="line"/>
      <point x="147" y="538" type="line"/>
      <point x="150" y="311" type="line"/>
      <point x="152" y="251" type="line"/>
      <point x="156" y="205" type="line"/>
      <point x="205" y="315" type="line"/>
      <point x="227" y="359" type="line"/>
      <point x="237" y="382" type="line"/>
      <point x="253" y="416" type="line"/>
      <point x="292" y="511" type="line" smooth="yes"/>
      <point x="296" y="522"/>
      <point x="297" y="531"/>
      <point x="298" y="545" type="curve"/>
      <point x="358" y="535" type="line" smooth="yes"/>
      <point x="367" y="533"/>
      <point x="380" y="537"/>
      <point x="385" y="527" type="curve" smooth="yes"/>
      <point x="456" y="373" type="line"/>
      <point x="442" y="378"/>
      <point x="443" y="390"/>
      <point x="435" y="399" type="curve"/>
      <point x="435" y="380"/>
      <point x="445" y="364"/>
      <point x="455" y="344" type="curve" smooth="yes"/>
      <point x="515" y="229" type="line"/>
      <point x="527" y="207" type="line" smooth="yes"/>
      <point x="555" y="158"/>
      <point x="580" y="110"/>
      <point x="615" y="63" type="curve"/>
      <point x="619" y="346" type="line"/>
      <point x="618" y="392" type="line"/>
      <point x="618" y="588" type="line"/>
      <point x="630" y="750" type="line"/>
      <point x="634" y="791" type="line"/>
      <point x="646" y="774" type="line"/>
      <point x="645" y="774"/>
      <point x="652" y="783"/>
      <point x="653" y="780" type="curve" smooth="yes"/>
      <point x="661" y="766" type="line"/>
      <point x="668" y="781" type="line"/>
      <point x="683" y="762" type="line"/>
      <point x="689" y="769"/>
      <point x="699" y="775"/>
      <point x="713" y="774" type="curve"/>
      <point x="708" y="715" type="line"/>
      <point x="693" y="517" type="line"/>
      <point x="686" y="520" type="line"/>
      <point x="686" y="603" type="line"/>
      <point x="682" y="605" type="line"/>
      <point x="680" y="480" type="line"/>
      <point x="685" y="278" type="line"/>
      <point x="675" y="285" type="line"/>
      <point x="672" y="273"/>
      <point x="673" y="262"/>
      <point x="685" y="257" type="curve"/>
      <point x="684" y="231" type="line"/>
      <point x="675" y="243" type="line"/>
      <point x="672" y="235"/>
      <point x="679" y="224"/>
      <point x="686" y="216" type="curve"/>
      <point x="682" y="143" type="line"/>
      <point x="685" y="53" type="line"/>
      <point x="692" y="-52" type="line"/>
      <point x="666" y="-77" type="line"/>
      <point x="663" y="-73"/>
      <point x="658" y="-69"/>
      <point x="656" y="-70" type="curve" smooth="yes"/>
      <point x="647" y="-76" type="line"/>
      <point x="638" y="-83" type="line" smooth="yes"/>
      <point x="636" y="-85"/>
      <point x="630" y="-78"/>
      <point x="629" y="-76" type="curve" smooth="yes"/>
      <point x="601" y="-38" type="line"/>
      <point x="520" y="93" type="line"/>
      <point x="478" y="169" type="line"/>
      <point x="433" y="254" type="line"/>
      <point x="407" y="308" type="line"/>
      <point x="330" y="466" type="line"/>
      <point x="305" y="398" type="line"/>
      <point x="324" y="415" type="line"/>
      <point x="318" y="390" type="line"/>
      <point x="329" y="401" type="line"/>
      <point x="324" y="378"/>
      <point x="318" y="365"/>
      <point x="306" y="348" type="curve"/>
      <point x="305" y="364" type="line"/>
      <point x="296" y="346" type="line"/>
      <point x="291" y="353" type="line" smooth="yes"/>
      <point x="290" y="354"/>
      <point x="288" y="350"/>
      <point x="287" y="349" type="curve" smooth="yes"/>
      <point x="272" y="319" type="line"/>
      <point x="285" y="327" type="line"/>
      <point x="282" y="309" type="line"/>
    </contour>
    <contour>
      <point x="114" y="685" type="line"/>
      <point x="110" y="685" type="line"/>
      <point x="110" y="634" type="line"/>
      <point x="114" y="634" type="line"/>
    </contour>
    <contour>
      <point x="114" y="685" type="line"/>
      <point x="114" y="634" type="line"/>
    </contour>
  </outline>
</glyph>
<glyph name="X" format="2">
  <advance width="533"/>
  <unicode hex="0058"/>
  <outline>
    <contour>
      <point x="370" y="58" type="line"/>
      <point x="279" y="207" type="line"/>
      <point x="249" y="121"/>
      <point x="221" y="43"/>
      <point x="200" y="-41" type="curve" smooth="yes"/>
      <point x="198" y="-52"/>
      <point x="195" y="-70"/>
      <point x="185" y="-69" type="curve" smooth="yes"/>
      <point x="184" y="-69"/>
      <point x="178" y="-64"/>
      <point x="176" y="-65" type="curve" smooth="yes"/>
      <point x="165" y="-68" type="line"/>
      <point x="141" y="-72" type="line" smooth="yes"/>
      <point x="139" y="-73"/>
      <point x="132" y="-75"/>
      <point x="131" y="-73" type="curve" smooth="yes"/>
      <point x="123" y="-64" type="line"/>
      <point x="114" y="-69" type="line" smooth="yes"/>
      <point x="112" y="-71"/>
      <point x="106" y="-66"/>
      <point x="103" y="-66" type="curve" smooth="yes"/>
      <point x="95" y="-67" type="line" smooth="yes"/>
      <point x="83" y="-67"/>
      <point x="100" y="-9"/>
      <point x="113" y="22" type="curve"/>
      <point x="123" y="45" type="line"/>
      <point x="126" y="45" type="line"/>
      <point x="127" y="30" type="line"/>
      <point x="135" y="47"/>
      <point x="140" y="65"/>
      <point x="145" y="85" type="curve" smooth="yes"/>
      <point x="164" y="154" type="line"/>
      <point x="150" y="117" type="line" smooth="yes"/>
      <point x="144" y="101"/>
      <point x="142" y="86"/>
      <point x="133" y="71" type="curve"/>
      <point x="135" y="94"/>
      <point x="144" y="116"/>
      <point x="151" y="141" type="curve" smooth="yes"/>
      <point x="178" y="218" type="line"/>
      <point x="193" y="254" type="line"/>
      <point x="198" y="246" type="line"/>
      <point x="215" y="279" type="line"/>
      <point x="225" y="317" type="line"/>
      <point x="210" y="297" type="line"/>
      <point x="218" y="326" type="line"/>
      <point x="101" y="565" type="line"/>
      <point x="68" y="640" type="line"/>
      <point x="30" y="743" type="line"/>
      <point x="32" y="752" type="line" smooth="yes"/>
      <point x="32" y="759"/>
      <point x="51" y="749"/>
      <point x="54" y="751" type="curve" smooth="yes"/>
      <point x="65" y="763" type="line"/>
      <point x="75" y="749" type="line"/>
      <point x="82" y="753"/>
      <point x="91" y="757"/>
      <point x="97" y="755" type="curve" smooth="yes"/>
      <point x="104" y="754"/>
      <point x="113" y="741"/>
      <point x="115" y="735" type="curve" smooth="yes"/>
      <point x="174" y="591" type="line"/>
      <point x="257" y="421" type="line"/>
      <point x="264" y="437" type="line" smooth="yes"/>
      <point x="265" y="440"/>
      <point x="270" y="440"/>
      <point x="274" y="440" type="curve"/>
      <point x="277" y="444" type="line" smooth="yes"/>
      <point x="281" y="449"/>
      <point x="268" y="445"/>
      <point x="270" y="450" type="curve" smooth="yes"/>
      <point x="275" y="463"/>
      <point x="285" y="491"/>
      <point x="295" y="503" type="curve" smooth="yes"/>
      <point x="305" y="515"/>
      <point x="312" y="520"/>
      <point x="311" y="537" type="curve"/>
      <point x="320" y="562" type="line"/>
      <point x="380" y="689" type="line"/>
      <point x="393" y="695"/>
      <point x="399" y="710"/>
      <point x="395" y="725" type="curve"/>
      <point x="415" y="760" type="line"/>
      <point x="429" y="750"/>
      <point x="444" y="750"/>
      <point x="454" y="754" type="curve"/>
      <point x="464" y="749" type="line" smooth="yes"/>
      <point x="465" y="748"/>
      <point x="468" y="750"/>
      <point x="472" y="753" type="curve"/>
      <point x="489" y="741" type="line"/>
      <point x="493" y="730" type="line"/>
      <point x="503" y="725" type="line"/>
      <point x="487" y="694" type="line"/>
      <point x="474" y="689"/>
      <point x="468" y="675"/>
      <point x="475" y="661" type="curve"/>
      <point x="412" y="522" type="line"/>
      <point x="357" y="403" type="line"/>
      <point x="320" y="313" type="line" smooth="yes"/>
      <point x="317" y="307"/>
      <point x="327" y="296"/>
      <point x="331" y="290" type="curve" smooth="yes"/>
      <point x="415" y="148" type="line"/>
      <point x="484" y="22" type="line"/>
      <point x="484" y="15"/>
      <point x="484" y="5"/>
      <point x="481" y="2" type="curve" smooth="yes"/>
      <point x="475" y="0"/>
      <point x="463" y="-1"/>
      <point x="455" y="-1" type="curve"/>
      <point x="449" y="-9" type="line" smooth="yes"/>
      <point x="448" y="-10"/>
      <point x="442" y="-4"/>
      <point x="440" y="-2" type="curve"/>
      <point x="431" y="-9"/>
      <point x="418" y="-13"/>
      <point x="409" y="-11" type="curve"/>
      <point x="370" y="58" type="line"/>
    </contour>
    <contour>
      <point x="175" y="181" type="line"/>
      <point x="191" y="217" type="line" smooth="yes"/>
      <point x="195" y="224"/>
      <point x="196" y="233"/>
      <point x="196" y="244" type="curve"/>
      <point x="187" y="223" type="line" smooth="yes"/>
      <point x="181" y="211"/>
      <point x="175" y="197"/>
      <point x="175" y="181" type="curve"/>
    </contour>
  </outline>
</glyph>
<glyph name="Y" format="2">
  <advance width="492.06402780990925"/>
  <unicode hex="0059"/>
  <outline>
    <contour>
      <point x="433.06402780990925" y="711" type="line"/>
      <point x="441.06402780990925" y="691"/>
      <point x="441.06402780990925" y="627"/>
      <point x="438.06402780990925" y="592" type="curve" smooth="yes"/>
      <point x="436.06402780990925" y="547" type="line"/>
      <point x="432.06402780990925" y="478" type="line"/>
      <point x="428.06402780990925" y="417" type="line"/>
      <point x="426.06402780990925" y="321" type="line"/>
      <point x="425.06402780990925" y="247" type="line"/>
      <point x="426.06402780990925" y="217" type="line" smooth="yes"/>
      <point x="428.06402780990925" y="140"/>
      <point x="432.06402780990925" y="66"/>
      <point x="452.06402780990925" y="-8" type="curve"/>
      <point x="426.06402780990925" y="-41"/>
      <point x="410.06402780990925" y="-23"/>
      <point x="388.06402780990925" y="-31" type="curve" smooth="yes"/>
      <point x="371.06402780990925" y="-37" type="line" smooth="yes"/>
      <point x="367.06402780990925" y="-39"/>
      <point x="362.06402780990925" y="-28"/>
      <point x="357.06402780990925" y="-23" type="curve"/>
      <point x="348.06402780990925" y="26"/>
      <point x="341.06402780990925" y="73"/>
      <point x="336.06402780990925" y="123" type="curve"/>
      <point x="332.06402780990925" y="230"/>
      <point x="335.06402780990925" y="333"/>
      <point x="347.06402780990925" y="442" type="curve"/>
      <point x="273.06402780990925" y="430"/>
      <point x="207.06402780990922" y="451"/>
      <point x="154.06402780990922" y="497" type="curve" smooth="yes"/>
      <point x="143.06402780990922" y="506"/>
      <point x="133.06402780990922" y="512"/>
      <point x="127.06402780990922" y="524" type="curve"/>
      <point x="99.06402780990922" y="558"/>
      <point x="76.06402780990922" y="595"/>
      <point x="61.06402780990923" y="635" type="curve" smooth="yes"/>
      <point x="49.06402780990923" y="670" type="line" smooth="yes"/>
      <point x="37.06402780990923" y="703"/>
      <point x="26.064027809909227" y="736"/>
      <point x="22.064027809909227" y="770" type="curve" smooth="yes"/>
      <point x="20.064027809909227" y="784" type="line" smooth="yes"/>
      <point x="19.064027809909227" y="787"/>
      <point x="30.064027809909227" y="786"/>
      <point x="33.06402780990923" y="785" type="curve"/>
      <point x="46.06402780990923" y="795" type="line"/>
      <point x="53.06402780990923" y="787" type="line" smooth="yes"/>
      <point x="53.06402780990923" y="785"/>
      <point x="60.06402780990923" y="787"/>
      <point x="61.06402780990923" y="787" type="curve"/>
      <point x="68.06402780990922" y="765"/>
      <point x="72.06402780990922" y="744"/>
      <point x="86.06402780990922" y="724" type="curve"/>
      <point x="73.06402780990922" y="792" type="line"/>
      <point x="86.06402780990922" y="769" type="line"/>
      <point x="98.06402780990922" y="744" type="line"/>
      <point x="120.06402780990922" y="677"/>
      <point x="147.06402780990922" y="615"/>
      <point x="185.06402780990922" y="556" type="curve"/>
      <point x="191.06402780990922" y="552" type="line" smooth="yes"/>
      <point x="192.06402780990922" y="551"/>
      <point x="194.06402780990922" y="551"/>
      <point x="193.06402780990922" y="552" type="curve" smooth="yes"/>
      <point x="192.06402780990922" y="564" type="line"/>
      <point x="207.06402780990922" y="549"/>
      <point x="220.06402780990922" y="529"/>
      <point x="237.06402780990922" y="515" type="curve" smooth="yes"/>
      <point x="260.06402780990925" y="499"/>
      <point x="283.06402780990925" y="484"/>
      <point x="312.06402780990925" y="478" type="curve" smooth="yes"/>
      <point x="324.06402780990925" y="477"/>
      <point x="342.06402780990925" y="491"/>
      <point x="351.06402780990925" y="499" type="curve"/>
      <point x="359.06402780990925" y="564" type="line" smooth="yes"/>
      <point x="365.06402780990925" y="617"/>
      <point x="364.06402780990925" y="710"/>
      <point x="343.06402780990925" y="753" type="curve" smooth="yes"/>
      <point x="342.06402780990925" y="756"/>
      <point x="343.06402780990925" y="765"/>
      <point x="345.06402780990925" y="765" type="curve" smooth="yes"/>
      <point x="357.06402780990925" y="762" type="line" smooth="yes"/>
      <point x="364.06402780990925" y="761"/>
      <point x="379.06402780990925" y="762"/>
      <point x="385.06402780990925" y="762" type="curve" smooth="yes"/>
      <point x="387.06402780990925" y="763"/>
      <point x="393.06402780990925" y="757"/>
      <point x="395.06402780990925" y="758" type="curve" smooth="yes"/>
      <point x="403.06402780990925" y="762" type="line"/>
      <point x="417.06402780990925" y="748" type="line"/>
      <point x="433.06402780990925" y="711" type="line"/>
    </contour>
    <contour>
      <point x="71.06402780990922" y="712" type="line"/>
      <point x="74.06402780990922" y="721" type="line"/>
      <point x="55.06402780990923" y="782" type="line"/>
      <point x="52.06402780990923" y="779" type="line"/>
      <point x="71.06402780990922" y="712" type="line"/>
    </contour>
    <contour>
      <point x="43.06402780990923" y="742" type="line"/>
      <point x="37.06402780990923" y="767" type="line"/>
      <point x="36.06402780990923" y="757"/>
      <point x="38.06402780990923" y="747"/>
      <point x="40.06402780990923" y="739" type="curve"/>
      <point x="43.06402780990923" y="742" type="line"/>
    </contour>
    <contour>
      <point x="46.06402780990923" y="739" type="line"/>
      <point x="42.06402780990923" y="737" type="line"/>
      <point x="48.06402780990923" y="719" type="line"/>
      <point x="50.06402780990923" y="725"/>
      <point x="48.06402780990923" y="735"/>
      <point x="46.06402780990923" y="739" type="curve"/>
    </contour>
    <contour>
      <point x="83.06402780990922" y="689" type="curve"/>
      <point x="86.06402780990922" y="704"/>
      <point x="80.06402780990922" y="709"/>
      <point x="74.06402780990922" y="708" type="curve"/>
      <point x="73.06402780990922" y="700"/>
      <point x="78.06402780990922" y="689"/>
    </contour>
  </outline>
</glyph>
<glyph name="Z" format="2">
  <advance width="702.3768748422884"/>
  <unicode hex="005A"/>
  <outline>
    <contour>
      <point x="675.7667519082067" y="-5" type="line"/>
      <point x="598.7667519082067" y="-3" type="line" smooth="yes"/>
      <point x="547.7667519082067" y="-1"/>
      <point x="498.7667519082068" y="-2"/>
      <point x="446.7667519082068" y="-7" type="curve" smooth="yes"/>
      <point x="372.7667519082068" y="-15" type="line"/>
      <point x="307.7667519082068" y="-28"/>
      <point x="246.76675190820677" y="-48"/>
      <point x="184.76675190820677" y="-70" type="curve" smooth="yes"/>
      <point x="129.76675190820677" y="-91" type="line" smooth="yes"/>
      <point x="105.76675190820677" y="-99"/>
      <point x="77.76675190820677" y="-108"/>
      <point x="53.76675190820677" y="-96" type="curve"/>
      <point x="30.766751908206775" y="-98" type="line"/>
      <point x="13.766751908206775" y="-83"/>
      <point x="20.766751908206775" y="-64"/>
      <point x="25.766751908206775" y="-46" type="curve" smooth="yes"/>
      <point x="50.76675190820677" y="37"/>
      <point x="84.76675190820677" y="110"/>
      <point x="131.76675190820677" y="181" type="curve" smooth="yes"/>
      <point x="187.76675190820677" y="266" type="line"/>
      <point x="260.7667519082068" y="368" type="line" smooth="yes"/>
      <point x="329.7667519082068" y="456"/>
      <point x="389.7667519082068" y="548"/>
      <point x="438.7667519082068" y="648" type="curve" smooth="yes"/>
      <point x="447.7667519082068" y="668"/>
      <point x="452.7667519082068" y="689"/>
      <point x="455.7667519082068" y="712" type="curve"/>
      <point x="388.7667519082068" y="720"/>
      <point x="327.7667519082068" y="700"/>
      <point x="267.7667519082068" y="670" type="curve" smooth="yes"/>
      <point x="249.76675190820677" y="661"/>
      <point x="233.76675190820677" y="652"/>
      <point x="219.76675190820677" y="638" type="curve"/>
      <point x="141.76675190820677" y="655" type="line" smooth="yes"/>
      <point x="137.76675190820677" y="656"/>
      <point x="128.76675190820677" y="662"/>
      <point x="127.76675190820677" y="665" type="curve" smooth="yes"/>
      <point x="125.76675190820677" y="670"/>
      <point x="128.76675190820677" y="681"/>
      <point x="130.76675190820677" y="684" type="curve"/>
      <point x="143.76675190820677" y="678" type="line" smooth="yes"/>
      <point x="146.76675190820677" y="677"/>
      <point x="154.76675190820677" y="682"/>
      <point x="157.76675190820677" y="684" type="curve" smooth="yes"/>
      <point x="213.76675190820677" y="721" type="line" smooth="yes"/>
      <point x="251.76675190820677" y="746"/>
      <point x="295.7667519082068" y="753"/>
      <point x="339.7667519082068" y="758" type="curve" smooth="yes"/>
      <point x="384.7667519082068" y="764" type="line" smooth="yes"/>
      <point x="404.7667519082068" y="767"/>
      <point x="424.7667519082068" y="765"/>
      <point x="444.7667519082068" y="757" type="curve" smooth="yes"/>
      <point x="496.7667519082068" y="738" type="line" smooth="yes"/>
      <point x="512.7667519082067" y="732"/>
      <point x="523.7667519082067" y="718"/>
      <point x="528.7667519082067" y="704" type="curve" smooth="yes"/>
      <point x="536.7667519082067" y="685"/>
      <point x="529.7667519082067" y="668"/>
      <point x="522.7667519082067" y="650" type="curve" smooth="yes"/>
      <point x="500.7667519082068" y="598" type="line"/>
      <point x="445.7667519082068" y="496" type="line"/>
      <point x="396.7667519082068" y="418" type="line"/>
      <point x="346.7667519082068" y="343" type="line" smooth="yes"/>
      <point x="330.7667519082068" y="319"/>
      <point x="320.7667519082068" y="296"/>
      <point x="299.7667519082068" y="276" type="curve"/>
      <point x="283.7667519082068" y="249" type="line"/>
      <point x="268.7667519082068" y="232"/>
      <point x="262.7667519082068" y="215"/>
      <point x="251.76675190820677" y="198" type="curve" smooth="yes"/>
      <point x="192.76675190820677" y="101" type="line" smooth="yes"/>
      <point x="170.76675190820677" y="66"/>
      <point x="156.76675190820677" y="31"/>
      <point x="144.76675190820677" y="-9" type="curve"/>
      <point x="169.76675190820677" y="-3" type="line"/>
      <point x="319.7667519082068" y="38" type="line"/>
      <point x="398.7667519082068" y="49" type="line"/>
      <point x="499.7667519082068" y="57" type="line"/>
      <point x="528.7667519082067" y="58" type="line"/>
      <point x="605.7667519082067" y="57" type="line"/>
      <point x="616.7667519082067" y="65"/>
      <point x="630.7667519082067" y="65"/>
      <point x="639.7667519082067" y="53" type="curve"/>
      <point x="654.7667519082067" y="48"/>
      <point x="671.7667519082067" y="40"/>
      <point x="680.7667519082067" y="27" type="curve" smooth="yes"/>
      <point x="684.7667519082067" y="20"/>
      <point x="680.7667519082067" y="4"/>
      <point x="674.7667519082067" y="-5" type="curve"/>
    </contour>
    <contour>
      <point x="499.7667519082068" y="626" type="line"/>
      <point x="506.7667519082068" y="633"/>
      <point x="511.7667519082068" y="643"/>
      <point x="508.7667519082068" y="656" type="curve"/>
    </contour>
    <contour>
      <point x="459.7667519082068" y="552" type="line"/>
      <point x="448.7667519082068" y="534" type="line"/>
      <point x="454.7667519082068" y="532" type="line"/>
      <point x="463.7667519082068" y="548" type="line"/>
    </contour>
  </outline>
</glyph>
<glyph name="a" format="2">
  <advance width="466.0333719582072"/>
  <unicode hex="0061"/>
  <outline>
    <contour>
      <point x="198" y="1" type="line"/>
      <point x="125" y="-12" type="line" smooth="yes"/>
      <point x="109" y="-15"/>
      <point x="86" y="-6"/>
      <point x="71" y="-1" type="curve"/>
      <point x="64" y="-6" type="line" smooth="yes"/>
      <point x="56" y="-11"/>
      <point x="30" y="36"/>
      <point x="30" y="88" type="curve" smooth="yes"/>
      <point x="31" y="146" type="line"/>
      <point x="45" y="162"/>
      <point x="28" y="184"/>
      <point x="44" y="215" type="curve"/>
      <point x="55" y="226"/>
      <point x="62" y="238"/>
      <point x="56" y="253" type="curve"/>
      <point x="69" y="283" type="line" smooth="yes"/>
      <point x="75" y="296"/>
      <point x="79" y="311"/>
      <point x="93" y="318" type="curve" smooth="yes"/>
      <point x="103" y="323"/>
      <point x="103" y="331"/>
      <point x="105" y="341" type="curve"/>
      <point x="110" y="358"/>
      <point x="134" y="366"/>
      <point x="151" y="373" type="curve" smooth="yes"/>
      <point x="165" y="378"/>
      <point x="178" y="378"/>
      <point x="192" y="379" type="curve" smooth="yes"/>
      <point x="213" y="381"/>
      <point x="229" y="385"/>
      <point x="248" y="374" type="curve" smooth="yes"/>
      <point x="271" y="360"/>
      <point x="290" y="346"/>
      <point x="301" y="320" type="curve" smooth="yes"/>
      <point x="304" y="313"/>
      <point x="314" y="309"/>
      <point x="324" y="308" type="curve"/>
      <point x="336" y="258" type="line"/>
      <point x="374" y="151" type="line" smooth="yes"/>
      <point x="389" y="108"/>
      <point x="409" y="67"/>
      <point x="435" y="30" type="curve" smooth="yes"/>
      <point x="438" y="26"/>
      <point x="434" y="11"/>
      <point x="429" y="11" type="curve" smooth="yes"/>
      <point x="407" y="9" type="line" smooth="yes"/>
      <point x="393" y="7"/>
      <point x="383" y="9"/>
      <point x="370" y="1" type="curve"/>
      <point x="354" y="9" type="line"/>
      <point x="348" y="3"/>
      <point x="331" y="0"/>
      <point x="325" y="9" type="curve" smooth="yes"/>
      <point x="281" y="79" type="line"/>
      <point x="269" y="36"/>
      <point x="240" y="8"/>
      <point x="198" y="1" type="curve"/>
    </contour>
    <contour>
      <point x="203" y="112" type="line"/>
      <point x="204" y="116"/>
      <point x="199" y="127"/>
      <point x="202" y="129" type="curve" smooth="yes"/>
      <point x="214" y="137" type="line"/>
      <point x="223" y="172" type="line"/>
      <point x="205" y="193"/>
      <point x="234" y="229"/>
      <point x="219" y="274" type="curve" smooth="yes"/>
      <point x="213" y="293"/>
      <point x="204" y="308"/>
      <point x="193" y="328" type="curve"/>
      <point x="165" y="290"/>
      <point x="133" y="191"/>
      <point x="135" y="153" type="curve" smooth="yes"/>
      <point x="136" y="110" type="line" smooth="yes"/>
      <point x="138" y="84"/>
      <point x="140" y="57"/>
      <point x="160" y="37" type="curve"/>
      <point x="180" y="60"/>
      <point x="197" y="87"/>
      <point x="203" y="112" type="curve"/>
    </contour>
  </outline>
</glyph>
<glyph name="b" format="2">
  <advance width="481.78446232975034"/>
  <unicode hex="0062"/>
  <outline>
    <contour>
      <point x="384" y="333" type="line"/>
      <point x="425" y="284"/>
      <point x="466" y="216"/>
      <point x="447" y="159" type="curve" smooth="yes"/>
      <point x="439" y="134"/>
      <point x="431" y="109"/>
      <point x="413" y="92" type="curve" smooth="yes"/>
      <point x="381" y="56"/>
      <point x="342" y="24"/>
      <point x="297" y="4" type="curve" smooth="yes"/>
      <point x="272" y="-5"/>
      <point x="241" y="-6"/>
      <point x="215" y="-11" type="curve" smooth="yes"/>
      <point x="199" y="-15"/>
      <point x="184" y="-14"/>
      <point x="172" y="-5" type="curve" smooth="yes"/>
      <point x="154" y="11"/>
      <point x="132" y="10"/>
      <point x="113" y="1" type="curve"/>
      <point x="83" y="-2" type="line"/>
      <point x="65" y="4"/>
      <point x="62" y="25"/>
      <point x="62" y="43" type="curve" smooth="yes"/>
      <point x="61" y="527" type="line"/>
      <point x="59" y="568" type="line"/>
      <point x="56" y="623" type="line"/>
      <point x="50" y="744" type="line"/>
      <point x="69" y="746"/>
      <point x="81" y="749"/>
      <point x="93" y="758" type="curve"/>
      <point x="101" y="750" type="line" smooth="yes"/>
      <point x="103" y="748"/>
      <point x="110" y="752"/>
      <point x="112" y="753" type="curve" smooth="yes"/>
      <point x="134" y="759" type="line"/>
      <point x="143" y="711" type="line"/>
      <point x="150" y="722" type="line"/>
      <point x="154" y="645" type="line"/>
      <point x="161" y="665" type="line"/>
      <point x="169" y="583" type="line"/>
      <point x="176" y="460" type="line"/>
      <point x="181" y="369" type="line"/>
      <point x="209" y="388"/>
      <point x="238" y="380"/>
      <point x="267" y="380" type="curve" smooth="yes"/>
      <point x="313" y="381"/>
      <point x="353" y="369"/>
      <point x="384" y="332" type="curve"/>
    </contour>
    <contour>
      <point x="326" y="127" type="line"/>
      <point x="341" y="151"/>
      <point x="354" y="178"/>
      <point x="346" y="206" type="curve" smooth="yes"/>
      <point x="332" y="254"/>
      <point x="303" y="317"/>
      <point x="259" y="338" type="curve"/>
      <point x="203" y="321"/>
      <point x="181" y="273"/>
      <point x="181" y="218" type="curve" smooth="yes"/>
      <point x="182" y="174" type="line"/>
      <point x="185" y="80" type="line" smooth="yes"/>
      <point x="186" y="76"/>
      <point x="195" y="66"/>
      <point x="197" y="69" type="curve" smooth="yes"/>
      <point x="204" y="81" type="line" smooth="yes"/>
      <point x="206" y="84"/>
      <point x="216" y="86"/>
      <point x="218" y="83" type="curve" smooth="yes"/>
      <point x="225" y="72" type="line" smooth="yes"/>
      <point x="229" y="67"/>
      <point x="235" y="58"/>
      <point x="240" y="58" type="curve" smooth="yes"/>
      <point x="252" y="57"/>
      <point x="308" y="99"/>
      <point x="326" y="127" type="curve"/>
    </contour>
  </outline>
</glyph>
<glyph name="c" format="2">
  <advance width="355.30852239851816"/>
  <unicode hex="0063"/>
  <outline>
    <contour>
      <point x="312.30852239851816" y="58" type="line"/>
      <point x="321.30852239851816" y="60" type="line" smooth="yes"/>
      <point x="323.30852239851816" y="61"/>
      <point x="322.30852239851816" y="54"/>
      <point x="322.30852239851816" y="53" type="curve"/>
      <point x="335.30852239851816" y="60" type="line"/>
      <point x="335.30852239851816" y="24"/>
      <point x="278.30852239851816" y="-1"/>
      <point x="240.30852239851816" y="-7" type="curve" smooth="yes"/>
      <point x="210.30852239851816" y="-10" type="line" smooth="yes"/>
      <point x="187.30852239851816" y="-14"/>
      <point x="164.30852239851816" y="-14"/>
      <point x="142.30852239851816" y="-7" type="curve"/>
      <point x="105.30852239851816" y="-4"/>
      <point x="75.30852239851816" y="16"/>
      <point x="60.308522398518164" y="53" type="curve" smooth="yes"/>
      <point x="36.308522398518164" y="107" type="line" smooth="yes"/>
      <point x="26.308522398518164" y="132"/>
      <point x="18.308522398518164" y="154"/>
      <point x="20.308522398518164" y="182" type="curve" smooth="yes"/>
      <point x="24.308522398518164" y="228"/>
      <point x="28.308522398518164" y="274"/>
      <point x="45.308522398518164" y="319" type="curve" smooth="yes"/>
      <point x="54.308522398518164" y="339"/>
      <point x="74.30852239851816" y="359"/>
      <point x="92.30852239851816" y="370" type="curve" smooth="yes"/>
      <point x="112.30852239851816" y="383"/>
      <point x="138.30852239851816" y="378"/>
      <point x="160.30852239851816" y="381" type="curve" smooth="yes"/>
      <point x="182.30852239851816" y="383"/>
      <point x="195.30852239851816" y="381"/>
      <point x="211.30852239851816" y="365" type="curve" smooth="yes"/>
      <point x="216.30852239851816" y="360"/>
      <point x="225.30852239851816" y="353"/>
      <point x="227.30852239851816" y="348" type="curve" smooth="yes"/>
      <point x="230.30852239851816" y="342"/>
      <point x="227.30852239851816" y="326"/>
      <point x="224.30852239851816" y="323" type="curve"/>
      <point x="203.30852239851816" y="333" type="line"/>
      <point x="201.30852239851816" y="327"/>
      <point x="197.30852239851816" y="318"/>
      <point x="195.30852239851816" y="319" type="curve" smooth="yes"/>
      <point x="183.30852239851816" y="325" type="line"/>
      <point x="168.30852239851816" y="320" type="line" smooth="yes"/>
      <point x="165.30852239851816" y="318"/>
      <point x="160.30852239851816" y="323"/>
      <point x="152.30852239851816" y="327" type="curve"/>
      <point x="127.30852239851816" y="291"/>
      <point x="118.30852239851816" y="214"/>
      <point x="123.30852239851816" y="167" type="curve" smooth="yes"/>
      <point x="125.30852239851816" y="138"/>
      <point x="140.30852239851816" y="113"/>
      <point x="151.30852239851816" y="86" type="curve" smooth="yes"/>
      <point x="165.30852239851816" y="53"/>
      <point x="197.30852239851816" y="38"/>
      <point x="233.30852239851816" y="49" type="curve" smooth="yes"/>
      <point x="246.30852239851816" y="53"/>
      <point x="258.30852239851816" y="63"/>
      <point x="271.30852239851816" y="72" type="curve"/>
      <point x="309.30852239851816" y="78" type="line"/>
      <point x="312.30852239851816" y="58" type="line"/>
    </contour>
    <contour>
      <point x="61.308522398518164" y="73" type="curve"/>
      <point x="55.308522398518164" y="95"/>
      <point x="50.308522398518164" y="108"/>
      <point x="41.308522398518164" y="123" type="curve"/>
      <point x="41.308522398518164" y="102"/>
      <point x="51.308522398518164" y="86"/>
    </contour>
  </outline>
</glyph>
<glyph name="d" format="2">
  <advance width="438.272239683317"/>
  <unicode hex="0064"/>
  <outline>
    <contour>
      <point x="357.57182318334196" y="126" type="line"/>
      <point x="357.57182318334196" y="120"/>
      <point x="365.57182318334196" y="108"/>
      <point x="369.57182318334196" y="109" type="curve" smooth="yes"/>
      <point x="387.57182318334196" y="117" type="line"/>
      <point x="391.57182318334196" y="98"/>
      <point x="377.57182318334196" y="83"/>
      <point x="367.57182318334196" y="67" type="curve" smooth="yes"/>
      <point x="352.57182318334196" y="44" type="line"/>
      <point x="316.57182318334196" y="20" type="line"/>
      <point x="262.57182318334196" y="-1"/>
      <point x="205.57182318334196" y="-9"/>
      <point x="147.57182318334196" y="-10" type="curve"/>
      <point x="84.57182318334196" y="13"/>
      <point x="40.57182318334196" y="64"/>
      <point x="29.571823183341962" y="129" type="curve"/>
      <point x="13.571823183341962" y="163"/>
      <point x="21.571823183341962" y="200"/>
      <point x="25.571823183341962" y="235" type="curve" smooth="yes"/>
      <point x="29.571823183341962" y="259" type="line"/>
      <point x="37.57182318334196" y="287" type="line"/>
      <point x="42.57182318334196" y="316"/>
      <point x="51.57182318334196" y="349"/>
      <point x="81.57182318334196" y="360" type="curve" smooth="yes"/>
      <point x="133.57182318334196" y="379"/>
      <point x="188.57182318334196" y="378"/>
      <point x="242.57182318334196" y="372" type="curve"/>
      <point x="249.57182318334196" y="416" type="line"/>
      <point x="258.57182318334196" y="521"/>
      <point x="259.57182318334196" y="624"/>
      <point x="261.57182318334196" y="730" type="curve" smooth="yes"/>
      <point x="261.57182318334196" y="735"/>
      <point x="265.57182318334196" y="748"/>
      <point x="269.57182318334196" y="748" type="curve" smooth="yes"/>
      <point x="289.57182318334196" y="748" type="line"/>
      <point x="300.57182318334196" y="752" type="line" smooth="yes"/>
      <point x="303.57182318334196" y="753"/>
      <point x="310.57182318334196" y="749"/>
      <point x="314.57182318334196" y="747" type="curve"/>
      <point x="322.57182318334196" y="748"/>
      <point x="344.57182318334196" y="749"/>
      <point x="345.57182318334196" y="741" type="curve" smooth="yes"/>
      <point x="350.57182318334196" y="693" type="line"/>
      <point x="351.57182318334196" y="692"/>
      <point x="354.57182318334196" y="690"/>
      <point x="353.57182318334196" y="691" type="curve"/>
      <point x="359.57182318334196" y="712" type="line"/>
      <point x="363.57182318334196" y="632" type="line"/>
      <point x="361.57182318334196" y="582" type="line"/>
      <point x="361.57182318334196" y="546" type="line"/>
      <point x="361.57182318334196" y="546"/>
      <point x="362.57182318334196" y="515"/>
      <point x="362.57182318334196" y="515" type="curve"/>
      <point x="360.57182318334196" y="402" type="line"/>
      <point x="355.57182318334196" y="343" type="line" smooth="yes"/>
      <point x="354.57182318334196" y="339"/>
      <point x="346.57182318334196" y="333"/>
      <point x="347.57182318334196" y="330" type="curve" smooth="yes"/>
      <point x="354.57182318334196" y="318" type="line" smooth="yes"/>
      <point x="361.57182318334196" y="307"/>
      <point x="353.57182318334196" y="281"/>
      <point x="353.57182318334196" y="266" type="curve" smooth="yes"/>
      <point x="353.57182318334196" y="186" type="line"/>
      <point x="357.57182318334196" y="126" type="line"/>
    </contour>
    <contour>
      <point x="243.57182318334196" y="64" type="line"/>
      <point x="237.57182318334196" y="184" type="line"/>
      <point x="236.57182318334196" y="285" type="line"/>
      <point x="227.57182318334196" y="318"/>
      <point x="196.57182318334196" y="341"/>
      <point x="165.57182318334196" y="332" type="curve"/>
      <point x="130.57182318334196" y="248"/>
      <point x="122.57182318334196" y="157"/>
      <point x="170.57182318334196" y="80" type="curve" smooth="yes"/>
      <point x="175.57182318334196" y="73"/>
      <point x="192.57182318334196" y="60"/>
      <point x="200.57182318334196" y="57" type="curve"/>
      <point x="213.57182318334196" y="53"/>
      <point x="229.57182318334196" y="59"/>
      <point x="243.57182318334196" y="64" type="curve"/>
    </contour>
  </outline>
</glyph>
<glyph name="e" format="2">
  <advance width="365"/>
  <unicode hex="0065"/>
  <outline>
    <contour>
      <point x="285" y="68" type="line"/>
      <point x="301" y="74"/>
      <point x="329" y="62"/>
      <point x="345" y="47" type="curve"/>
      <point x="335" y="29"/>
      <point x="319" y="9"/>
      <point x="301" y="-3" type="curve"/>
      <point x="265" y="-9"/>
      <point x="225" y="-17"/>
      <point x="188" y="-11" type="curve"/>
      <point x="93" y="16" type="line" smooth="yes"/>
      <point x="53" y="27"/>
      <point x="30" y="93"/>
      <point x="30" y="146" type="curve" smooth="yes"/>
      <point x="30" y="191"/>
      <point x="34" y="234"/>
      <point x="47" y="276" type="curve" smooth="yes"/>
      <point x="62" y="328"/>
      <point x="107" y="365"/>
      <point x="161" y="377" type="curve"/>
      <point x="217" y="381" type="line" smooth="yes"/>
      <point x="237" y="383"/>
      <point x="250" y="377"/>
      <point x="267" y="364" type="curve" smooth="yes"/>
      <point x="278" y="355"/>
      <point x="288" y="346"/>
      <point x="294" y="329" type="curve" smooth="yes"/>
      <point x="305" y="299" type="line"/>
      <point x="294" y="267"/>
      <point x="275" y="239"/>
      <point x="248" y="216" type="curve" smooth="yes"/>
      <point x="212" y="180" type="line" smooth="yes"/>
      <point x="193" y="161"/>
      <point x="169" y="157"/>
      <point x="138" y="159" type="curve"/>
      <point x="138" y="125"/>
      <point x="142" y="93"/>
      <point x="161" y="64" type="curve" smooth="yes"/>
      <point x="170" y="49"/>
      <point x="195" y="35"/>
      <point x="213" y="38" type="curve" smooth="yes"/>
      <point x="239" y="41"/>
      <point x="261" y="57"/>
      <point x="285" y="68" type="curve"/>
    </contour>
    <contour>
      <point x="136" y="214" type="line"/>
      <point x="174" y="253"/>
      <point x="213" y="290"/>
      <point x="195" y="339" type="curve"/>
      <point x="170" y="328"/>
      <point x="161" y="305"/>
      <point x="149" y="284" type="curve" smooth="yes"/>
      <point x="142" y="259" type="line"/>
      <point x="136" y="214" type="line"/>
    </contour>
  </outline>
</glyph>
<glyph name="f" format="2">
  <advance width="416"/>
  <unicode hex="0066"/>
  <outline>
    <contour>
      <point x="262" y="165" type="line"/>
      <point x="261" y="148"/>
      <point x="265" y="133"/>
      <point x="268" y="116" type="curve" smooth="yes"/>
      <point x="273" y="95"/>
      <point x="274" y="69"/>
      <point x="282" y="50" type="curve" smooth="yes"/>
      <point x="289" y="36"/>
      <point x="294" y="30"/>
      <point x="294" y="12" type="curve"/>
      <point x="267" y="2" type="line"/>
      <point x="253" y="4"/>
      <point x="246" y="3"/>
      <point x="234" y="-1" type="curve"/>
      <point x="206" y="-3" type="line" smooth="yes"/>
      <point x="198" y="-4"/>
      <point x="189" y="12"/>
      <point x="188" y="21" type="curve" smooth="yes"/>
      <point x="146" y="269" type="line"/>
      <point x="138" y="321" type="line"/>
      <point x="38" y="328" type="line"/>
      <point x="30" y="352" type="line"/>
      <point x="63" y="360" type="line" smooth="yes"/>
      <point x="72" y="363"/>
      <point x="89" y="366"/>
      <point x="101" y="365" type="curve" smooth="yes"/>
      <point x="133" y="363" type="line"/>
      <point x="127" y="455"/>
      <point x="124" y="544"/>
      <point x="132" y="635" type="curve"/>
      <point x="143" y="677" type="line"/>
      <point x="146" y="670"/>
      <point x="147" y="670"/>
      <point x="148" y="674" type="curve"/>
      <point x="150" y="678"/>
      <point x="152" y="682"/>
      <point x="152" y="682" type="curve"/>
      <point x="152" y="682"/>
      <point x="148" y="683"/>
      <point x="145" y="683" type="curve"/>
      <point x="161" y="733"/>
      <point x="205" y="776"/>
      <point x="261" y="781" type="curve"/>
      <point x="342" y="775" type="line" smooth="yes"/>
      <point x="345" y="775"/>
      <point x="353" y="770"/>
      <point x="355" y="768" type="curve" smooth="yes"/>
      <point x="358" y="765"/>
      <point x="358" y="752"/>
      <point x="354" y="750" type="curve" smooth="yes"/>
      <point x="344" y="744"/>
      <point x="323" y="746"/>
      <point x="313" y="748" type="curve" smooth="yes"/>
      <point x="260" y="757"/>
      <point x="226" y="722"/>
      <point x="221" y="674" type="curve" smooth="yes"/>
      <point x="214" y="627"/>
      <point x="206" y="583"/>
      <point x="209" y="535" type="curve" smooth="yes"/>
      <point x="212" y="482" type="line"/>
      <point x="215" y="533" type="line"/>
      <point x="218" y="536" type="line"/>
      <point x="222" y="416" type="line"/>
      <point x="224" y="413" type="line"/>
      <point x="228" y="438" type="line"/>
      <point x="231" y="416"/>
      <point x="229" y="399"/>
      <point x="224" y="370" type="curve"/>
      <point x="313" y="388" type="line"/>
      <point x="346" y="382" type="line"/>
      <point x="358" y="373"/>
      <point x="367" y="373"/>
      <point x="386" y="372" type="curve"/>
      <point x="370" y="351"/>
      <point x="343" y="340"/>
      <point x="317" y="337" type="curve" smooth="yes"/>
      <point x="241" y="326" type="line"/>
      <point x="241" y="264" type="line"/>
      <point x="252" y="209" type="line" smooth="yes"/>
      <point x="255" y="193"/>
      <point x="263" y="182"/>
      <point x="262" y="165" type="curve"/>
    </contour>
  </outline>
</glyph>
<glyph name="g" format="2">
  <advance width="474.75"/>
  <unicode hex="0067"/>
  <outline>
    <contour>
      <point x="250.75" y="-371" type="line"/>
      <point x="312.75" y="-365"/>
      <point x="364.75" y="-339"/>
      <point x="360.75" y="-278" type="curve" smooth="yes"/>
      <point x="353.75" y="-206"/>
      <point x="341.75" y="-133"/>
      <point x="314.75" y="-66" type="curve" smooth="yes"/>
      <point x="270.75" y="49" type="line"/>
      <point x="254.75" y="33"/>
      <point x="239.75" y="14"/>
      <point x="220.75" y="10" type="curve" smooth="yes"/>
      <point x="164.75" y="-1" type="line" smooth="yes"/>
      <point x="130.75" y="-10"/>
      <point x="94.75" y="-14"/>
      <point x="63.75" y="8" type="curve" smooth="yes"/>
      <point x="28.75" y="32"/>
      <point x="14.75" y="115"/>
      <point x="21.75" y="155" type="curve"/>
      <point x="32.75" y="188" type="line"/>
      <point x="37.75" y="217"/>
      <point x="45.75" y="244"/>
      <point x="56.75" y="273" type="curve" smooth="yes"/>
      <point x="64.75" y="293"/>
      <point x="82.75" y="311"/>
      <point x="95.75" y="327" type="curve" smooth="yes"/>
      <point x="116.75" y="353" type="line" smooth="yes"/>
      <point x="124.75" y="365"/>
      <point x="129.75" y="370"/>
      <point x="146.75" y="373" type="curve" smooth="yes"/>
      <point x="187.75" y="380" type="line" smooth="yes"/>
      <point x="220.75" y="386"/>
      <point x="249.75" y="372"/>
      <point x="277.75" y="356" type="curve"/>
      <point x="284.75" y="356"/>
      <point x="293.75" y="357"/>
      <point x="298.75" y="355" type="curve" smooth="yes"/>
      <point x="302.75" y="351"/>
      <point x="311.75" y="338"/>
      <point x="312.75" y="333" type="curve" smooth="yes"/>
      <point x="320.75" y="218" type="line"/>
      <point x="353.75" y="73" type="line"/>
      <point x="403.75" y="-51" type="line"/>
      <point x="431.75" y="-137" type="line"/>
      <point x="451.75" y="-247" type="line"/>
      <point x="454.75" y="-315" type="line" smooth="yes"/>
      <point x="454.75" y="-335"/>
      <point x="449.75" y="-361"/>
      <point x="435.75" y="-377" type="curve"/>
      <point x="386.75" y="-405"/>
      <point x="333.75" y="-424"/>
      <point x="276.75" y="-429" type="curve"/>
      <point x="237.75" y="-424" type="line" smooth="yes"/>
      <point x="217.75" y="-421"/>
      <point x="204.75" y="-412"/>
      <point x="204.75" y="-388" type="curve"/>
      <point x="217.75" y="-383"/>
      <point x="236.75" y="-372"/>
      <point x="250.75" y="-371" type="curve"/>
    </contour>
    <contour>
      <point x="150.75" y="59" type="line"/>
      <point x="187.75" y="108"/>
      <point x="211.75" y="159"/>
      <point x="220.75" y="218" type="curve"/>
      <point x="218.75" y="301" type="line" smooth="yes"/>
      <point x="218.75" y="318"/>
      <point x="215.75" y="326"/>
      <point x="200.75" y="333" type="curve" smooth="yes"/>
      <point x="192.75" y="337"/>
      <point x="177.75" y="331"/>
      <point x="169.75" y="321" type="curve" smooth="yes"/>
      <point x="148.75" y="292" type="line"/>
      <point x="150.75" y="278"/>
      <point x="150.75" y="266"/>
      <point x="147.75" y="251" type="curve" smooth="yes"/>
      <point x="134.75" y="188"/>
      <point x="120.75" y="115"/>
      <point x="150.75" y="59" type="curve"/>
    </contour>
  </outline>
</glyph>
<glyph name="h" format="2">
  <advance width="484.1306384189791"/>
  <unicode hex="0068"/>
  <outline>
    <contour>
      <point x="362.75" y="5" type="line"/>
      <point x="378.75" y="128"/>
      <point x="359.75" y="283"/>
      <point x="268.75" y="372" type="curve"/>
      <point x="224.75" y="353"/>
      <point x="188.75" y="286"/>
      <point x="194.75" y="243" type="curve"/>
      <point x="189.75" y="227"/>
      <point x="188.75" y="213"/>
      <point x="188.75" y="197" type="curve" smooth="yes"/>
      <point x="192.75" y="166" type="line"/>
      <point x="198.75" y="69" type="line"/>
      <point x="208.75" y="-10" type="line"/>
      <point x="193.75" y="-26"/>
      <point x="169.75" y="-17"/>
      <point x="152.75" y="-19" type="curve" smooth="yes"/>
      <point x="115.75" y="-23" type="line" smooth="yes"/>
      <point x="109.75" y="-25"/>
      <point x="97.75" y="-25"/>
      <point x="92.75" y="-20" type="curve" smooth="yes"/>
      <point x="88.75" y="-17"/>
      <point x="81.75" y="-4"/>
      <point x="80.75" y="3" type="curve" smooth="yes"/>
      <point x="66.75" y="274" type="line"/>
      <point x="53.75" y="478" type="line"/>
      <point x="54.75" y="511" type="line"/>
      <point x="41.75" y="676" type="line" smooth="yes"/>
      <point x="39.75" y="697"/>
      <point x="38.75" y="721"/>
      <point x="42.75" y="740" type="curve"/>
      <point x="58.75" y="739"/>
      <point x="64.75" y="740"/>
      <point x="75.75" y="748" type="curve"/>
      <point x="88.75" y="741" type="line"/>
      <point x="97.75" y="752"/>
      <point x="116.75" y="749"/>
      <point x="129.75" y="743" type="curve"/>
      <point x="147.75" y="747" type="line"/>
      <point x="161.75" y="562" type="line"/>
      <point x="176.75" y="398" type="line"/>
      <point x="236.75" y="430"/>
      <point x="323.75" y="423"/>
      <point x="366.75" y="376" type="curve" smooth="yes"/>
      <point x="443.75" y="289"/>
      <point x="465.75" y="185"/>
      <point x="462.75" y="71" type="curve" smooth="yes"/>
      <point x="461.75" y="39"/>
      <point x="470.75" y="4"/>
      <point x="452.75" y="-27" type="curve"/>
      <point x="416.75" y="-28" type="line" smooth="yes"/>
      <point x="405.75" y="-28"/>
      <point x="395.75" y="-28"/>
      <point x="386.75" y="-30" type="curve" smooth="yes"/>
      <point x="368.75" y="-33"/>
      <point x="359.75" y="-11"/>
      <point x="362.75" y="5" type="curve"/>
    </contour>
    <contour>
      <point x="61.75" y="625" type="line"/>
      <point x="64.75" y="633" type="line"/>
      <point x="63.75" y="660" type="line"/>
      <point x="60.75" y="658" type="line"/>
    </contour>
    <contour>
      <point x="71.75" y="553" type="curve"/>
      <point x="66.75" y="601" type="line"/>
      <point x="63.75" y="586"/>
      <point x="60.75" y="567"/>
    </contour>
  </outline>
</glyph>
<glyph name="i" format="2">
  <advance width="227.03638983406427"/>
  <unicode hex="0069"/>
  <outline>
    <contour>
      <point x="170.14663686710543" y="129" type="line"/>
      <point x="171.14663686710543" y="120" type="line" smooth="yes"/>
      <point x="171.14663686710543" y="119"/>
      <point x="168.14663686710543" y="119"/>
      <point x="162.14663686710543" y="119" type="curve"/>
      <point x="166.14663686710543" y="79" type="line" smooth="yes"/>
      <point x="168.14663686710543" y="60"/>
      <point x="165.14663686710543" y="40"/>
      <point x="173.14663686710543" y="21" type="curve" smooth="yes"/>
      <point x="176.14663686710543" y="14"/>
      <point x="180.14663686710543" y="7"/>
      <point x="173.14663686710543" y="-3" type="curve" smooth="yes"/>
      <point x="168.14663686710543" y="-11"/>
      <point x="148.14663686710543" y="-8"/>
      <point x="139.14663686710543" y="-9" type="curve" smooth="yes"/>
      <point x="119.14663686710543" y="-11" type="line"/>
      <point x="104.14663686710543" y="-12" type="line" smooth="yes"/>
      <point x="97.14663686710543" y="-12"/>
      <point x="88.14663686710543" y="9"/>
      <point x="87.14663686710543" y="30" type="curve" smooth="yes"/>
      <point x="84.14663686710543" y="130" type="line" smooth="yes"/>
      <point x="81.14663686710543" y="206"/>
      <point x="70.14663686710543" y="281"/>
      <point x="61.14663686710543" y="358" type="curve" smooth="yes"/>
      <point x="60.14663686710543" y="361"/>
      <point x="57.14663686710543" y="370"/>
      <point x="60.14663686710543" y="372" type="curve" smooth="yes"/>
      <point x="74.14663686710543" y="377" type="line"/>
      <point x="83.14663686710543" y="381"/>
      <point x="87.14663686710543" y="383"/>
      <point x="97.14663686710543" y="383" type="curve"/>
      <point x="111.14663686710543" y="386" type="line" smooth="yes"/>
      <point x="114.14663686710543" y="388"/>
      <point x="119.14663686710543" y="381"/>
      <point x="122.14663686710543" y="381" type="curve" smooth="yes"/>
      <point x="138.14663686710543" y="375" type="line"/>
      <point x="147.14663686710543" y="317" type="line"/>
      <point x="153.14663686710543" y="286" type="line" smooth="yes"/>
      <point x="154.14663686710543" y="280"/>
      <point x="154.14663686710543" y="274"/>
      <point x="151.14663686710543" y="266" type="curve"/>
      <point x="159.14663686710543" y="254"/>
      <point x="161.14663686710543" y="231"/>
      <point x="157.14663686710543" y="220" type="curve" smooth="yes"/>
      <point x="157.14663686710543" y="219"/>
      <point x="161.14663686710543" y="214"/>
      <point x="160.14663686710543" y="214" type="curve" smooth="yes"/>
      <point x="157.14663686710543" y="208" type="line"/>
      <point x="160.14663686710543" y="169" type="line"/>
      <point x="163.14663686710543" y="165"/>
      <point x="167.14663686710543" y="159"/>
      <point x="168.14663686710543" y="155" type="curve"/>
      <point x="160.14663686710543" y="163" type="line"/>
      <point x="165.14663686710543" y="122" type="line"/>
      <point x="170.14663686710543" y="129" type="line"/>
    </contour>
    <contour>
      <point x="122.14663686710543" y="439" type="line"/>
      <point x="79.14663686710543" y="429" type="line" smooth="yes"/>
      <point x="58.14663686710543" y="424"/>
      <point x="41.14663686710543" y="428"/>
      <point x="40.14663686710543" y="441" type="curve" smooth="yes"/>
      <point x="38.14663686710543" y="454"/>
      <point x="57.14663686710543" y="447"/>
      <point x="64.14663686710543" y="458" type="curve"/>
      <point x="83.14663686710543" y="447"/>
      <point x="90.14663686710543" y="471"/>
      <point x="109.14663686710543" y="452" type="curve"/>
      <point x="122.14663686710543" y="452" type="line" smooth="yes"/>
      <point x="124.14663686710543" y="451"/>
      <point x="125.14663686710543" y="440"/>
      <point x="122.14663686710543" y="439" type="curve"/>
    </contour>
  </outline>
</glyph>
<glyph name="j" format="2">
  <advance width="319.6982796786779"/>
  <unicode hex="006A"/>
  <outline>
    <contour>
      <point x="57.15891719125007" y="-206" type="line"/>
      <point x="15.158917191250065" y="-173"/>
      <point x="18.158917191250065" y="-122"/>
      <point x="22.158917191250065" y="-122" type="curve" smooth="yes"/>
      <point x="33.15891719125007" y="-124" type="line"/>
      <point x="29.158917191250065" y="-85" type="line"/>
      <point x="45.15891719125007" y="-93" type="line"/>
      <point x="47.15891719125007" y="-77" type="line"/>
      <point x="59.15891719125007" y="-99" type="line"/>
      <point x="63.15891719125007" y="-66" type="line"/>
      <point x="76.15891719125007" y="-77"/>
      <point x="89.15891719125007" y="-87"/>
      <point x="96.15891719125007" y="-97" type="curve" smooth="yes"/>
      <point x="124.15891719125007" y="-144" type="line" smooth="yes"/>
      <point x="129.15891719125005" y="-153"/>
      <point x="142.15891719125005" y="-167"/>
      <point x="154.15891719125005" y="-159" type="curve" smooth="yes"/>
      <point x="194.15891719125005" y="-126"/>
      <point x="175.15891719125005" y="8"/>
      <point x="166.15891719125005" y="76" type="curve" smooth="yes"/>
      <point x="137.15891719125005" y="276" type="line" smooth="yes"/>
      <point x="131.15891719125005" y="309"/>
      <point x="127.15891719125007" y="342"/>
      <point x="129.15891719125005" y="377" type="curve"/>
      <point x="159.15891719125005" y="381" type="line"/>
      <point x="177.15891719125005" y="383" type="line"/>
      <point x="210.15891719125005" y="383" type="line"/>
      <point x="216.15891719125005" y="374"/>
      <point x="224.15891719125005" y="368"/>
      <point x="231.15891719125005" y="362" type="curve"/>
      <point x="238.15891719125005" y="290" type="line"/>
      <point x="237.15891719125005" y="253"/>
      <point x="240.15891719125005" y="216"/>
      <point x="255.15891719125005" y="181" type="curve"/>
      <point x="255.15891719125005" y="150"/>
      <point x="255.15891719125005" y="117"/>
      <point x="261.15891719125005" y="86" type="curve" smooth="yes"/>
      <point x="277.15891719125005" y="2" type="line"/>
      <point x="279.15891719125005" y="-50" type="line" smooth="yes"/>
      <point x="282.15891719125005" y="-110"/>
      <point x="274.15891719125005" y="-186"/>
      <point x="216.15891719125005" y="-208" type="curve" smooth="yes"/>
      <point x="175.15891719125005" y="-223"/>
      <point x="129.15891719125005" y="-227"/>
      <point x="87.15891719125007" y="-223" type="curve" smooth="yes"/>
      <point x="74.15891719125007" y="-221"/>
      <point x="65.15891719125007" y="-214"/>
      <point x="57.15891719125007" y="-206" type="curve"/>
    </contour>
    <contour>
      <point x="127.15891719125007" y="496" type="line"/>
      <point x="115.15891719125007" y="494"/>
      <point x="105.15891719125007" y="506"/>
      <point x="103.15891719125007" y="521" type="curve"/>
      <point x="111.15891719125007" y="523"/>
      <point x="122.15891719125007" y="523"/>
      <point x="133.15891719125005" y="523" type="curve"/>
      <point x="140.15891719125005" y="535" type="line"/>
      <point x="152.15891719125005" y="523"/>
      <point x="166.15891719125005" y="523"/>
      <point x="179.15891719125005" y="537" type="curve"/>
      <point x="210.15891719125005" y="510" type="line"/>
      <point x="127.15891719125007" y="496" type="line"/>
    </contour>
  </outline>
</glyph>
<glyph name="k" format="2">
  <advance width="489.29575507653595"/>
  <unicode hex="006B"/>
  <outline>
    <contour>
      <point x="389.44" y="216" type="line"/>
      <point x="417.44" y="198"/>
      <point x="431.44" y="162"/>
      <point x="437.44" y="127" type="curve" smooth="yes"/>
      <point x="456.44" y="35" type="line"/>
      <point x="467.44" y="-27" type="line" smooth="yes"/>
      <point x="468.44" y="-33"/>
      <point x="470.44" y="-42"/>
      <point x="468.44" y="-47" type="curve" smooth="yes"/>
      <point x="465.44" y="-60"/>
      <point x="438.44" y="-48"/>
      <point x="431.44" y="-66" type="curve"/>
      <point x="423.44" y="-61"/>
      <point x="414.44" y="-62"/>
      <point x="400.44" y="-65" type="curve"/>
      <point x="392.44" y="-58"/>
      <point x="388.44" y="-41"/>
      <point x="385.44" y="-28" type="curve" smooth="yes"/>
      <point x="347.44" y="147" type="line" smooth="yes"/>
      <point x="345.44" y="161"/>
      <point x="337.44" y="173"/>
      <point x="328.44" y="186" type="curve"/>
      <point x="227.44" y="154" type="line"/>
      <point x="196.44" y="131" type="line" smooth="yes"/>
      <point x="185.44" y="123"/>
      <point x="178.44" y="123"/>
      <point x="161.44" y="126" type="curve"/>
      <point x="170.44" y="-10" type="line"/>
      <point x="158.44" y="-15"/>
      <point x="145.44" y="-21"/>
      <point x="135.44" y="-21" type="curve" smooth="yes"/>
      <point x="73.44" y="-22" type="line"/>
      <point x="59.44" y="-6"/>
      <point x="64.44" y="12"/>
      <point x="63.44" y="30" type="curve" smooth="yes"/>
      <point x="55.44" y="136"/>
      <point x="46.44" y="239"/>
      <point x="51.44" y="345" type="curve" smooth="yes"/>
      <point x="52.44" y="552" type="line"/>
      <point x="53.44" y="591" type="line"/>
      <point x="54.44" y="656" type="line"/>
      <point x="55.44" y="699" type="line"/>
      <point x="61.44" y="759" type="line"/>
      <point x="77.44" y="752" type="line"/>
      <point x="87.44" y="761" type="line" smooth="yes"/>
      <point x="89.44" y="764"/>
      <point x="97.44" y="758"/>
      <point x="100.44" y="754" type="curve"/>
      <point x="119.44" y="769"/>
      <point x="124.44" y="745"/>
      <point x="149.44" y="748" type="curve"/>
      <point x="148.44" y="641" type="line"/>
      <point x="152.44" y="414" type="line"/>
      <point x="152.44" y="363" type="line"/>
      <point x="153.44" y="282" type="line" smooth="yes"/>
      <point x="153.44" y="281"/>
      <point x="163.44" y="282"/>
      <point x="163.44" y="283" type="curve" smooth="yes"/>
      <point x="162.44" y="291" type="line"/>
      <point x="213.44" y="385" type="line" smooth="yes"/>
      <point x="236.44" y="429"/>
      <point x="241.44" y="476"/>
      <point x="255.44" y="525" type="curve"/>
      <point x="293.44" y="517" type="line" smooth="yes"/>
      <point x="300.44" y="516"/>
      <point x="309.44" y="516"/>
      <point x="319.44" y="517" type="curve" smooth="yes"/>
      <point x="339.44" y="518"/>
      <point x="331.44" y="498"/>
      <point x="348.44" y="487" type="curve"/>
      <point x="331.44" y="427" type="line" smooth="yes"/>
      <point x="323.44" y="396"/>
      <point x="313.44" y="366"/>
      <point x="297.44" y="339" type="curve" smooth="yes"/>
      <point x="260.44" y="268" type="line"/>
      <point x="237.44" y="219" type="line"/>
      <point x="261.44" y="226" type="line" smooth="yes"/>
      <point x="305.44" y="239"/>
      <point x="353.44" y="241"/>
      <point x="389.44" y="216" type="curve"/>
    </contour>
  </outline>
</glyph>
<glyph name="l" format="2">
  <advance width="253.26012958872604"/>
  <unicode hex="006C"/>
  <outline>
    <contour>
      <point x="179.26012958872607" y="86" type="line"/>
      <point x="200.26012958872607" y="25" type="line" smooth="yes"/>
      <point x="201.26012958872607" y="20"/>
      <point x="203.26012958872607" y="9"/>
      <point x="203.26012958872607" y="5" type="curve"/>
      <point x="173.26012958872607" y="-8" type="line"/>
      <point x="152.26012958872607" y="-9" type="line"/>
      <point x="104.26012958872607" y="-14" type="line"/>
      <point x="63.26012958872607" y="57"/>
      <point x="52.26012958872607" y="172"/>
      <point x="50.26012958872607" y="256" type="curve" smooth="yes"/>
      <point x="50.26012958872607" y="307" type="line" smooth="yes"/>
      <point x="49.26012958872607" y="315"/>
      <point x="51.26012958872607" y="323"/>
      <point x="54.26012958872607" y="333" type="curve"/>
      <point x="53.26012958872607" y="371" type="line"/>
      <point x="53.26012958872607" y="457" type="line"/>
      <point x="54.26012958872607" y="482" type="line"/>
      <point x="54.26012958872607" y="537" type="line"/>
      <point x="53.26012958872607" y="664" type="line"/>
      <point x="56.26012958872607" y="743" type="line" smooth="yes"/>
      <point x="56.26012958872607" y="770"/>
      <point x="75.26012958872607" y="752"/>
      <point x="90.26012958872607" y="771" type="curve"/>
      <point x="103.26012958872607" y="760" type="line"/>
      <point x="111.26012958872607" y="771" type="line"/>
      <point x="133.26012958872607" y="759" type="line"/>
      <point x="138.26012958872607" y="690" type="line"/>
      <point x="141.26012958872607" y="688" type="line"/>
      <point x="142.26012958872607" y="730" type="line"/>
      <point x="146.26012958872607" y="719"/>
      <point x="152.26012958872607" y="704"/>
      <point x="152.26012958872607" y="692" type="curve" smooth="yes"/>
      <point x="154.26012958872607" y="584" type="line"/>
      <point x="156.26012958872607" y="547" type="line"/>
      <point x="159.26012958872607" y="521" type="line" smooth="yes"/>
      <point x="161.26012958872607" y="501"/>
      <point x="160.26012958872607" y="481"/>
      <point x="155.26012958872607" y="463" type="curve"/>
      <point x="157.26012958872607" y="457"/>
      <point x="160.26012958872607" y="444"/>
      <point x="160.26012958872607" y="437" type="curve" smooth="yes"/>
      <point x="158.26012958872607" y="381" type="line"/>
      <point x="158.26012958872607" y="310" type="line"/>
      <point x="162.26012958872607" y="273" type="line"/>
      <point x="165.26012958872607" y="175" type="line"/>
      <point x="179.26012958872607" y="86" type="line"/>
    </contour>
  </outline>
</glyph>
<glyph name="m" format="2">
  <advance width="682.1238752391389"/>
  <unicode hex="006D"/>
  <outline>
    <contour>
      <point x="561.0260974613611" y="-12" type="line"/>
      <point x="543.0260974613611" y="107"/>
      <point x="570.0260974613611" y="243"/>
      <point x="513.0260974613611" y="322" type="curve" smooth="yes"/>
      <point x="479.0260974613611" y="371"/>
      <point x="386.0260974613611" y="253"/>
      <point x="393.0260974613611" y="132" type="curve"/>
      <point x="397.0260974613611" y="101" type="line"/>
      <point x="408.0260974613611" y="64" type="line"/>
      <point x="399.0260974613611" y="55"/>
      <point x="383.0260974613611" y="50"/>
      <point x="369.0260974613611" y="48" type="curve" smooth="yes"/>
      <point x="328.0260974613611" y="44" type="line" smooth="yes"/>
      <point x="322.0260974613611" y="43"/>
      <point x="311.0260974613611" y="39"/>
      <point x="304.0260974613611" y="46" type="curve" smooth="yes"/>
      <point x="291.0260974613611" y="61"/>
      <point x="294.0260974613611" y="78"/>
      <point x="292.0260974613611" y="96" type="curve" smooth="yes"/>
      <point x="284.0260974613611" y="177"/>
      <point x="265.0260974613611" y="250"/>
      <point x="240.02609746136108" y="328" type="curve"/>
      <point x="224.02609746136108" y="290" type="line" smooth="yes"/>
      <point x="204.02609746136108" y="241"/>
      <point x="191.02609746136108" y="188"/>
      <point x="194.02609746136108" y="137" type="curve"/>
      <point x="203.02609746136108" y="153"/>
      <point x="189.02609746136108" y="175"/>
      <point x="211.02609746136108" y="185" type="curve"/>
      <point x="203.02609746136108" y="105" type="line"/>
      <point x="195.02609746136108" y="8" type="line"/>
      <point x="187.02609746136108" y="-2"/>
      <point x="170.02609746136108" y="-7"/>
      <point x="158.02609746136108" y="-10" type="curve" smooth="yes"/>
      <point x="103.02609746136108" y="-26" type="line"/>
      <point x="93.02609746136108" y="-26"/>
      <point x="85.02609746136108" y="-3"/>
      <point x="83.02609746136108" y="5" type="curve" smooth="yes"/>
      <point x="57.026097461361076" y="171" type="line"/>
      <point x="57.026097461361076" y="205" type="line"/>
      <point x="51.026097461361076" y="237"/>
      <point x="46.026097461361076" y="269"/>
      <point x="49.026097461361076" y="301" type="curve"/>
      <point x="44.026097461361076" y="316"/>
      <point x="43.026097461361076" y="331"/>
      <point x="43.026097461361076" y="347" type="curve"/>
      <point x="40.026097461361076" y="394" type="line" smooth="yes"/>
      <point x="39.026097461361076" y="412"/>
      <point x="67.02609746136108" y="397"/>
      <point x="79.02609746136108" y="415" type="curve"/>
      <point x="99.02609746136108" y="398" type="line"/>
      <point x="105.02609746136108" y="313" type="line"/>
      <point x="109.02609746136108" y="314" type="line"/>
      <point x="109.02609746136108" y="375" type="line"/>
      <point x="109.02609746136108" y="375"/>
      <point x="135.02609746136108" y="256"/>
      <point x="135.02609746136108" y="256" type="curve"/>
      <point x="137.02609746136108" y="270"/>
      <point x="137.02609746136108" y="282"/>
      <point x="142.02609746136108" y="292" type="curve" smooth="yes"/>
      <point x="156.02609746136108" y="320" type="line"/>
      <point x="193.02609746136108" y="383" type="line" smooth="yes"/>
      <point x="202.02609746136108" y="398"/>
      <point x="214.02609746136108" y="406"/>
      <point x="230.02609746136108" y="404" type="curve" smooth="yes"/>
      <point x="233.02609746136108" y="403"/>
      <point x="242.02609746136108" y="410"/>
      <point x="244.02609746136108" y="408" type="curve" smooth="yes"/>
      <point x="257.0260974613611" y="401" type="line"/>
      <point x="291.0260974613611" y="407" type="line"/>
      <point x="300.0260974613611" y="394"/>
      <point x="308.0260974613611" y="381"/>
      <point x="313.0260974613611" y="365" type="curve" smooth="yes"/>
      <point x="345.0260974613611" y="278" type="line"/>
      <point x="349.0260974613611" y="288" type="line" smooth="yes"/>
      <point x="349.0260974613611" y="290"/>
      <point x="352.0260974613611" y="290"/>
      <point x="355.0260974613611" y="290" type="curve"/>
      <point x="391.0260974613611" y="333" type="line" smooth="yes"/>
      <point x="403.0260974613611" y="347"/>
      <point x="430.0260974613611" y="360"/>
      <point x="445.0260974613611" y="369" type="curve"/>
      <point x="460.0260974613611" y="367" type="line" smooth="yes"/>
      <point x="463.0260974613611" y="367"/>
      <point x="464.0260974613611" y="374"/>
      <point x="465.0260974613611" y="377" type="curve"/>
      <point x="525.0260974613611" y="368" type="line" smooth="yes"/>
      <point x="561.0260974613611" y="363"/>
      <point x="591.0260974613611" y="349"/>
      <point x="607.0260974613611" y="314" type="curve" smooth="yes"/>
      <point x="620.0260974613611" y="287"/>
      <point x="630.0260974613611" y="256"/>
      <point x="632.0260974613611" y="224" type="curve" smooth="yes"/>
      <point x="640.0260974613611" y="126" type="line"/>
      <point x="642.0260974613611" y="76" type="line"/>
      <point x="644.0260974613611" y="45" type="line"/>
      <point x="652.0260974613611" y="-10" type="line" smooth="yes"/>
      <point x="653.0260974613611" y="-14"/>
      <point x="646.0260974613611" y="-27"/>
      <point x="646.0260974613611" y="-26" type="curve"/>
      <point x="622.0260974613611" y="-29" type="line" smooth="yes"/>
      <point x="614.0260974613611" y="-30"/>
      <point x="608.0260974613611" y="-31"/>
      <point x="601.0260974613611" y="-24" type="curve"/>
      <point x="579.0260974613611" y="-37" type="line"/>
      <point x="572.0260974613611" y="-32"/>
      <point x="562.0260974613611" y="-23"/>
      <point x="561.0260974613611" y="-12" type="curve"/>
    </contour>
    <contour>
      <point x="101.02609746136108" y="204" type="line"/>
      <point x="104.02609746136108" y="206" type="line"/>
      <point x="103.02609746136108" y="227" type="line"/>
      <point x="99.02609746136108" y="225" type="line"/>
      <point x="101.02609746136108" y="204" type="line"/>
    </contour>
    <contour>
      <point x="330.0260974613611" y="346" type="curve"/>
      <point x="327.0260974613611" y="353"/>
      <point x="325.0260974613611" y="359"/>
      <point x="324.0260974613611" y="365" type="curve"/>
      <point x="328.0260974613611" y="360"/>
      <point x="330.0260974613611" y="357"/>
    </contour>
    <contour>
      <point x="217.02609746136108" y="222" type="line"/>
      <point x="220.02609746136108" y="218"/>
      <point x="215.02609746136108" y="224"/>
      <point x="213.02609746136108" y="228" type="curve" smooth="yes"/>
      <point x="211.02609746136108" y="230"/>
      <point x="219.02609746136108" y="235"/>
      <point x="223.02609746136108" y="235" type="curve"/>
    </contour>
    <contour>
      <point x="101.02609746136108" y="204" type="line"/>
      <point x="99.02609746136108" y="225" type="line"/>
      <point x="103.02609746136108" y="227" type="line"/>
      <point x="104.02609746136108" y="206" type="line"/>
    </contour>
  </outline>
</glyph>
<glyph name="n" format="2">
  <advance width="466"/>
  <unicode hex="006E"/>
  <outline>
    <contour>
      <point x="343" y="14" type="line"/>
      <point x="334" y="116"/>
      <point x="328" y="228"/>
      <point x="259" y="306" type="curve" smooth="yes"/>
      <point x="250" y="318"/>
      <point x="239" y="326"/>
      <point x="225" y="333" type="curve"/>
      <point x="199" y="299"/>
      <point x="185" y="264"/>
      <point x="184" y="223" type="curve" smooth="yes"/>
      <point x="177" y="68" type="line"/>
      <point x="187" y="-55" type="line" smooth="yes"/>
      <point x="188" y="-67"/>
      <point x="187" y="-79"/>
      <point x="184" y="-89" type="curve"/>
      <point x="146" y="-92"/>
      <point x="114" y="-92"/>
      <point x="75" y="-89" type="curve"/>
      <point x="58" y="73" type="line"/>
      <point x="62" y="81"/>
      <point x="61" y="88"/>
      <point x="60" y="97" type="curve" smooth="yes"/>
      <point x="48" y="262" type="line"/>
      <point x="40" y="367" type="line"/>
      <point x="71" y="384" type="line"/>
      <point x="98" y="379"/>
      <point x="99" y="401"/>
      <point x="128" y="383" type="curve" smooth="yes"/>
      <point x="131" y="381"/>
      <point x="138" y="382"/>
      <point x="141" y="381" type="curve" smooth="yes"/>
      <point x="144" y="381"/>
      <point x="144" y="373"/>
      <point x="145" y="365" type="curve"/>
      <point x="207" y="381"/>
      <point x="259" y="388"/>
      <point x="317" y="359" type="curve"/>
      <point x="352" y="326" type="line"/>
      <point x="409" y="235" type="line" smooth="yes"/>
      <point x="420" y="217"/>
      <point x="420" y="192"/>
      <point x="425" y="172" type="curve" smooth="yes"/>
      <point x="432" y="144" type="line"/>
      <point x="446" y="15" type="line"/>
      <point x="428" y="-15"/>
      <point x="403" y="0"/>
      <point x="379" y="-4" type="curve" smooth="yes"/>
      <point x="372" y="-6"/>
      <point x="362" y="-10"/>
      <point x="357" y="-7" type="curve" smooth="yes"/>
      <point x="352" y="-4"/>
      <point x="344" y="8"/>
      <point x="343" y="14" type="curve"/>
    </contour>
  </outline>
</glyph>
